<?xml version="1.0" standalone="no"?>
<!DOCTYPE svg PUBLIC "-//W3C//DTD SVG 1.1//EN" "http://www.w3.org/Graphics/SVG/1.1/DTD/svg11.dtd" >
<svg xmlns="http://www.w3.org/2000/svg" xmlns:xlink="http://www.w3.org/1999/xlink" version="1.1">
<metadata>
Created by FontForge 20200427 at Thu Sep 28 23:03:30 2017
 By www
Copyright (c) 2017 Newlyn Works Limited. All rights reserved.
</metadata>
<defs>
<font id="MTNBrighterSans-Regular" horiz-adv-x="610" >
  <font-face 
    font-family="MTN Brighter Sans"
    font-weight="400"
    font-stretch="normal"
    units-per-em="1000"
    panose-1="0 0 5 0 0 0 0 0 0 0"
    ascent="800"
    descent="-200"
    x-height="475"
    cap-height="658"
    bbox="-121 -229 2524 913"
    underline-thickness="50"
    underline-position="-150"
    unicode-range="U+000D-25CA"
  />
<missing-glyph horiz-adv-x="724" 
d="M144 0q-44 0 -44 42v573q0 19 11.5 31t32.5 12h436q44 0 44 -42v-573q0 -43 -44 -43h-436zM540 78v503h-355v-503h355z" />
    <glyph glyph-name="Y_e_l_l_o" unicode="Y&#x27;ello" horiz-adv-x="2564" 
d="M1539 674l179 35l-126 -709h-172zM1793 674l179 35l-126 -709h-172zM512 658h175l-221 -387q-63 -110 -126.5 -173t-166.5 -115l-104 114q102 42 182 119l-150 442h185l78 -279zM934 656l-13 -75q-27 -158 -151 -262l-96 65q56 79 78 197l14 75h168zM1396 317
q0 -61 -34 -123h-332q15 -83 120 -83q89 0 166 41l49 -92q-112 -82 -249 -82q-116 0 -187.5 63t-71.5 167q0 121 94 208.5t225 87.5q99 0 159.5 -52t60.5 -135zM2268 504q114 0 185 -64.5t71 -165.5q0 -120 -92.5 -208t-228.5 -88q-113 0 -184.5 64.5t-71.5 167.5
q0 119 92 206.5t229 87.5zM1247 307v8q0 33 -22.5 53t-60.5 20q-39 0 -70.5 -21.5t-48.5 -59.5h202zM2212 107q58 0 95 46.5t37 117.5q0 106 -87 106q-58 0 -94 -46t-36 -117q0 -107 85 -107z" />
    <glyph glyph-name=".notdef" horiz-adv-x="724" 
d="M144 0q-44 0 -44 42v573q0 19 11.5 31t32.5 12h436q44 0 44 -42v-573q0 -43 -44 -43h-436zM540 78v503h-355v-503h355z" />
    <glyph glyph-name=".null" horiz-adv-x="0" 
 />
    <glyph glyph-name="nonmarkingreturn" horiz-adv-x="333" 
 />
    <glyph glyph-name="CR" unicode="&#xd;" horiz-adv-x="262" 
 />
    <glyph glyph-name="space" unicode=" " horiz-adv-x="262" 
 />
    <glyph glyph-name="exclam" unicode="!" horiz-adv-x="296" 
d="M196 203h-95l-10 455h115zM148 -7q-28 0 -48.5 19.5t-20.5 45.5q0 28 20 47.5t49 19.5t49 -19.5t20 -47.5q0 -27 -20 -46t-49 -19z" />
    <glyph glyph-name="quotedbl" unicode="&#x22;" horiz-adv-x="387" 
d="M65 658h93l-15 -249h-63zM229 658h93l-15 -249h-63z" />
    <glyph glyph-name="numbersign" unicode="#" 
d="M607 399h-121l-37 -136h104v-79h-126l-50 -184h-86l50 184h-151l-51 -184h-85l51 184h-102v79h124l37 136h-102v79h124l50 180h85l-50 -180h151l49 180h85l-49 -180h100v-79zM363 263l37 136h-151l-37 -136h151z" />
    <glyph glyph-name="dollar" unicode="$" 
d="M570 189q0 -81 -55.5 -130t-153.5 -57v-122h-86v124q-72 9 -135.5 36t-102.5 62l41 68q86 -67 202 -83v200q-105 22 -162 61t-57 118q0 80 56 130t158 57v121h86v-123q102 -12 178 -63v-96q-87 64 -183 76v-194q47 -10 81.5 -22.5t66.5 -33.5t49 -53.5t17 -75.5zM151 479
q0 -39 32 -58t97 -32v181q-60 -4 -94.5 -27.5t-34.5 -63.5zM356 85q59 4 91.5 28t32.5 67q0 40 -29.5 59t-94.5 33v-187z" />
    <glyph glyph-name="percent" unicode="%" horiz-adv-x="809" 
d="M195 301q-66 0 -109 48.5t-43 134.5q0 88 45 138.5t111 50.5t108.5 -48.5t42.5 -134.5q0 -88 -44.5 -138.5t-110.5 -50.5zM105 0l506 658h90l-507 -658h-89zM197 365q35 0 55.5 32t20.5 87q0 58 -20.5 91.5t-55.5 33.5t-55.5 -32.5t-20.5 -87.5q0 -57 20.5 -90.5
t55.5 -33.5zM610 -15q-66 0 -108.5 49t-42.5 134q0 88 44.5 139t110.5 51q67 0 109.5 -49t42.5 -135q0 -87 -44.5 -138t-111.5 -51zM612 50q35 0 55.5 32t20.5 87q0 57 -20.5 90.5t-55.5 33.5q-34 0 -55 -32.5t-21 -86.5q0 -57 20.5 -90.5t55.5 -33.5z" />
    <glyph glyph-name="ampersand" unicode="&#x26;" horiz-adv-x="709" 
d="M671 38l-69 -68l-102 97q-103 -82 -226 -82q-92 0 -152 45.5t-60 126.5q0 61 36.5 106.5t109.5 84.5q-80 82 -80 156q0 71 53.5 119t136.5 48q78 0 128 -43.5t50 -109.5q0 -57 -38 -99.5t-106 -79.5l155 -146q57 85 62 199h88q0 -142 -90 -256zM313 590
q-39 0 -63.5 -23.5t-24.5 -59.5q0 -29 17 -54.5t55 -62.5q102 55 102 120q0 36 -24 58t-62 22zM289 68q85 0 154 55l-181 172q-54 -31 -76.5 -61t-22.5 -66q0 -47 33.5 -73.5t92.5 -26.5z" />
    <glyph glyph-name="quotesingle" unicode="'" horiz-adv-x="223" 
d="M65 658h93l-15 -249h-63z" />
    <glyph glyph-name="parenleft" unicode="(" horiz-adv-x="335" 
d="M253 -130q-204 158 -204 426q0 271 206 429l62 -56q-83 -67 -128.5 -161.5t-45.5 -209.5q0 -228 173 -372z" />
    <glyph glyph-name="parenright" unicode=")" horiz-adv-x="334" 
d="M82 721q204 -158 204 -426q0 -271 -206 -429l-62 56q83 67 128.5 161.5t45.5 209.5q0 228 -173 372z" />
    <glyph glyph-name="asterisk" unicode="*" horiz-adv-x="528" 
d="M98 311l114 127l-165 35l30 93l154 -66l-16 166h98l-16 -166l154 66l31 -93l-165 -35l113 -127l-78 -58l-88 146l-88 -146z" />
    <glyph glyph-name="plus" unicode="+" 
d="M549 349v-93h-194v-194h-99v194h-195v93h195v189h99v-189h194z" />
    <glyph glyph-name="comma" unicode="," horiz-adv-x="250" 
d="M89 -150l-63 40q50 68 50 188v51h100v-53q0 -131 -87 -226z" />
    <glyph glyph-name="hyphen" unicode="-" horiz-adv-x="460" 
d="M70 211v87h320v-87h-320z" />
    <glyph glyph-name="period" unicode="." horiz-adv-x="260" 
d="M130 -7q-29 0 -50 20.5t-21 49.5q0 30 21 51t50 21q30 0 50.5 -21t20.5 -51q0 -29 -20.5 -49.5t-50.5 -20.5z" />
    <glyph glyph-name="slash" unicode="/" horiz-adv-x="423" 
d="M33 -32l265 735h93l-265 -735h-93z" />
    <glyph glyph-name="zero" unicode="0" 
d="M303 -12q-113 0 -187 89.5t-74 245.5q0 158 75.5 252.5t190.5 94.5q113 0 187 -90t74 -246q0 -157 -75.5 -251.5t-190.5 -94.5zM307 74q70 0 113.5 69t43.5 181q0 117 -44 188.5t-116 71.5q-69 0 -113 -69.5t-44 -180.5q0 -118 43.5 -189t116.5 -71z" />
    <glyph glyph-name="one" unicode="1" 
d="M391 87h139v-87h-406v87h167v486l-179 -20l-5 76l284 43v-585z" />
    <glyph glyph-name="two" unicode="2" 
d="M201 84q152 7 337 7v-90l-468 -1v77q206 176 270 251.5t64 139.5q0 50 -33 81t-86 31q-90 0 -160 -82l-50 59q92 113 225 113q93 0 152.5 -53.5t59.5 -138.5q0 -46 -17.5 -87.5t-61.5 -92t-93 -95t-139 -119.5z" />
    <glyph glyph-name="three" unicode="3" 
d="M409 348q63 -22 98 -64t35 -102q0 -88 -72.5 -141.5t-189.5 -53.5q-121 0 -214 57v92q94 -64 208 -64q71 0 117 31t46 84t-47 82t-131 29h-80v80h85q69 0 112.5 30t43.5 78q0 43 -38 71.5t-97 28.5q-97 0 -183 -73l-43 63q44 42 107 68t133 26q98 0 161 -47.5t63 -123.5
q0 -51 -30.5 -90t-83.5 -61z" />
    <glyph glyph-name="four" unicode="4" 
d="M576 227v-83h-120v-144h-97v144h-332v74l339 443h90v-434h120zM360 227l4 303l-231 -303h227z" />
    <glyph glyph-name="five" unicode="5" 
d="M321 409q100 0 162.5 -54.5t62.5 -140.5q0 -100 -74.5 -163t-194.5 -63q-121 0 -207 59v97q84 -66 201 -66q74 0 121 35t47 92q0 56 -40 87.5t-110 31.5q-87 0 -155 -42l-44 34l36 342l393 -1v-88l-317 1l-23 -196q64 35 142 35z" />
    <glyph glyph-name="six" unicode="6" 
d="M345 426q91 0 151.5 -56.5t60.5 -150.5q0 -100 -66.5 -165.5t-171.5 -65.5q-115 0 -185 82.5t-70 237.5q0 162 83 262t213 100q78 0 147 -31v-90q-61 37 -136 37q-86 0 -140 -64t-63 -175q73 79 177 79zM320 72q60 0 97 39t37 98q0 60 -37 98.5t-97 38.5q-91 0 -152 -77
q7 -98 46.5 -147.5t105.5 -49.5z" />
    <glyph glyph-name="seven" unicode="7" 
d="M540 658v-76l-283 -582h-115l293 569q-96 -4 -357 -4v93h462z" />
    <glyph glyph-name="eight" unicode="8" 
d="M413 342q150 -49 150 -170q0 -83 -71.5 -134.5t-186.5 -51.5t-186.5 50.5t-71.5 130.5q0 120 151 171q-130 52 -130 157q0 79 65.5 128t171.5 49q107 0 172.5 -48t65.5 -126q0 -106 -130 -156zM169 488q0 -82 143 -116q130 35 130 116q0 46 -37.5 73.5t-99.5 27.5
t-99 -27.5t-37 -73.5zM305 70q69 0 111.5 29.5t42.5 78.5q0 90 -156 127q-152 -34 -152 -127q0 -49 42.5 -78.5t111.5 -29.5z" />
    <glyph glyph-name="nine" unicode="9" 
d="M294 670q113 0 183 -86t70 -245q0 -164 -78 -257.5t-206 -93.5q-88 0 -177 37v90q81 -43 164 -43q89 0 138 60.5t55 177.5q-68 -74 -175 -74q-92 0 -151.5 55.5t-59.5 146.5q0 100 67.5 166t169.5 66zM293 316q94 0 149 71q-7 99 -46.5 149t-103.5 50q-59 0 -95.5 -39
t-36.5 -99t36.5 -96t96.5 -36z" />
    <glyph glyph-name="colon" unicode=":" horiz-adv-x="279" 
d="M138 319q-29 0 -50 20.5t-21 49.5q0 30 21 51t50 21q30 0 50.5 -21t20.5 -51q0 -29 -20.5 -49.5t-50.5 -20.5zM141 -7q-29 0 -50 20.5t-21 49.5q0 30 21 51t50 21q30 0 50.5 -21t20.5 -51q0 -29 -20.5 -49.5t-50.5 -20.5z" />
    <glyph glyph-name="semicolon" unicode=";" horiz-adv-x="283" 
d="M142 319q-29 0 -50 20.5t-21 49.5q0 30 21 51t50 21q30 0 50.5 -21t20.5 -51q0 -29 -20.5 -49.5t-50.5 -20.5zM112 -149l-63 40q50 68 50 188v51h100v-53q0 -131 -87 -226z" />
    <glyph glyph-name="less" unicode="&#x3c;" 
d="M491 547v-102l-310 -142l310 -143v-101l-413 207v73z" />
    <glyph glyph-name="equal" unicode="=" 
d="M70 366v90h470v-90h-470zM70 149v90h470v-90h-470z" />
    <glyph glyph-name="greater" unicode="&#x3e;" 
d="M119 547l413 -208v-73l-413 -207v101l310 143l-310 142v102z" />
    <glyph glyph-name="question" unicode="?" horiz-adv-x="515" 
d="M184 203q-5 15 -5 36q0 33 19.5 61.5t48 50t56.5 43t47.5 49t19.5 58.5q0 39 -32 63t-87 24q-95 0 -179 -70l-43 62q100 93 235 93q91 0 150.5 -45.5t59.5 -121.5q0 -44 -20.5 -81.5t-50 -62t-59 -46t-50 -44.5t-20.5 -47q0 -8 2 -22h-92zM231 -7q-29 0 -49 19t-20 47
q0 27 20.5 46.5t48.5 19.5q29 0 49 -19.5t20 -46.5q0 -28 -20 -47t-49 -19z" />
    <glyph glyph-name="at" unicode="@" horiz-adv-x="905" 
d="M505 629q154 0 250 -82.5t97 -227.5q0 -120 -57.5 -197t-138.5 -77t-95 79q-66 -81 -159 -81q-71 0 -115.5 45.5t-44.5 124.5q0 94 64.5 160.5t156.5 66.5q76 0 132 -44l84 17l-44 -226q-3 -15 -3 -25q0 -38 35 -38q39 0 69.5 56.5t30.5 132.5q-1 113 -77.5 174.5
t-194.5 61.5q-151 0 -253 -99t-102 -248q0 -126 70.5 -193.5t204.5 -67.5q90 0 171 36l29 -65q-88 -51 -215 -51q-158 0 -255 86.5t-97 249.5q0 182 131 307t326 125zM427 114q68 0 125 70l23 117q-33 72 -115 72q-57 0 -96 -43t-39 -106q0 -52 27 -81t75 -29z" />
    <glyph glyph-name="A" unicode="A" horiz-adv-x="703" 
d="M576 -1l-72 168h-316l-71 -167h-99l285 658h97l284 -658zM224 252h244l-122 286z" />
    <glyph glyph-name="B" unicode="B" horiz-adv-x="715" 
d="M532 337q58 -18 90 -58.5t32 -95.5q0 -89 -63.5 -136t-164.5 -47h-323v658h294q110 0 172.5 -44.5t62.5 -126.5q0 -110 -100 -150zM389 573h-184v-200h196q58 0 91.5 25.5t33.5 73.5q0 101 -137 101zM408 85q69 0 104.5 27t35.5 77q0 48 -33 75.5t-98 27.5h-212v-207h203
z" />
    <glyph glyph-name="C" unicode="C" horiz-adv-x="677" 
d="M390 79q117 0 214 92l49 -65q-119 -121 -278 -121q-144 0 -232 93t-88 243q0 156 93 254t240 98q121 0 218 -63v-105q-90 78 -211 78q-105 0 -168 -69.5t-63 -182.5t62 -182.5t164 -69.5z" />
    <glyph glyph-name="D" unicode="D" horiz-adv-x="745" 
d="M103 0v658h248q149 0 244.5 -89t95.5 -232q0 -146 -97.5 -241.5t-245.5 -95.5h-245zM206 87h147q101 0 165.5 66.5t64.5 172.5q0 109 -67 177t-172 68h-138v-484z" />
    <glyph glyph-name="E" unicode="E" horiz-adv-x="651" 
d="M206 85h394v-85h-497v658h487v-85h-384v-199h331v-85h-331v-204z" />
    <glyph glyph-name="F" unicode="F" horiz-adv-x="616" 
d="M103 0v658h480v-85h-377v-223h327v-85h-327v-265h-103z" />
    <glyph glyph-name="G" unicode="G" horiz-adv-x="719" 
d="M562 330h92v-268q-116 -77 -265 -77t-241.5 93t-92.5 244q0 155 96 253t247 98q62 0 124.5 -19.5t106.5 -50.5v-106q-100 86 -222 86q-110 0 -177 -70t-67 -184t65 -185t170 -71q87 0 164 40v217z" />
    <glyph glyph-name="H" unicode="H" horiz-adv-x="787" 
d="M103 0v658h103v-285h376v285h103v-658h-103v286h-376v-286h-103z" />
    <glyph glyph-name="I" unicode="I" horiz-adv-x="308" 
d="M103 0v658h103v-658h-103z" />
    <glyph glyph-name="J" unicode="J" horiz-adv-x="520" 
d="M228 -15q-62 0 -121.5 29.5t-96.5 77.5l51 59q30 -34 73 -55t86 -21q53 0 77.5 30.5t24.5 95.5v457h103v-467q0 -100 -50.5 -153t-146.5 -53z" />
    <glyph glyph-name="K" unicode="K" horiz-adv-x="702" 
d="M564 0l-217 326l-141 -141v-185h-103v658h103v-355l341 355h132l-261 -261l268 -397h-122z" />
    <glyph glyph-name="L" unicode="L" horiz-adv-x="585" 
d="M103 658h103v-571h362v-87h-465v658z" />
    <glyph glyph-name="M" unicode="M" horiz-adv-x="852" 
d="M656 658h94v-658h-102v491l-191 -280h-61l-199 280v-491h-94v658h94l235 -332z" />
    <glyph glyph-name="N" unicode="N" horiz-adv-x="784" 
d="M588 658h94v-658h-87l-398 498v-498h-94v658h93l392 -491v491z" />
    <glyph glyph-name="O" unicode="O" horiz-adv-x="784" 
d="M387 -15q-146 0 -239 95t-93 242q0 153 96 252t246 99q147 0 239.5 -94.5t92.5 -241.5q0 -154 -95.5 -253t-246.5 -99zM396 72q99 0 162 71.5t63 182.5q0 114 -65 187t-167 73q-100 0 -163 -71.5t-63 -182.5q0 -114 65 -187t168 -73z" />
    <glyph glyph-name="P" unicode="P" horiz-adv-x="674" 
d="M377 658q125 0 193 -55.5t68 -154.5q0 -101 -70 -158.5t-193 -57.5h-169v-232h-103v658h274zM370 317q80 0 120 33.5t40 95.5q0 127 -160 127h-164v-256h164z" />
    <glyph glyph-name="Q" unicode="Q" horiz-adv-x="796" 
d="M767 -11l-62 -63l-121 116q-86 -57 -197 -57q-146 0 -239 95t-93 242q0 153 96 252t246 99q147 0 239.5 -94.5t92.5 -241.5q0 -139 -79 -235zM396 72q67 0 121 35l-86 83l62 63l86 -82q42 65 42 155q0 114 -65 187t-167 73q-100 0 -163 -71.5t-63 -182.5q0 -114 65 -187
t168 -73z" />
    <glyph glyph-name="R" unicode="R" horiz-adv-x="715" 
d="M672 0h-121l-152 245h-14h-179v-245h-103v658h295q117 0 183.5 -54t66.5 -147q0 -69 -38.5 -119t-106.5 -74zM206 330h179q72 0 113.5 32.5t41.5 90.5q0 57 -40.5 88.5t-110.5 31.5h-183v-243z" />
    <glyph glyph-name="S" unicode="S" horiz-adv-x="651" 
d="M338 -15q-172 0 -296 101l38 73q122 -87 259 -87q73 0 115.5 26.5t42.5 72.5q0 44 -36 64.5t-139 42.5q-137 30 -195.5 72.5t-58.5 117.5q0 91 75.5 148t192.5 57q136 0 236 -62v-101q-103 76 -231 76q-75 0 -122 -28t-47 -75q0 -41 39.5 -61t153.5 -47q121 -28 178 -68
t57 -122q0 -90 -72 -145t-190 -55z" />
    <glyph glyph-name="T" unicode="T" horiz-adv-x="613" 
d="M255 571h-238v87h579v-87h-238v-571h-103v571z" />
    <glyph glyph-name="U" unicode="U" horiz-adv-x="755" 
d="M378 -14q-133 0 -209 75.5t-76 200.5v396h103v-398q0 -86 50 -134.5t135 -48.5q86 0 136 48.5t50 134.5v398h95v-396q0 -125 -76 -200.5t-208 -75.5z" />
    <glyph glyph-name="V" unicode="V" horiz-adv-x="688" 
d="M569 658h100l-276 -658h-98l-276 658h109l221 -543z" />
    <glyph glyph-name="W" unicode="W" horiz-adv-x="943" 
d="M821 658h90l-198 -658h-91l-151 503l-149 -503h-92l-198 658h101l150 -533l148 533h91l151 -533z" />
    <glyph glyph-name="X" unicode="X" horiz-adv-x="660" 
d="M643 0h-122l-199 265l-191 -265h-113l250 337l-241 321h122l189 -251l181 251h114l-241 -323z" />
    <glyph glyph-name="Y" unicode="Y" horiz-adv-x="672" 
d="M545 658h109l-267 -386v-272h-102v272l-266 386h118l203 -306z" />
    <glyph glyph-name="Z" unicode="Z" horiz-adv-x="630" 
d="M176 85h409v-85h-539v81l399 492h-389v85h519v-78z" />
    <glyph glyph-name="bracketleft" unicode="[" horiz-adv-x="330" 
d="M296 -49v-79h-200v853h200v-79h-108v-695h108z" />
    <glyph glyph-name="backslash" unicode="\" horiz-adv-x="423" 
d="M390 -32h-93l-265 735h93z" />
    <glyph glyph-name="bracketright" unicode="]" horiz-adv-x="330" 
d="M34 -49h108v695h-108v79h200v-853h-200v79z" />
    <glyph glyph-name="asciicircum" unicode="^" 
d="M528 414h-96l-127 170l-127 -170h-95l184 239h76z" />
    <glyph glyph-name="underscore" unicode="_" horiz-adv-x="441" 
d="M-20 -150v87h481v-87h-481z" />
    <glyph glyph-name="grave" unicode="`" horiz-adv-x="266" 
d="M215 526l-189 130l57 69l171 -151z" />
    <glyph glyph-name="a" unicode="a" horiz-adv-x="616" 
d="M433 464l99 24v-488h-96v66q-69 -78 -173 -78q-92 0 -155.5 64.5t-63.5 169.5q0 115 77 190.5t188 75.5q60 0 124 -25v1zM293 71q87 0 140 68v230q-60 40 -123 40q-71 0 -117 -47.5t-46 -127.5q0 -74 40 -118.5t106 -44.5z" />
    <glyph glyph-name="b" unicode="b" horiz-adv-x="617" 
d="M346 488q95 0 160.5 -66t65.5 -176q0 -116 -75 -187.5t-198 -71.5q-109 0 -220 53v633l99 20v-271q71 66 168 66zM304 66q74 0 119.5 46t45.5 125q0 77 -43 124.5t-110 47.5q-82 0 -138 -64v-248q62 -31 126 -31z" />
    <glyph glyph-name="c" unicode="c" horiz-adv-x="536" 
d="M295 -15q-109 0 -179.5 67t-70.5 176q0 114 76 188t187 74q95 0 172 -49v-92q-67 59 -162 59q-74 0 -122.5 -48t-48.5 -124q0 -75 45 -120t119 -45q84 0 159 64l42 -57q-93 -93 -217 -93z" />
    <glyph glyph-name="d" unicode="d" horiz-adv-x="620" 
d="M437 673l99 20v-693h-96v65q-72 -77 -179 -77q-93 0 -155 63.5t-62 169.5q0 116 76 191.5t190 75.5q60 0 127 -24v209zM296 71q87 0 141 70v230q-61 38 -128 38q-70 0 -116 -47t-46 -127q0 -76 42 -120t107 -44z" />
    <glyph glyph-name="e" unicode="e" horiz-adv-x="579" 
d="M321 66q92 0 171 65l39 -54q-96 -91 -226 -91q-114 0 -187 65.5t-73 175.5q0 113 75.5 188t188.5 75q99 0 161 -58.5t62 -152.5q0 -34 -11 -63h-378q7 -70 54 -110t124 -40zM309 417q-59 0 -103.5 -35t-58.5 -95h295q-3 59 -39 94.5t-94 35.5z" />
    <glyph glyph-name="f" unicode="f" horiz-adv-x="386" 
d="M289 620q-56 0 -81 -28.5t-25 -91.5v-25h188v-80h-188v-395h-99v497q0 203 194 203q75 0 137 -24v-83q-62 27 -126 27z" />
    <glyph glyph-name="g" unicode="g" horiz-adv-x="620" 
d="M609 475v-86l-132 5q52 -50 52 -120q0 -82 -67.5 -137.5t-170.5 -55.5q-12 0 -38 2l-94 -160q122 83 243 83q76 0 127.5 -43t57.5 -146l-103 -12q-6 64 -35.5 88.5t-80.5 25.5q-58 0 -128 -24.5t-131 -64.5l-61 41l113 239q-52 26 -81.5 70.5t-29.5 99.5q0 86 68 146
t170 60q42 0 81 -11h240zM291 156q61 0 101 34.5t40 89.5q0 57 -42 94t-103 37q-59 0 -99.5 -36t-40.5 -92t41.5 -91.5t102.5 -35.5z" />
    <glyph glyph-name="h" unicode="h" horiz-adv-x="632" 
d="M377 486q80 0 130 -51t50 -152v-283h-99v257q0 144 -115 144q-90 0 -160 -96v-305h-99v673l99 20v-300q78 93 194 93z" />
    <glyph glyph-name="i" unicode="i" horiz-adv-x="265" 
d="M132 565q-28 0 -46.5 17.5t-18.5 44.5q0 26 18.5 44.5t46.5 18.5q27 0 46 -18.5t19 -44.5q0 -27 -19 -44.5t-46 -17.5zM83 0v467l99 21v-488h-99z" />
    <glyph glyph-name="j" unicode="j" horiz-adv-x="269" 
d="M136 565q-27 0 -45.5 17.5t-18.5 44.5q0 26 18.5 44.5t45.5 18.5q28 0 47 -18.5t19 -44.5q0 -27 -19 -44.5t-47 -17.5zM77 -204l-59 43q38 53 53.5 109t15.5 148v371l99 21v-408q0 -179 -109 -284z" />
    <glyph glyph-name="k" unicode="k" horiz-adv-x="585" 
d="M453 0l-171 215l-99 -90v-125h-99v673l99 20v-462l255 244h131l-217 -197l228 -278h-127z" />
    <glyph glyph-name="l" unicode="l" horiz-adv-x="266" 
d="M84 0v673l99 20v-693h-99z" />
    <glyph glyph-name="m" unicode="m" horiz-adv-x="907" 
d="M672 484q72 0 116 -51t44 -151v-282h-99v262q0 137 -92 137q-81 0 -135 -92q1 -8 1 -25v-282h-99v262q0 137 -92 137q-81 0 -134 -91v-308h-99v467l96 21v-92q68 88 167 88q50 0 88 -26t57 -77q33 48 80 75.5t101 27.5z" />
    <glyph glyph-name="n" unicode="n" horiz-adv-x="630" 
d="M375 486q80 0 130 -51t50 -152v-283h-99v257q0 144 -115 144q-89 0 -159 -94v-307h-99v467l96 21v-98q37 46 89 71t107 25z" />
    <glyph glyph-name="o" unicode="o" horiz-adv-x="616" 
d="M306 -15q-112 0 -187 69t-75 178q0 110 77 184t189 74q111 0 186.5 -69t75.5 -178q0 -110 -77 -184t-189 -74zM312 63q69 0 113.5 48.5t44.5 124.5q0 79 -46 127.5t-120 48.5q-70 0 -114 -48.5t-44 -124.5q0 -79 46 -127.5t120 -48.5z" />
    <glyph glyph-name="p" unicode="p" horiz-adv-x="621" 
d="M352 488q93 0 159 -66.5t66 -175.5q0 -115 -75.5 -187t-192.5 -72q-62 0 -127 22v-209h-99v667l96 21v-70q73 70 173 70zM313 66q73 0 117 45.5t44 122.5t-43.5 124.5t-112.5 47.5q-81 0 -136 -62v-237q62 -41 131 -41z" />
    <glyph glyph-name="q" unicode="q" horiz-adv-x="613" 
d="M314 490q106 0 222 -64v-626h-99v261q-69 -73 -172 -73q-95 0 -157.5 63.5t-62.5 168.5q0 117 76.5 193.5t192.5 76.5zM295 71q89 0 142 71v232q-64 37 -127 37q-71 0 -116.5 -48t-45.5 -128q0 -75 40 -119.5t107 -44.5z" />
    <glyph glyph-name="r" unicode="r" horiz-adv-x="430" 
d="M358 486q28 0 55 -6v-99q-30 11 -62 11q-56 0 -96 -30t-73 -94v-268h-99v467l96 21v-128q33 61 80 93.5t99 32.5z" />
    <glyph glyph-name="s" unicode="s" horiz-adv-x="532" 
d="M282 -15q-70 0 -136 19.5t-109 48.5l31 64q91 -57 212 -57q53 0 84.5 18t31.5 50q0 28 -28 41t-105 26q-111 18 -160.5 48.5t-49.5 94.5q0 68 58.5 110t155.5 42q112 0 197 -45v-82q-76 54 -196 54q-55 0 -88.5 -18.5t-33.5 -49.5q0 -27 28.5 -40.5t106.5 -25.5
q106 -17 157 -47.5t51 -99.5t-56 -110t-151 -41z" />
    <glyph glyph-name="t" unicode="t" horiz-adv-x="375" 
d="M84 0v629l99 22v-176h178v-80l-178 1v-396h-99z" />
    <glyph glyph-name="u" unicode="u" horiz-adv-x="623" 
d="M440 466l99 21v-487h-96v84q-76 -94 -191 -94q-80 0 -129.5 51t-49.5 153v272l99 21v-267q0 -144 112 -144q91 0 156 91v299z" />
    <glyph glyph-name="v" unicode="v" horiz-adv-x="553" 
d="M440 475h98l-211 -475h-100l-212 475h106l159 -371z" />
    <glyph glyph-name="w" unicode="w" horiz-adv-x="792" 
d="M676 475h94l-164 -475h-95l-118 344l-111 -344h-95l-165 475h101l116 -369l115 369h92l118 -369z" />
    <glyph glyph-name="x" unicode="x" horiz-adv-x="550" 
d="M538 0h-120l-150 181l-142 -181h-114l202 245l-191 230h122l139 -168l129 168h114l-191 -231z" />
    <glyph glyph-name="y" unicode="y" horiz-adv-x="543" 
d="M431 475h98l-301 -675h-98l97 207l-212 468h106l155 -359z" />
    <glyph glyph-name="z" unicode="z" horiz-adv-x="519" 
d="M175 80h303v-80h-437v76l294 319h-286v80h421v-75z" />
    <glyph glyph-name="braceleft" unicode="{" horiz-adv-x="352" 
d="M300 645q-108 0 -108 -84q0 -25 15 -84t15 -86q0 -31 -21 -56t-57 -37q36 -11 57 -36t21 -57q0 -27 -15 -85t-15 -83q0 -85 108 -85h18v-80q-20 -2 -32 -2q-87 0 -136.5 40.5t-49.5 105.5q0 32 16 96t16 83q0 31 -21.5 48.5t-75.5 21.5v68q54 4 75.5 21.5t21.5 48.5
q0 19 -16 82.5t-16 94.5q0 66 49.5 106.5t136.5 40.5q12 0 32 -2v-80h-18z" />
    <glyph glyph-name="bar" unicode="|" horiz-adv-x="282" 
d="M97 857h88v-1055h-88v1055z" />
    <glyph glyph-name="braceright" unicode="}" horiz-adv-x="352" 
d="M317 264q-54 -4 -75.5 -21.5t-21.5 -48.5q0 -19 16 -82.5t16 -94.5q0 -66 -49.5 -106.5t-136.5 -40.5q-12 0 -32 2v80h18q108 0 108 84q0 25 -15 84t-15 86q0 31 21 56t57 37q-36 11 -57 36t-21 57q0 27 15 85t15 83q0 85 -108 85h-18v80q20 2 32 2q87 0 136.5 -40.5
t49.5 -105.5q0 -32 -16 -96t-16 -83q0 -31 21.5 -48.5t75.5 -21.5v-68z" />
    <glyph glyph-name="asciitilde" unicode="~" 
d="M420 169q-45 0 -119 44t-102 44q-60 0 -78 -79l-63 27q8 52 41.5 92t92.5 40q45 0 119 -44t103 -44q59 0 77 79l63 -27q-7 -52 -40.5 -92t-93.5 -40z" />
    <glyph glyph-name="uni00A0" unicode="&#xa0;" horiz-adv-x="262" 
 />
    <glyph glyph-name="exclamdown" unicode="&#xa1;" horiz-adv-x="296" 
d="M217 600q0 -28 -20 -47.5t-49 -19.5t-49 19.5t-20 47.5q0 26 20.5 45.5t48.5 19.5q29 0 49 -19t20 -46zM196 455l10 -455h-115l10 455h95z" />
    <glyph glyph-name="cent" unicode="&#xa2;" 
d="M545 77q-67 -67 -155 -85v-118h-86l1 113q-102 7 -165 72t-63 167q0 104 64 175.5t163 85.5v113h86v-113q68 -11 122 -46v-89q-59 46 -128 56v-334q65 12 119 61zM175 235q0 -65 36 -108.5t98 -53.5v333q-61 -13 -97.5 -59.5t-36.5 -111.5z" />
    <glyph glyph-name="sterling" unicode="&#xa3;" 
d="M197 81q106 8 349 8l-1 -89h-464v63q90 83 93 204h-105v80h95l-11.5 34.5l-13 39t-8.5 36t-4 41.5q0 75 53.5 124t144.5 49q119 0 218 -79l-39 -66q-81 58 -162 58q-56 0 -87 -26.5t-31 -74.5q0 -21 5 -43t14.5 -50t13.5 -43h196v-80h-186q-3 -106 -70 -186z" />
    <glyph glyph-name="yen" unicode="&#xa5;" 
d="M622 658l-154 -222h110v-71h-159l-54 -79h213v-71h-223v-215h-102v215h-214v71h204l-54 79h-150v71h101l-153 222h118l203 -306l205 306h109z" />
    <glyph glyph-name="brokenbar" unicode="&#xa6;" horiz-adv-x="282" 
d="M97 432v425h88v-425h-88zM97 -198v424h88v-424h-88z" />
    <glyph glyph-name="section" unicode="&#xa7;" horiz-adv-x="569" 
d="M415 210q82 -34 82 -113q0 -74 -54.5 -113t-147.5 -39q-68 0 -136 20t-109 50l32 65q38 -26 95 -42.5t114 -16.5q116 0 116 68q0 28 -28.5 41.5t-103.5 26.5q-105 18 -157 46.5t-52 88.5q0 87 99 119q-83 34 -83 113q0 71 58 110t141 39q123 0 206 -47v-83
q-95 55 -201 55q-53 0 -84.5 -18.5t-31.5 -50.5q0 -28 27.5 -40t107.5 -26q101 -17 154 -46.5t53 -86.5q0 -88 -97 -120zM159 312q0 -30 30.5 -43.5t103.5 -27.5q4 -1 12 -2.5t11 -1.5q103 11 103 72q0 29 -29 43.5t-103 27.5q-5 1 -14 2.5t-13 2.5q-48 -6 -74.5 -25
t-26.5 -48z" />
    <glyph glyph-name="dieresis" unicode="&#xa8;" horiz-adv-x="464" 
d="M151 556q-23 0 -39 16.5t-16 39.5t16 39.5t39 16.5t40 -16.5t17 -39.5t-17 -39.5t-40 -16.5zM328 556q-23 0 -39.5 16.5t-16.5 39.5t16.5 39.5t39.5 16.5q24 0 40 -16.5t16 -39.5t-16 -39.5t-40 -16.5z" />
    <glyph glyph-name="copyright" unicode="&#xa9;" horiz-adv-x="794" 
d="M397 -15q-143 0 -243.5 100.5t-100.5 243.5t100.5 243.5t243.5 100.5t243.5 -100.5t100.5 -243.5t-99.5 -243.5t-244.5 -100.5zM397 36q123 0 206 85.5t83 207.5t-84.5 207.5t-204.5 85.5q-119 0 -204 -86t-85 -207t85 -207t204 -86zM401 140q-80 0 -132 50t-52 132
q0 86 55 142.5t137 56.5q64 0 117 -37v-83q-49 46 -108 46q-50 0 -80.5 -34t-30.5 -85q0 -49 29.5 -79.5t77.5 -30.5q56 0 103 47l41 -55q-63 -70 -157 -70z" />
    <glyph glyph-name="ordfeminine" unicode="&#xaa;" horiz-adv-x="510" 
d="M356 634l78 19v-380l-83 -5v46q-56 -54 -129 -54q-71 0 -122.5 52t-51.5 137q0 90 59 147t148 57q48 0 101 -19zM251 335q58 0 96 46v174q-45 27 -89 27q-53 0 -85 -34t-32 -89t31.5 -89.5t78.5 -34.5z" />
    <glyph glyph-name="guillemotleft" unicode="&#xab;" horiz-adv-x="615" 
d="M329 395l-197 -157l197 -158l-47 -55l-240 192v41l240 192zM567 395l-197 -157l197 -158l-47 -55l-240 192v41l240 192z" />
    <glyph glyph-name="logicalnot" unicode="&#xac;" 
d="M432 66v190h-368v93h467v-283h-99z" />
    <glyph glyph-name="registered" unicode="&#xae;" horiz-adv-x="512" 
d="M256 673q85 0 144.5 -58.5t59.5 -141.5q0 -84 -59.5 -142.5t-144.5 -58.5q-84 0 -144 58.5t-60 142.5q0 83 60 141.5t144 58.5zM256 312q67 0 114.5 47t47.5 114t-47.5 114t-114.5 47t-114.5 -47t-47.5 -114t47.5 -114t114.5 -47zM352 518q0 -45 -46 -63l55 -84h-56
l-46 76h-39v-76h-49v214h99q37 0 59.5 -19t22.5 -48zM220 545v-58h37q44 0 44 29t-41 29h-40z" />
    <glyph glyph-name="macron" unicode="&#xaf;" horiz-adv-x="423" 
d="M69 576v78h284v-78h-284z" />
    <glyph glyph-name="degree" unicode="&#xb0;" horiz-adv-x="419" 
d="M210 351q-68 0 -114.5 46t-46.5 112t46.5 112t114.5 46t114.5 -46t46.5 -112t-46.5 -112t-114.5 -46zM210 415q40 0 66.5 27t26.5 67t-26.5 67t-66.5 27t-66.5 -27t-26.5 -67t26.5 -67t66.5 -27z" />
    <glyph glyph-name="plusminus" unicode="&#xb1;" 
d="M355 359h194v-88h-194v-122h-99v122h-195v88h195v189h99v-189zM61 23v88h488v-88h-488z" />
    <glyph glyph-name="uni00B2" unicode="&#xb2;" horiz-adv-x="453" 
d="M172 303q94 7 218 7v-79l-327 -1v64q127 102 171.5 148.5t44.5 84.5q0 29 -18.5 45.5t-48.5 16.5q-54 0 -105 -49l-43 51q28 34 71 55.5t93 21.5q64 0 105 -35t41 -91q0 -57 -46.5 -108.5t-155.5 -130.5z" />
    <glyph glyph-name="uni00B3" unicode="&#xb3;" horiz-adv-x="445" 
d="M302 456q84 -30 84 -106q0 -58 -49 -93t-128 -35q-83 0 -147 36v78q62 -39 135 -39q44 0 69 15.5t25 44.5q0 57 -104 57h-50v68h51q43 0 67.5 19t24.5 44q0 22 -20.5 36.5t-54.5 14.5q-56 0 -111 -38l-34 53q68 59 164 59q63 0 106 -30.5t43 -78.5q0 -68 -71 -105z" />
    <glyph glyph-name="acute" unicode="&#xb4;" horiz-adv-x="266" 
d="M60 526l-39 48l171 151l57 -69z" />
    <glyph glyph-name="uni00B5" unicode="&#xb5;" horiz-adv-x="651" 
d="M457 466l99 21v-487h-96v102q-31 -55 -74.5 -83.5t-89.5 -28.5q-76 0 -112 60q6 -121 47 -250h-105q-38 138 -38 369v297l99 21v-274q0 -70 29.5 -104t80.5 -34q97 0 160 108v283z" />
    <glyph glyph-name="paragraph" unicode="&#xb6;" horiz-adv-x="793" 
d="M313 -134q62 69 62 173v179h-84q-115 0 -187 58t-72 158q0 103 73 163.5t188 60.5h445v-83h-73v-576h-92v576h-106v-530q0 -142 -93 -225zM130 439q0 -64 42 -101t119 -37h84v274h-84q-76 0 -118.5 -36.5t-42.5 -99.5z" />
    <glyph glyph-name="periodcentered" unicode="&#xb7;" horiz-adv-x="270" 
d="M135 191q-29 0 -50 20.5t-21 49.5q0 30 21 51t50 21q30 0 50.5 -21t20.5 -51q0 -29 -20.5 -49.5t-50.5 -20.5z" />
    <glyph glyph-name="cedilla" unicode="&#xb8;" horiz-adv-x="338" 
d="M199 -44q38 0 61 -19t23 -52q0 -43 -34.5 -69t-91.5 -26q-59 0 -101 21l17 49q38 -17 83 -17q61 0 61 36q0 30 -48 30q-27 0 -43 -6l-25 23l31 83h58l-23 -55q10 2 32 2z" />
    <glyph glyph-name="uni00B9" unicode="&#xb9;" horiz-adv-x="407" 
d="M271 306h91v-76h-289v76h109v277l-116 -12l-4 73l209 25v-363z" />
    <glyph glyph-name="ordmasculine" unicode="&#xba;" horiz-adv-x="514" 
d="M254 260q-90 0 -148 54.5t-58 138.5q0 86 60 142.5t153 56.5q90 0 148 -53.5t58 -138.5q0 -87 -60.5 -143.5t-152.5 -56.5zM261 332q50 0 83 34t33 87q0 56 -35 93t-87 37q-51 0 -84 -34.5t-33 -87.5q0 -55 35 -92t88 -37z" />
    <glyph glyph-name="guillemotright" unicode="&#xbb;" horiz-adv-x="615" 
d="M335 258v-41l-240 -192l-47 55l197 158l-197 157l47 55zM333 450l240 -192v-41l-240 -192l-47 55l197 158l-197 157z" />
    <glyph glyph-name="onequarter" unicode="&#xbc;" horiz-adv-x="991" 
d="M60 306h109v277l-116 -12l-4 73l209 25v-363h91v-76h-289v76zM731 658h90l-506 -658h-90zM957 152v-68h-77v-84h-82v84h-217v65l224 282h75v-279h77zM799 152l4 178l-141 -178h137z" />
    <glyph glyph-name="onehalf" unicode="&#xbd;" horiz-adv-x="1023" 
d="M58 306h109v277l-116 -12l-4 73l209 25v-363h91v-76h-289v76zM732 658h90l-506 -658h-90zM764 73q94 7 218 7v-79l-327 -1v64q127 102 171.5 148.5t44.5 84.5q0 29 -18.5 45.5t-48.5 16.5q-54 0 -105 -49l-43 51q28 34 71 55.5t93 21.5q64 0 105 -35t41 -91
q0 -57 -46.5 -108.5t-155.5 -130.5z" />
    <glyph glyph-name="threequarters" unicode="&#xbe;" horiz-adv-x="991" 
d="M376 350q0 -58 -49 -93t-128 -35q-83 0 -147 36v78q62 -39 135 -39q44 0 69 15.5t25 44.5q0 57 -104 57h-50v68h51q43 0 67.5 19t24.5 44q0 22 -20.5 36.5t-54.5 14.5q-56 0 -111 -38l-34 53q68 59 164 59q63 0 106 -30.5t43 -78.5q0 -68 -71 -105q84 -30 84 -106z
M730 658h90l-506 -658h-90zM957 152v-68h-77v-84h-82v84h-217v65l224 282h75v-279h77zM799 152l4 178l-141 -178h137z" />
    <glyph glyph-name="questiondown" unicode="&#xbf;" horiz-adv-x="517" 
d="M285 666q29 0 49 -19t20 -47q0 -27 -20.5 -46.5t-48.5 -19.5q-29 0 -49 19.5t-20 46.5q0 28 20 47t49 19zM332 456q5 -15 5 -36q0 -33 -19.5 -61.5t-47.5 -50t-56.5 -43t-48 -49t-19.5 -58.5q0 -39 32 -63t87 -24q95 0 179 70l43 -62q-100 -93 -235 -93
q-91 0 -150.5 45.5t-59.5 121.5q0 44 20.5 81.5t50 62t59 46t50 44.5t20.5 47q0 8 -2 22h92z" />
    <glyph glyph-name="Agrave" unicode="&#xc0;" horiz-adv-x="703" 
d="M447 757l-39 -48l-189 130l57 69zM576 -1l-72 168h-316l-71 -167h-99l285 658h97l284 -658zM224 252h244l-122 286z" />
    <glyph glyph-name="Aacute" unicode="&#xc1;" horiz-adv-x="703" 
d="M484 839l-189 -130l-39 48l171 151zM576 -1l-72 168h-316l-71 -167h-99l285 658h97l284 -658zM224 252h244l-122 286z" />
    <glyph glyph-name="Acircumflex" unicode="&#xc2;" horiz-adv-x="703" 
d="M351 802l-120 -93l-40 46l129 132h62l129 -131l-41 -47zM576 -1l-72 168h-316l-71 -167h-99l285 658h97l284 -658zM224 252h244l-122 286z" />
    <glyph glyph-name="Atilde" unicode="&#xc3;" horiz-adv-x="703" 
d="M289 797q-34 0 -46 -48l-54 21q7 40 28.5 68.5t61.5 28.5q29 0 73 -24.5t61 -24.5q32 0 44 48l54 -21q-17 -97 -88 -97q-30 0 -74 24.5t-60 24.5zM576 -1l-72 168h-316l-71 -167h-99l285 658h97l284 -658zM224 252h244l-122 286z" />
    <glyph glyph-name="Adieresis" unicode="&#xc4;" horiz-adv-x="703" 
d="M262 739q-23 0 -39 16.5t-16 39.5t16 39.5t39 16.5t40 -16.5t17 -39.5t-17 -39.5t-40 -16.5zM439 739q-23 0 -39.5 16.5t-16.5 39.5t16.5 39.5t39.5 16.5q24 0 40 -16.5t16 -39.5t-16 -39.5t-40 -16.5zM576 -1l-72 168h-316l-71 -167h-99l285 658h97l284 -658zM224 252
h244l-122 286z" />
    <glyph glyph-name="Aring" unicode="&#xc5;" horiz-adv-x="703" 
d="M351 712q-43 0 -73.5 28.5t-30.5 70.5t31 70.5t75 28.5q43 0 73 -28.5t30 -70.5t-30.5 -70.5t-74.5 -28.5zM352 862q-22 0 -35.5 -14.5t-13.5 -36.5t13.5 -36.5t35.5 -14.5t35 14t13 37q0 22 -13.5 36.5t-34.5 14.5zM576 -1l-72 168h-316l-71 -167h-99l285 658h97
l284 -658zM224 252h244l-122 286z" />
    <glyph glyph-name="AE" unicode="&#xc6;" horiz-adv-x="1051" 
d="M618 85h384v-85h-485v167h-277l-129 -167h-122l528 658h475v-85h-374v-199h302v-85h-302v-204zM308 254h209v271z" />
    <glyph glyph-name="Ccedilla" unicode="&#xc7;" horiz-adv-x="677" 
d="M375 -15h-16l-13 -31q10 2 32 2q38 0 61 -19t23 -52q0 -43 -34.5 -69t-91.5 -26q-59 0 -101 21l17 49q38 -17 83 -17q61 0 61 36q0 30 -48 30q-26 0 -43 -6l-25 23l24 66q-114 22 -181.5 110.5t-67.5 218.5q0 156 93 254t240 98q121 0 218 -63v-105q-90 78 -211 78
q-105 0 -168 -69.5t-63 -182.5t62 -182.5t164 -69.5q117 0 214 92l49 -65q-119 -121 -278 -121z" />
    <glyph glyph-name="Egrave" unicode="&#xc8;" horiz-adv-x="651" 
d="M394 709l-189 130l57 69l171 -151zM206 85h394v-85h-497v658h487v-85h-384v-199h331v-85h-331v-204z" />
    <glyph glyph-name="Eacute" unicode="&#xc9;" horiz-adv-x="651" 
d="M282 709l-39 48l171 151l57 -69zM206 85h394v-85h-497v658h487v-85h-384v-199h331v-85h-331v-204z" />
    <glyph glyph-name="Ecircumflex" unicode="&#xca;" horiz-adv-x="651" 
d="M338 802l-120 -93l-40 46l129 132h62l129 -131l-41 -47zM206 85h394v-85h-497v658h487v-85h-384v-199h331v-85h-331v-204z" />
    <glyph glyph-name="Edieresis" unicode="&#xcb;" horiz-adv-x="651" 
d="M249 739q-23 0 -39 16.5t-16 39.5t16 39.5t39 16.5t40 -16.5t17 -39.5t-17 -39.5t-40 -16.5zM426 739q-23 0 -39.5 16.5t-16.5 39.5t16.5 39.5t39.5 16.5q24 0 40 -16.5t16 -39.5t-16 -39.5t-40 -16.5zM206 85h394v-85h-497v658h487v-85h-384v-199h331v-85h-331v-204z
" />
    <glyph glyph-name="Igrave" unicode="&#xcc;" horiz-adv-x="308" 
d="M210 709l-189 130l57 69l171 -151zM103 0v658h103v-658h-103z" />
    <glyph glyph-name="Iacute" unicode="&#xcd;" horiz-adv-x="308" 
d="M98 709l-39 48l171 151l57 -69zM103 0v658h103v-658h-103z" />
    <glyph glyph-name="Icircumflex" unicode="&#xce;" horiz-adv-x="308" 
d="M185 887l129 -131l-41 -47l-119 93l-120 -93l-40 46l129 132h62zM103 0v658h103v-658h-103z" />
    <glyph glyph-name="Idieresis" unicode="&#xcf;" horiz-adv-x="308" 
d="M65 739q-23 0 -39 16.5t-16 39.5t16 39.5t39 16.5t40 -16.5t17 -39.5t-17 -39.5t-40 -16.5zM242 739q-23 0 -39.5 16.5t-16.5 39.5t16.5 39.5t39.5 16.5q24 0 40 -16.5t16 -39.5t-16 -39.5t-40 -16.5zM103 0v658h103v-658h-103z" />
    <glyph glyph-name="Eth" unicode="&#xd0;" horiz-adv-x="778" 
d="M384 658q149 0 244.5 -89t95.5 -232q0 -146 -97.5 -241.5t-245.5 -95.5h-245v294h-118v87h118v277h248zM386 87q101 0 165.5 66.5t64.5 172.5q0 109 -67 177t-172 68h-138v-190h135v-87h-135v-207h147z" />
    <glyph glyph-name="Ntilde" unicode="&#xd1;" horiz-adv-x="784" 
d="M335 797q-34 0 -46 -48l-54 21q7 40 28.5 68.5t61.5 28.5q29 0 73 -24.5t61 -24.5q32 0 44 48l54 -21q-17 -97 -88 -97q-30 0 -74 24.5t-60 24.5zM588 658h94v-658h-87l-398 498v-498h-94v658h93l392 -491v491z" />
    <glyph glyph-name="Ograve" unicode="&#xd2;" horiz-adv-x="784" 
d="M448 709l-189 130l57 69l171 -151zM387 -15q-146 0 -239 95t-93 242q0 153 96 252t246 99q147 0 239.5 -94.5t92.5 -241.5q0 -154 -95.5 -253t-246.5 -99zM396 72q99 0 162 71.5t63 182.5q0 114 -65 187t-167 73q-100 0 -163 -71.5t-63 -182.5q0 -114 65 -187t168 -73z
" />
    <glyph glyph-name="Oacute" unicode="&#xd3;" horiz-adv-x="784" 
d="M336 709l-39 48l171 151l57 -69zM387 -15q-146 0 -239 95t-93 242q0 153 96 252t246 99q147 0 239.5 -94.5t92.5 -241.5q0 -154 -95.5 -253t-246.5 -99zM396 72q99 0 162 71.5t63 182.5q0 114 -65 187t-167 73q-100 0 -163 -71.5t-63 -182.5q0 -114 65 -187t168 -73z" />
    <glyph glyph-name="Ocircumflex" unicode="&#xd4;" horiz-adv-x="784" 
d="M392 802l-120 -93l-40 46l129 132h62l129 -131l-41 -47zM397 673q147 0 239.5 -94.5t92.5 -241.5q0 -154 -95.5 -253t-246.5 -99q-146 0 -239 95t-93 242q0 153 96 252t246 99zM396 72q99 0 162 71.5t63 182.5q0 114 -65 187t-167 73q-100 0 -163 -71.5t-63 -182.5
q0 -114 65 -187t168 -73z" />
    <glyph glyph-name="Otilde" unicode="&#xd5;" horiz-adv-x="784" 
d="M284 749l-54 21q7 40 28.5 68.5t61.5 28.5q30 0 73 -24.5t61 -24.5q32 0 44 48l54 -21q-17 -97 -88 -97q-30 0 -74 24.5t-60 24.5q-34 0 -46 -48zM387 -15q-146 0 -239 95t-93 242q0 153 96 252t246 99q147 0 239.5 -94.5t92.5 -241.5q0 -154 -95.5 -253t-246.5 -99z
M396 72q99 0 162 71.5t63 182.5q0 114 -65 187t-167 73q-100 0 -163 -71.5t-63 -182.5q0 -114 65 -187t168 -73z" />
    <glyph glyph-name="Odieresis" unicode="&#xd6;" horiz-adv-x="784" 
d="M303 739q-23 0 -39 16.5t-16 39.5t16 39.5t39 16.5t40 -16.5t17 -39.5t-17 -39.5t-40 -16.5zM480 739q-23 0 -39.5 16.5t-16.5 39.5t16.5 39.5t39.5 16.5q24 0 40 -16.5t16 -39.5t-16 -39.5t-40 -16.5zM387 -15q-146 0 -239 95t-93 242q0 153 96 252t246 99
q147 0 239.5 -94.5t92.5 -241.5q0 -154 -95.5 -253t-246.5 -99zM396 72q99 0 162 71.5t63 182.5q0 114 -65 187t-167 73q-100 0 -163 -71.5t-63 -182.5q0 -114 65 -187t168 -73z" />
    <glyph glyph-name="multiply" unicode="&#xd7;" 
d="M525 459l-156 -156l156 -156l-64 -64l-156 156l-156 -156l-63 64l156 156l-156 156l63 63l156 -156l156 156z" />
    <glyph glyph-name="Oslash" unicode="&#xd8;" horiz-adv-x="794" 
d="M736 616l-67 -69q66 -88 66 -210q0 -154 -96 -253t-246 -99q-123 0 -211 69l-68 -70l-59 59l69 71q-64 87 -64 208q0 153 96 252t247 99q121 0 207 -66l67 68zM394 589q-100 0 -164.5 -72t-64.5 -185q0 -83 37 -148l343 350q-63 55 -151 55zM401 69q101 0 165 72t64 185
q0 84 -38 151l-345 -350q64 -58 154 -58z" />
    <glyph glyph-name="Ugrave" unicode="&#xd9;" horiz-adv-x="755" 
d="M438 709l-189 130l57 69l171 -151zM378 -14q-133 0 -209 75.5t-76 200.5v396h103v-398q0 -86 50 -134.5t135 -48.5q86 0 136 48.5t50 134.5v398h95v-396q0 -125 -76 -200.5t-208 -75.5z" />
    <glyph glyph-name="Uacute" unicode="&#xda;" horiz-adv-x="755" 
d="M325 709l-39 48l171 151l57 -69zM378 -14q-133 0 -209 75.5t-76 200.5v396h103v-398q0 -86 50 -134.5t135 -48.5q86 0 136 48.5t50 134.5v398h95v-396q0 -125 -76 -200.5t-208 -75.5z" />
    <glyph glyph-name="Ucircumflex" unicode="&#xdb;" horiz-adv-x="755" 
d="M381 802l-120 -93l-40 46l129 132h62l129 -131l-41 -47zM567 658h95v-396q0 -125 -76 -200.5t-208 -75.5q-133 0 -209 75.5t-76 200.5v396h103v-398q0 -86 50 -134.5t135 -48.5q86 0 136 48.5t50 134.5v398z" />
    <glyph glyph-name="Udieresis" unicode="&#xdc;" horiz-adv-x="755" 
d="M292 739q-23 0 -39 16.5t-16 39.5t16 39.5t39 16.5t40 -16.5t17 -39.5t-17 -39.5t-40 -16.5zM469 739q-23 0 -39.5 16.5t-16.5 39.5t16.5 39.5t39.5 16.5q24 0 40 -16.5t16 -39.5t-16 -39.5t-40 -16.5zM378 -14q-133 0 -209 75.5t-76 200.5v396h103v-398q0 -86 50 -134.5
t135 -48.5q86 0 136 48.5t50 134.5v398h95v-396q0 -125 -76 -200.5t-208 -75.5z" />
    <glyph glyph-name="Yacute" unicode="&#xdd;" horiz-adv-x="672" 
d="M473 839l-189 -130l-39 48l171 151zM545 658h109l-267 -386v-272h-102v272l-266 386h118l203 -306z" />
    <glyph glyph-name="Thorn" unicode="&#xde;" horiz-adv-x="669" 
d="M353 553q123 0 195 -58t72 -156t-72 -155t-198 -57h-144v-127h-103v658h103v-105h147zM343 214q84 0 126.5 33t42.5 94q0 59 -42.5 92t-124.5 33h-139v-252h137z" />
    <glyph glyph-name="germandbls" unicode="&#xdf;" horiz-adv-x="611" 
d="M414 -15q-53 0 -106 19t-88 46l28 68q33 -25 79.5 -41t86.5 -16q33 0 55 15t22 44q0 25 -23 39.5t-81 36.5q-7 3 -11 4q-66 25 -96 49t-30 62q0 33 23 62t50 48t50 49.5t23 65.5q0 40 -28 63t-71 23q-52 0 -83 -37.5t-31 -104.5v-480h-99v462q0 109 60 173.5t158 64.5
q80 0 135 -42t55 -108q0 -34 -15 -63t-37 -48t-43.5 -35t-36.5 -32.5t-15 -33.5q0 -20 18.5 -32t58.5 -27l6 -1.5t5 -2t6 -2.5q72 -28 108 -60t36 -83q0 -67 -48.5 -106t-120.5 -39z" />
    <glyph glyph-name="agrave" unicode="&#xe0;" horiz-adv-x="616" 
d="M403 574l-39 -48l-189 130l57 69zM433 464l99 24v-488h-96v66q-69 -78 -173 -78q-92 0 -155.5 64.5t-63.5 169.5q0 115 77 190.5t188 75.5q60 0 124 -25v1zM293 71q87 0 140 68v230q-60 40 -123 40q-71 0 -117 -47.5t-46 -127.5q0 -74 40 -118.5t106 -44.5z" />
    <glyph glyph-name="aacute" unicode="&#xe1;" horiz-adv-x="616" 
d="M441 656l-189 -130l-39 48l171 151zM433 464l99 24v-488h-96v66q-69 -78 -173 -78q-92 0 -155.5 64.5t-63.5 169.5q0 115 77 190.5t188 75.5q60 0 124 -25v1zM293 71q87 0 140 68v230q-60 40 -123 40q-71 0 -117 -47.5t-46 -127.5q0 -74 40 -118.5t106 -44.5z" />
    <glyph glyph-name="acircumflex" unicode="&#xe2;" horiz-adv-x="616" 
d="M308 619l-120 -93l-40 46l129 132h62l129 -131l-41 -47zM433 464l99 24v-488h-96v66q-69 -78 -173 -78q-92 0 -155.5 64.5t-63.5 169.5q0 115 77 190.5t188 75.5q60 0 124 -25v1zM293 71q87 0 140 68v230q-60 40 -123 40q-71 0 -117 -47.5t-46 -127.5q0 -74 40 -118.5
t106 -44.5z" />
    <glyph glyph-name="atilde" unicode="&#xe3;" horiz-adv-x="616" 
d="M246 614q-34 0 -46 -48l-54 21q7 40 28.5 68.5t61.5 28.5q30 0 73 -24.5t61 -24.5q32 0 44 48l54 -21q-17 -97 -88 -97q-30 0 -74 24.5t-60 24.5zM433 464l99 24v-488h-96v66q-69 -78 -173 -78q-92 0 -155.5 64.5t-63.5 169.5q0 115 77 190.5t188 75.5q60 0 124 -25v1z
M293 71q87 0 140 68v230q-60 40 -123 40q-71 0 -117 -47.5t-46 -127.5q0 -74 40 -118.5t106 -44.5z" />
    <glyph glyph-name="adieresis" unicode="&#xe4;" horiz-adv-x="616" 
d="M219 556q-23 0 -39 16.5t-16 39.5t16 39.5t39 16.5t40 -16.5t17 -39.5t-17 -39.5t-40 -16.5zM396 556q-23 0 -39.5 16.5t-16.5 39.5t16.5 39.5t39.5 16.5q24 0 40 -16.5t16 -39.5t-16 -39.5t-40 -16.5zM433 464l99 24v-488h-96v66q-69 -78 -173 -78q-92 0 -155.5 64.5
t-63.5 169.5q0 115 77 190.5t188 75.5q60 0 124 -25v1zM293 71q87 0 140 68v230q-60 40 -123 40q-71 0 -117 -47.5t-46 -127.5q0 -74 40 -118.5t106 -44.5z" />
    <glyph glyph-name="aring" unicode="&#xe5;" horiz-adv-x="616" 
d="M308 529q-43 0 -73.5 28.5t-30.5 70.5t31 70.5t75 28.5q43 0 73 -28.5t30 -70.5t-30.5 -70.5t-74.5 -28.5zM309 679q-22 0 -35.5 -14.5t-13.5 -36.5t13.5 -36.5t35.5 -14.5t35 14t13 37q0 22 -13.5 36.5t-34.5 14.5zM433 464l99 24v-488h-96v66q-69 -78 -173 -78
q-92 0 -155.5 64.5t-63.5 169.5q0 115 77 190.5t188 75.5q60 0 124 -25v1zM293 71q87 0 140 68v230q-60 40 -123 40q-71 0 -117 -47.5t-46 -127.5q0 -74 40 -118.5t106 -44.5z" />
    <glyph glyph-name="ae" unicode="&#xe6;" horiz-adv-x="939" 
d="M681 66q91 0 170 65l40 -54q-96 -91 -227 -91q-69 0 -124.5 27.5t-87.5 78.5q-96 -106 -228 -106q-83 0 -134.5 43.5t-51.5 111.5q0 69 51 115t132 46q97 0 195 -63v75q0 50 -27.5 73t-88.5 23q-86 0 -195 -37l-16 74q112 44 217 44q137 0 177 -85q70 84 190 84
q95 0 156.5 -59t61.5 -153q0 -35 -10 -62h-379q7 -70 54.5 -110t124.5 -40zM668 417q-58 0 -103 -35t-59 -95h296q-3 60 -39 95t-95 35zM241 61q49 0 97 27.5t85 74.5q-89 72 -181 72q-50 0 -78 -24.5t-28 -63.5t28.5 -62.5t76.5 -23.5z" />
    <glyph glyph-name="ccedilla" unicode="&#xe7;" horiz-adv-x="535" 
d="M341 -44q38 0 61 -19t23 -52q0 -43 -34.5 -69t-91.5 -26q-59 0 -101 21l17 49q38 -17 83 -17q61 0 61 36q0 30 -48 30q-27 0 -43 -6l-25 23l23 60q-98 9 -160 74.5t-62 167.5q0 114 76 188t187 74q95 0 172 -49v-92q-67 59 -162 59q-75 0 -123 -48t-48 -124
q0 -75 45 -120t119 -45q84 0 159 64l42 -57q-80 -80 -188 -92l-14 -32q10 2 32 2z" />
    <glyph glyph-name="egrave" unicode="&#xe8;" horiz-adv-x="579" 
d="M402 574l-39 -48l-189 130l57 69zM321 66q92 0 171 65l39 -54q-96 -91 -226 -91q-114 0 -187 65.5t-73 175.5q0 113 75.5 188t188.5 75q99 0 161 -58.5t62 -152.5q0 -34 -11 -63h-378q7 -70 54 -110t124 -40zM309 417q-59 0 -103.5 -35t-58.5 -95h295q-3 59 -39 94.5
t-94 35.5z" />
    <glyph glyph-name="eacute" unicode="&#xe9;" horiz-adv-x="579" 
d="M440 656l-189 -130l-39 48l171 151zM321 66q92 0 171 65l39 -54q-96 -91 -226 -91q-114 0 -187 65.5t-73 175.5q0 113 75.5 188t188.5 75q99 0 161 -58.5t62 -152.5q0 -34 -11 -63h-378q7 -70 54 -110t124 -40zM309 417q-59 0 -103.5 -35t-58.5 -95h295q-3 59 -39 94.5
t-94 35.5z" />
    <glyph glyph-name="ecircumflex" unicode="&#xea;" horiz-adv-x="579" 
d="M307 619l-120 -93l-40 46l129 132h62l129 -131l-41 -47zM321 66q92 0 171 65l39 -54q-96 -91 -226 -91q-114 0 -187 65.5t-73 175.5q0 113 75.5 188t188.5 75q99 0 161 -58.5t62 -152.5q0 -34 -11 -63h-378q7 -70 54 -110t124 -40zM309 417q-59 0 -103.5 -35t-58.5 -95
h295q-3 59 -39 94.5t-94 35.5z" />
    <glyph glyph-name="edieresis" unicode="&#xeb;" horiz-adv-x="579" 
d="M218 556q-23 0 -39 16.5t-16 39.5t16 39.5t39 16.5t40 -16.5t17 -39.5t-17 -39.5t-40 -16.5zM395 556q-23 0 -39.5 16.5t-16.5 39.5t16.5 39.5t39.5 16.5q24 0 40 -16.5t16 -39.5t-16 -39.5t-40 -16.5zM321 66q92 0 171 65l39 -54q-96 -91 -226 -91q-114 0 -187 65.5
t-73 175.5q0 113 75.5 188t188.5 75q99 0 161 -58.5t62 -152.5q0 -34 -11 -63h-378q7 -70 54 -110t124 -40zM309 417q-59 0 -103.5 -35t-58.5 -95h295q-3 59 -39 94.5t-94 35.5z" />
    <glyph glyph-name="igrave" unicode="&#xec;" horiz-adv-x="265" 
d="M188 526l-189 130l57 69l171 -151zM83 0v466l98 21v-487h-98z" />
    <glyph glyph-name="iacute" unicode="&#xed;" horiz-adv-x="265" 
d="M76 526l-39 48l171 151l57 -69zM83 0v466l98 21v-487h-98z" />
    <glyph glyph-name="icircumflex" unicode="&#xee;" horiz-adv-x="265" 
d="M163 704l129 -131l-41 -47l-119 93l-120 -93l-40 46l129 132h62zM83 0v466l98 21v-487h-98z" />
    <glyph glyph-name="idieresis" unicode="&#xef;" horiz-adv-x="265" 
d="M43 556q-23 0 -39 16.5t-16 39.5t16 39.5t39 16.5t40 -16.5t17 -39.5t-17 -39.5t-40 -16.5zM220 556q-23 0 -39.5 16.5t-16.5 39.5t16.5 39.5t39.5 16.5q24 0 40 -16.5t16 -39.5t-16 -39.5t-40 -16.5zM83 0v466l98 21v-487h-98z" />
    <glyph glyph-name="eth" unicode="&#xf0;" horiz-adv-x="619" 
d="M437 603q128 -109 128 -296q0 -144 -74.5 -232.5t-198.5 -88.5q-108 0 -178 66t-70 172q0 104 67 168t166 64q47 0 97 -18t85 -51q-21 114 -100 174l-123 -69l-35 60l85 48q-60 22 -142 25v76q127 1 228 -53l108 60l37 -60zM302 74q74 0 118 57.5t46 157.5
q-34 45 -80.5 67t-91.5 22q-64 0 -106 -40.5t-42 -108.5q0 -72 45 -113.5t111 -41.5z" />
    <glyph glyph-name="ntilde" unicode="&#xf1;" horiz-adv-x="630" 
d="M273 614q-34 0 -46 -48l-54 21q7 40 28.5 68.5t61.5 28.5q29 0 73 -24.5t61 -24.5q32 0 44 48l54 -21q-17 -97 -88 -97q-30 0 -74 24.5t-60 24.5zM375 486q80 0 130 -51t50 -152v-283h-99v257q0 144 -115 144q-89 0 -159 -94v-307h-99v467l96 21v-98q37 46 89 71t107 25z
" />
    <glyph glyph-name="ograve" unicode="&#xf2;" horiz-adv-x="616" 
d="M366 526l-189 130l57 69l171 -151zM306 -15q-112 0 -187 69t-75 178q0 110 77 184t189 74q111 0 186.5 -69t75.5 -178q0 -110 -77 -184t-189 -74zM312 63q69 0 113.5 48.5t44.5 124.5q0 79 -46 127.5t-120 48.5q-70 0 -114 -48.5t-44 -124.5q0 -79 46 -127.5t120 -48.5z
" />
    <glyph glyph-name="oacute" unicode="&#xf3;" horiz-adv-x="616" 
d="M254 526l-39 48l171 151l57 -69zM306 -15q-112 0 -187 69t-75 178q0 110 77 184t189 74q111 0 186.5 -69t75.5 -178q0 -110 -77 -184t-189 -74zM312 63q69 0 113.5 48.5t44.5 124.5q0 79 -46 127.5t-120 48.5q-70 0 -114 -48.5t-44 -124.5q0 -79 46 -127.5t120 -48.5z
" />
    <glyph glyph-name="ocircumflex" unicode="&#xf4;" horiz-adv-x="616" 
d="M310 619l-120 -93l-40 46l129 132h62l129 -131l-41 -47zM310 490q111 0 186.5 -69t75.5 -178q0 -110 -77 -184t-189 -74t-187 69t-75 178q0 110 77 184t189 74zM312 63q69 0 113.5 48.5t44.5 124.5q0 79 -46 127.5t-120 48.5q-70 0 -114 -48.5t-44 -124.5
q0 -79 46 -127.5t120 -48.5z" />
    <glyph glyph-name="otilde" unicode="&#xf5;" horiz-adv-x="616" 
d="M202 566l-54 21q7 40 28.5 68.5t61.5 28.5q30 0 73 -24.5t61 -24.5q32 0 44 48l54 -21q-17 -97 -88 -97q-30 0 -74 24.5t-60 24.5q-34 0 -46 -48zM306 -15q-112 0 -187 69t-75 178q0 110 77 184t189 74q111 0 186.5 -69t75.5 -178q0 -110 -77 -184t-189 -74zM312 63
q69 0 113.5 48.5t44.5 124.5q0 79 -46 127.5t-120 48.5q-70 0 -114 -48.5t-44 -124.5q0 -79 46 -127.5t120 -48.5z" />
    <glyph glyph-name="odieresis" unicode="&#xf6;" horiz-adv-x="616" 
d="M221 556q-23 0 -39 16.5t-16 39.5t16 39.5t39 16.5t40 -16.5t17 -39.5t-17 -39.5t-40 -16.5zM398 556q-23 0 -39.5 16.5t-16.5 39.5t16.5 39.5t39.5 16.5q24 0 40 -16.5t16 -39.5t-16 -39.5t-40 -16.5zM306 -15q-112 0 -187 69t-75 178q0 110 77 184t189 74
q111 0 186.5 -69t75.5 -178q0 -110 -77 -184t-189 -74zM312 63q69 0 113.5 48.5t44.5 124.5q0 79 -46 127.5t-120 48.5q-70 0 -114 -48.5t-44 -124.5q0 -79 46 -127.5t120 -48.5z" />
    <glyph glyph-name="divide" unicode="&#xf7;" 
d="M305 428q-26 0 -43.5 17t-17.5 42t17.5 41.5t43.5 16.5t43.5 -16.5t17.5 -41.5t-17.5 -42t-43.5 -17zM61 256v93h488v-93h-488zM305 55q-26 0 -43.5 17t-17.5 42t17.5 41.5t43.5 16.5t43.5 -16.5t17.5 -41.5t-17.5 -42t-43.5 -17z" />
    <glyph glyph-name="oslash" unicode="&#xf8;" horiz-adv-x="624" 
d="M525 394q51 -64 51 -151q0 -110 -77 -184t-189 -74q-88 0 -156 45l-50 -52l-58 55l51 50q-49 63 -49 149q0 110 77 184t189 74q85 0 153 -43l50 50l58 -54zM308 415q-71 0 -117 -49t-46 -127q0 -53 22 -94l243 239q-43 31 -102 31zM316 60q71 0 117 49.5t46 126.5
q0 55 -23 96l-244 -240q45 -32 104 -32z" />
    <glyph glyph-name="ugrave" unicode="&#xf9;" horiz-adv-x="623" 
d="M393 574l-39 -48l-189 130l57 69zM440 466l99 21v-487h-96v84q-76 -94 -191 -94q-80 0 -129.5 51t-49.5 153v272l99 21v-267q0 -144 112 -144q91 0 156 91v299z" />
    <glyph glyph-name="uacute" unicode="&#xfa;" horiz-adv-x="623" 
d="M430 656l-189 -130l-39 48l171 151zM440 466l99 21v-487h-96v84q-76 -94 -191 -94q-80 0 -129.5 51t-49.5 153v272l99 21v-267q0 -144 112 -144q91 0 156 91v299z" />
    <glyph glyph-name="ucircumflex" unicode="&#xfb;" horiz-adv-x="623" 
d="M297 619l-120 -93l-40 46l129 132h62l129 -131l-41 -47zM440 466l99 21v-487h-96v84q-76 -94 -191 -94q-80 0 -129.5 51t-49.5 153v272l99 21v-267q0 -144 112 -144q91 0 156 91v299z" />
    <glyph glyph-name="udieresis" unicode="&#xfc;" horiz-adv-x="623" 
d="M208 556q-23 0 -39 16.5t-16 39.5t16 39.5t39 16.5t40 -16.5t17 -39.5t-17 -39.5t-40 -16.5zM385 556q-23 0 -39.5 16.5t-16.5 39.5t16.5 39.5t39.5 16.5q24 0 40 -16.5t16 -39.5t-16 -39.5t-40 -16.5zM440 466l99 21v-487h-96v84q-76 -94 -191 -94q-80 0 -129.5 51
t-49.5 153v272l99 21v-267q0 -144 112 -144q91 0 156 91v299z" />
    <glyph glyph-name="yacute" unicode="&#xfd;" horiz-adv-x="543" 
d="M412 656l-189 -130l-39 48l171 151zM431 475h98l-301 -675h-98l97 207l-212 468h106l155 -359z" />
    <glyph glyph-name="thorn" unicode="&#xfe;" horiz-adv-x="622" 
d="M350 489q96 0 162 -66.5t66 -177.5q0 -115 -76 -187t-195 -72q-59 0 -124 22v-208h-99v873l99 20v-271q74 67 167 67zM313 65q73 0 117.5 45.5t44.5 120.5q0 82 -44.5 129.5t-116.5 47.5q-76 0 -131 -60v-242q60 -41 130 -41z" />
    <glyph glyph-name="ydieresis" unicode="&#xff;" horiz-adv-x="543" 
d="M190 556q-23 0 -39 16.5t-16 39.5t16 39.5t39 16.5t40 -16.5t17 -39.5t-17 -39.5t-40 -16.5zM367 556q-23 0 -39.5 16.5t-16.5 39.5t16.5 39.5t39.5 16.5q24 0 40 -16.5t16 -39.5t-16 -39.5t-40 -16.5zM431 475h98l-301 -675h-98l97 207l-212 468h106l155 -359z" />
    <glyph glyph-name="dotlessi" unicode="&#x131;" horiz-adv-x="265" 
d="M83 0v466l98 21v-487h-98z" />
    <glyph glyph-name="Lslash" unicode="&#x141;" horiz-adv-x="616" 
d="M237 87h362v-87h-465v251l-87 -38l-34 80l121 53v312h103v-267l127 55l35 -80l-162 -70v-209z" />
    <glyph glyph-name="lslash" unicode="&#x142;" horiz-adv-x="388" 
d="M374 344l-125 -56v-288h-99v244l-91 -40l-33 82l124 55v332l99 20v-308l89 39z" />
    <glyph glyph-name="OE" unicode="&#x152;" horiz-adv-x="1062" 
d="M1011 85v-86l-497 1q-52 -15 -113 -15q-145 0 -246 94t-101 243q0 151 103 251t254 100q61 0 115 -15h475v-85h-365v-199h311v-85h-311v-204h375zM162 332q0 -110 70.5 -185t176.5 -75q68 0 124 27v458q-60 29 -131 29q-104 0 -172 -72.5t-68 -181.5z" />
    <glyph glyph-name="oe" unicode="&#x153;" horiz-adv-x="982" 
d="M897 131l40 -54q-93 -91 -221 -91q-141 0 -205 106q-34 -51 -89 -80t-122 -29q-109 0 -182.5 67.5t-73.5 181.5q0 112 75.5 186t187.5 74q66 0 121.5 -30.5t86.5 -84.5q71 113 203 113q95 0 155.5 -59t60.5 -153q0 -35 -10 -62h-363q7 -69 53.5 -109t119.5 -40
q90 0 163 64zM719 416q-55 0 -97.5 -34t-56.5 -94h280q-3 59 -37 93.5t-89 34.5zM308 62q65 0 110 48.5t45 125.5q0 78 -46 128t-116 50q-65 0 -110 -48.5t-45 -126.5t46.5 -127.5t115.5 -49.5z" />
    <glyph glyph-name="Scaron" unicode="&#x160;" horiz-adv-x="651" 
d="M358 735h-62l-129 131l41 47l119 -93l120 93l40 -46zM365 375q121 -28 178 -68t57 -122q0 -90 -72 -145t-190 -55q-172 0 -296 101l38 73q122 -87 259 -87q73 0 115.5 26.5t42.5 72.5q0 44 -36 64.5t-139 42.5q-137 30 -195.5 72.5t-58.5 117.5q0 91 75.5 148t192.5 57
q136 0 236 -62v-101q-103 76 -231 76q-75 0 -122 -28t-47 -75q0 -41 39.5 -61t153.5 -47z" />
    <glyph glyph-name="scaron" unicode="&#x161;" horiz-adv-x="532" 
d="M300 542h-62l-129 131l41 47l119 -93l120 93l40 -46zM281 283q106 -17 157 -47.5t51 -99.5t-56 -110t-151 -41q-70 0 -136 19.5t-109 48.5l31 64q91 -57 212 -57q53 0 84.5 18t31.5 50q0 28 -28 41t-105 26q-111 18 -160.5 48.5t-49.5 94.5q0 68 58.5 110t155.5 42
q112 0 197 -45v-82q-76 54 -196 54q-55 0 -88.5 -18.5t-33.5 -49.5q0 -27 28.5 -40.5t106.5 -25.5z" />
    <glyph glyph-name="Ydieresis" unicode="&#x178;" horiz-adv-x="672" 
d="M251 739q-23 0 -39 16.5t-16 39.5t16 39.5t39 16.5t40 -16.5t17 -39.5t-17 -39.5t-40 -16.5zM428 739q-23 0 -39.5 16.5t-16.5 39.5t16.5 39.5t39.5 16.5q24 0 40 -16.5t16 -39.5t-16 -39.5t-40 -16.5zM545 658h109l-267 -386v-272h-102v272l-266 386h118l203 -306z" />
    <glyph glyph-name="Zcaron" unicode="&#x17d;" horiz-adv-x="630" 
d="M344 726h-62l-129 131l41 47l119 -93l120 93l40 -46zM176 85h409v-85h-539v81l399 492h-389v85h519v-78z" />
    <glyph glyph-name="zcaron" unicode="&#x17e;" horiz-adv-x="519" 
d="M291 543h-62l-129 131l41 47l119 -93l120 93l40 -46zM175 80h303v-80h-437v76l294 319h-286v80h421v-75z" />
    <glyph glyph-name="florin" unicode="&#x192;" 
d="M457 609q-56 0 -85.5 -27.5t-40.5 -88.5l-3 -17h190v-87h-203l-71 -419q-18 -103 -70 -151t-151 -48q-87 0 -144 30l24 80q59 -24 114 -24q57 0 86 27.5t40 88.5l71 416h-97v87h111l3 20q17 102 69 150.5t151 48.5q87 0 144 -30l-24 -80q-59 24 -114 24z" />
    <glyph glyph-name="circumflex" unicode="&#x2c6;" horiz-adv-x="452" 
d="M386 573l-41 -47l-119 93l-120 -93l-40 46l129 132h62z" />
    <glyph glyph-name="caron" unicode="&#x2c7;" horiz-adv-x="452" 
d="M346 721l40 -46l-129 -132h-62l-129 131l41 47l119 -93z" />
    <glyph glyph-name="breve" unicode="&#x2d8;" horiz-adv-x="399" 
d="M199 540q-69 0 -109.5 43.5t-44.5 115.5h79q13 -89 79 -89q68 0 81 89h69q-4 -71 -45.5 -115t-108.5 -44z" />
    <glyph glyph-name="dotaccent" unicode="&#x2d9;" horiz-adv-x="397" 
d="M198 554q-27 0 -46 19.5t-19 46.5t19 46.5t46 19.5q28 0 47 -19.5t19 -46.5t-19 -46.5t-47 -19.5z" />
    <glyph glyph-name="ring" unicode="&#x2da;" horiz-adv-x="261" 
d="M235 628q0 -42 -30.5 -70.5t-74.5 -28.5q-43 0 -73.5 28.5t-30.5 70.5t31 70.5t75 28.5q43 0 73 -28.5t30 -70.5zM131 577q22 0 35 14t13 37q0 22 -13.5 36.5t-34.5 14.5q-22 0 -35.5 -14.5t-13.5 -36.5t13.5 -36.5t35.5 -14.5z" />
    <glyph glyph-name="ogonek" unicode="&#x2db;" horiz-adv-x="348" 
d="M178 -201q-54 0 -84 24.5t-30 62.5q0 96 195 147l22 -42q-136 -38 -136 -91q0 -17 13.5 -28t36.5 -11q43 0 82 27l24 -49q-53 -40 -123 -40z" />
    <glyph glyph-name="tilde" unicode="&#x2dc;" horiz-adv-x="418" 
d="M103 566l-54 21q7 40 28.5 68.5t61.5 28.5q29 0 73 -24.5t61 -24.5q32 0 44 48l54 -21q-17 -97 -88 -97q-30 0 -74 24.5t-60 24.5q-34 0 -46 -48z" />
    <glyph glyph-name="hungarumlaut" unicode="&#x2dd;" horiz-adv-x="432" 
d="M79 520l-45 43l133 165l65 -60zM257 520l-45 43l132 165l65 -59z" />
    <glyph glyph-name="uni0394" unicode="&#x394;" horiz-adv-x="617" 
d="M358 658l234 -658h-566l234 658h98zM152 87h306l-153 436z" />
    <glyph glyph-name="uni03A9" unicode="&#x3a9;" horiz-adv-x="698" 
d="M509 89h125v-89h-242v72q117 106 117 285q0 102 -45.5 165.5t-117.5 63.5t-114.5 -61t-42.5 -166q0 -184 117 -287v-72h-242v89h125q-108 97 -108 272q0 133 72 222.5t198 89.5q125 0 195.5 -87t70.5 -218q0 -181 -108 -279z" />
    <glyph glyph-name="pi" unicode="&#x3c0;" horiz-adv-x="601" 
d="M567 386h-86v-39q0 -218 37 -347h-104q-31 126 -31 349v37l-170 -1v-385h-99v385h-78v91l531 -1v-89z" />
    <glyph glyph-name="endash" unicode="&#x2013;" horiz-adv-x="681" 
d="M70 211v87h541v-87h-541z" />
    <glyph glyph-name="emdash" unicode="&#x2014;" horiz-adv-x="943" 
d="M70 211v87h803v-87h-803z" />
    <glyph glyph-name="quoteleft" unicode="&#x2018;" horiz-adv-x="256" 
d="M151 669l63 -40q-50 -68 -50 -188v-51h-100v53q0 131 87 226z" />
    <glyph glyph-name="quoteright" unicode="&#x2019;" horiz-adv-x="246" 
d="M109 392l-63 40q50 68 50 188v51h100v-53q0 -131 -87 -226z" />
    <glyph glyph-name="quotesinglbase" unicode="&#x201a;" horiz-adv-x="250" 
d="M89 -150l-63 40q50 68 50 188v51h100v-53q0 -131 -87 -226z" />
    <glyph glyph-name="quotedblleft" unicode="&#x201c;" horiz-adv-x="444" 
d="M151 669l63 -40q-50 -68 -50 -188v-51h-100v53q0 131 87 226zM339 669l63 -40q-50 -68 -50 -188v-51h-100v53q0 131 87 226z" />
    <glyph glyph-name="quotedblright" unicode="&#x201d;" horiz-adv-x="434" 
d="M109 392l-63 40q50 68 50 188v51h100v-53q0 -131 -87 -226zM297 392l-63 40q50 68 50 188v51h100v-53q0 -131 -87 -226z" />
    <glyph glyph-name="quotedblbase" unicode="&#x201e;" horiz-adv-x="445" 
d="M89 -150l-63 40q50 68 50 188v51h100v-53q0 -131 -87 -226zM284 -150l-63 40q50 68 50 188v51h100v-53q0 -131 -87 -226z" />
    <glyph glyph-name="dagger" unicode="&#x2020;" 
d="M347 681v-211h184v-77h-184v-512h-83v512h-185v77h185v211h83z" />
    <glyph glyph-name="daggerdbl" unicode="&#x2021;" 
d="M531 393h-184v-216h184v-77h-184v-219h-83v219h-185v77h185v216h-185v77h185v211h83v-211h184v-77z" />
    <glyph glyph-name="bullet" unicode="&#x2022;" horiz-adv-x="425" 
d="M213 129q-52 0 -89.5 37.5t-37.5 89.5t37 89t90 37q52 0 89 -37t37 -89t-37 -89.5t-89 -37.5z" />
    <glyph glyph-name="ellipsis" unicode="&#x2026;" horiz-adv-x="839" 
d="M130 -7q-29 0 -50 20.5t-21 49.5q0 30 21 51t50 21q30 0 50.5 -21t20.5 -51q0 -29 -20.5 -49.5t-50.5 -20.5zM419 -7q-29 0 -50 20.5t-21 49.5q0 30 21 51t50 21q30 0 50.5 -21t20.5 -51q0 -29 -20.5 -49.5t-50.5 -20.5zM708 -7q-29 0 -50 20.5t-21 49.5q0 30 21 51
t50 21q30 0 51 -21t21 -51q0 -29 -21 -49.5t-51 -20.5z" />
    <glyph glyph-name="perthousand" unicode="&#x2030;" horiz-adv-x="1159" 
d="M195 301q-66 0 -109 48.5t-43 134.5q0 88 45 138.5t111 50.5t108.5 -48.5t42.5 -134.5q0 -88 -44.5 -138.5t-110.5 -50.5zM105 0l506 658h90l-507 -658h-89zM197 365q35 0 55.5 32t20.5 87q0 58 -20.5 91.5t-55.5 33.5t-55.5 -32.5t-20.5 -87.5q0 -57 20.5 -90.5
t55.5 -33.5zM610 -15q-66 0 -108.5 49t-42.5 134q0 88 44.5 139t110.5 51q67 0 109.5 -49t42.5 -135q0 -87 -44.5 -138t-111.5 -51zM966 -15q-66 0 -109 49t-43 134q0 88 45 139t111 51t108.5 -49t42.5 -135q0 -87 -44.5 -138t-110.5 -51zM612 50q35 0 55.5 32t20.5 87
q0 57 -20.5 90.5t-55.5 33.5q-34 0 -55 -32.5t-21 -86.5q0 -57 20.5 -90.5t55.5 -33.5zM968 50q35 0 55.5 32t20.5 87q0 57 -20.5 90.5t-55.5 33.5t-55.5 -32t-20.5 -87q0 -57 20.5 -90.5t55.5 -33.5z" />
    <glyph glyph-name="guilsinglleft" unicode="&#x2039;" horiz-adv-x="377" 
d="M329 395l-197 -157l197 -158l-47 -55l-240 192v41l240 192z" />
    <glyph glyph-name="guilsinglright" unicode="&#x203a;" horiz-adv-x="377" 
d="M95 450l240 -192v-41l-240 -192l-47 55l197 158l-197 157z" />
    <glyph glyph-name="fraction" unicode="&#x2044;" horiz-adv-x="567" 
d="M-14 0l506 658h90l-506 -658h-90z" />
    <glyph glyph-name="uni2074" unicode="&#x2074;" horiz-adv-x="462" 
d="M416 382v-68h-77v-84h-82v84h-217v65l224 282h75v-279h77zM258 382l4 178l-141 -178h137z" />
    <glyph glyph-name="Euro" unicode="&#x20ac;" 
d="M556 167l47 -61q-102 -121 -247 -121q-105 0 -177.5 62.5t-95.5 171.5h-67v66h58q-1 10 -1 31q0 28 3 54h-60v66h72q29 108 104 172t177 64q107 0 189 -66v-101q-79 79 -181 79q-66 0 -113 -38.5t-67 -109.5h287v-66h-299q-2 -28 -2 -45q0 -14 2 -40h267v-66h-256
q19 -68 64 -105t111 -37q106 0 185 90z" />
    <glyph glyph-name="trademark" unicode="&#x2122;" horiz-adv-x="774" 
d="M39 603v55h287v-55h-110v-248h-67v248h-110zM630 658h60v-303h-66v199l-71 -98h-37l-76 98v-199h-62v303h62l98 -126z" />
    <glyph glyph-name="partialdiff" unicode="&#x2202;" 
d="M294 670q118 0 190 -87t72 -233q0 -178 -81.5 -270t-208.5 -92q-99 0 -158 59.5t-59 152.5q0 106 69 171t170 65q104 0 163 -73q-4 105 -49.5 164t-127.5 59q-57 0 -126 -26l-19 74q81 36 165 36zM273 75q69 0 115.5 49t58.5 153q-51 78 -143 78q-66 0 -109 -44.5
t-43 -111.5q0 -54 32.5 -89t88.5 -35z" />
    <glyph glyph-name="product" unicode="&#x220f;" 
d="M573 658v-95h-73v-651h-100v651h-189v-651h-100v651h-73v95h535z" />
    <glyph glyph-name="summation" unicode="&#x2211;" 
d="M178 6h376v-91h-490v80l191 289l-180 295v79h468v-85h-349l175 -282z" />
    <glyph glyph-name="minus" unicode="&#x2212;" 
d="M61 256v93h488v-93h-488z" />
    <glyph glyph-name="radical" unicode="&#x221a;" 
d="M492 658h92l-232 -658h-114l-106 336l-27 -86l-66 17l42 141h129l93 -305z" />
    <glyph glyph-name="infinity" unicode="&#x221e;" 
d="M443 518q63 0 100 -52.5t37 -139.5q0 -83 -41 -137.5t-107 -54.5q-90 0 -135 107q-18 -51 -51.5 -79t-77.5 -28q-63 0 -100.5 52.5t-37.5 138.5q0 84 41 138.5t107 54.5q90 0 136 -107q38 107 129 107zM186 216q56 0 87 91q-31 129 -90 129q-29 0 -47.5 -31t-18.5 -77
q0 -47 19 -79.5t50 -32.5zM428 216q29 0 47.5 31t18.5 77q0 48 -19 80t-51 32q-53 0 -87 -89q32 -131 91 -131z" />
    <glyph glyph-name="integral" unicode="&#x222b;" 
d="M443 700q71 0 131 -30l-20 -78q-61 24 -106 24q-103 0 -99 -121l14 -500q4 -107 -49 -155.5t-147 -48.5q-73 0 -131 29l20 78q58 -23 106 -23q103 0 99 120l-14 500q-4 107 49.5 156t146.5 49z" />
    <glyph glyph-name="approxequal" unicode="&#x2248;" 
d="M419 270q-45 0 -119 44t-102 44q-60 0 -78 -79l-63 27q8 52 41.5 92t92.5 40q45 0 119 -44t103 -44q59 0 77 79l63 -27q-7 -52 -40.5 -92t-93.5 -40zM419 69q-45 0 -119 44t-102 44q-60 0 -78 -79l-63 27q8 52 41.5 92t92.5 40q45 0 119 -44t103 -44q59 0 77 79l63 -27
q-7 -52 -40.5 -92t-93.5 -40z" />
    <glyph glyph-name="notequal" unicode="&#x2260;" 
d="M540 366h-162l-58 -127h220v-90h-262l-57 -123h-93l57 123h-115v90h157l58 127h-215v90h257l59 127h93l-59 -127h120v-90z" />
    <glyph glyph-name="lessequal" unicode="&#x2264;" 
d="M506 235v-91l-413 167v73l413 168v-92l-315 -112zM78 106h438v-83h-438v83z" />
    <glyph glyph-name="greaterequal" unicode="&#x2265;" 
d="M517 384v-73l-413 -167v91l315 113l-315 112v92zM94 106h438v-83h-438v83z" />
    <glyph glyph-name="lozenge" unicode="&#x25ca;" 
d="M319 673l256 -343l-257 -345h-26l-256 344l256 344h27zM305 558l-166 -229l166 -228l166 229z" />
    <glyph glyph-name="NULL" horiz-adv-x="0" 
 />
    <glyph glyph-name="a.ss01" horiz-adv-x="597" 
d="M311 491q107 0 158 -43t51 -133v-315h-96v75q-86 -89 -201 -89q-81 0 -133.5 44t-52.5 111q0 69 52 115t135 46q98 0 199 -65v77q0 50 -28 73t-90 23q-90 0 -199 -37l-17 74q116 44 222 44zM244 61q50 0 98.5 27.5t85.5 74.5q-91 72 -184 72q-50 0 -79 -24.5t-29 -63.5
t29.5 -62.5t78.5 -23.5z" />
    <glyph glyph-name="aacute.ss01" horiz-adv-x="597" 
d="M428 656l-189 -130l-39 48l171 151zM311 491q107 0 158 -43t51 -133v-315h-96v75q-86 -89 -201 -89q-81 0 -133.5 44t-52.5 111q0 69 52 115t135 46q98 0 199 -65v77q0 50 -28 73t-90 23q-90 0 -199 -37l-17 74q116 44 222 44zM244 61q50 0 98.5 27.5t85.5 74.5
q-91 72 -184 72q-50 0 -79 -24.5t-29 -63.5t29.5 -62.5t78.5 -23.5z" />
    <glyph glyph-name="acircumflex.ss01" horiz-adv-x="597" 
d="M295 619l-120 -93l-40 46l129 132h62l129 -131l-41 -47zM311 491q107 0 158 -43t51 -133v-315h-96v75q-86 -89 -201 -89q-81 0 -133.5 44t-52.5 111q0 69 52 115t135 46q98 0 199 -65v77q0 50 -28 73t-90 23q-90 0 -199 -37l-17 74q116 44 222 44zM244 61q50 0 98.5 27.5
t85.5 74.5q-91 72 -184 72q-50 0 -79 -24.5t-29 -63.5t29.5 -62.5t78.5 -23.5z" />
    <glyph glyph-name="adieresis.ss01" horiz-adv-x="597" 
d="M206 556q-23 0 -39 16.5t-16 39.5t16 39.5t39 16.5t40 -16.5t17 -39.5t-17 -39.5t-40 -16.5zM383 556q-23 0 -39.5 16.5t-16.5 39.5t16.5 39.5t39.5 16.5q24 0 40 -16.5t16 -39.5t-16 -39.5t-40 -16.5zM311 491q107 0 158 -43t51 -133v-315h-96v75q-86 -89 -201 -89
q-81 0 -133.5 44t-52.5 111q0 69 52 115t135 46q98 0 199 -65v77q0 50 -28 73t-90 23q-90 0 -199 -37l-17 74q116 44 222 44zM244 61q50 0 98.5 27.5t85.5 74.5q-91 72 -184 72q-50 0 -79 -24.5t-29 -63.5t29.5 -62.5t78.5 -23.5z" />
    <glyph glyph-name="agrave.ss01" horiz-adv-x="597" 
d="M390 574l-39 -48l-189 130l57 69zM311 491q107 0 158 -43t51 -133v-315h-96v75q-86 -89 -201 -89q-81 0 -133.5 44t-52.5 111q0 69 52 115t135 46q98 0 199 -65v77q0 50 -28 73t-90 23q-90 0 -199 -37l-17 74q116 44 222 44zM244 61q50 0 98.5 27.5t85.5 74.5
q-91 72 -184 72q-50 0 -79 -24.5t-29 -63.5t29.5 -62.5t78.5 -23.5z" />
    <glyph glyph-name="aring.ss01" horiz-adv-x="597" 
d="M295 529q-43 0 -73.5 28.5t-30.5 70.5t31 70.5t75 28.5q43 0 73 -28.5t30 -70.5t-30.5 -70.5t-74.5 -28.5zM296 679q-22 0 -35.5 -14.5t-13.5 -36.5t13.5 -36.5t35.5 -14.5t35 14t13 37q0 22 -13.5 36.5t-34.5 14.5zM311 491q107 0 158 -43t51 -133v-315h-96v75
q-86 -89 -201 -89q-81 0 -133.5 44t-52.5 111q0 69 52 115t135 46q98 0 199 -65v77q0 50 -28 73t-90 23q-90 0 -199 -37l-17 74q116 44 222 44zM244 61q50 0 98.5 27.5t85.5 74.5q-91 72 -184 72q-50 0 -79 -24.5t-29 -63.5t29.5 -62.5t78.5 -23.5z" />
    <glyph glyph-name="atilde.ss01" horiz-adv-x="597" 
d="M233 614q-34 0 -46 -48l-54 21q7 40 28.5 68.5t61.5 28.5q29 0 73 -24.5t61 -24.5q32 0 44 48l54 -21q-17 -97 -88 -97q-30 0 -74 24.5t-60 24.5zM311 491q107 0 158 -43t51 -133v-315h-96v75q-86 -89 -201 -89q-81 0 -133.5 44t-52.5 111q0 69 52 115t135 46
q98 0 199 -65v77q0 50 -28 73t-90 23q-90 0 -199 -37l-17 74q116 44 222 44zM244 61q50 0 98.5 27.5t85.5 74.5q-91 72 -184 72q-50 0 -79 -24.5t-29 -63.5t29.5 -62.5t78.5 -23.5z" />
    <glyph glyph-name="caron.ss01" horiz-adv-x="213" 
d="M72 549q0 8 2 63.5t1 83.5q-1 20 10 31.5t30 11.5q40 0 40 -38q0 -17 -8.5 -68.5t-16.5 -82.5q-8 -27 -30 -27q-12 0 -20 7.5t-8 18.5z" />
    </font>
</defs>
</svg>
