<?xml version="1.0" standalone="no"?>
<!DOCTYPE svg PUBLIC "-//W3C//DTD SVG 1.1//EN" "http://www.w3.org/Graphics/SVG/1.1/DTD/svg11.dtd" >
<svg xmlns="http://www.w3.org/2000/svg" xmlns:xlink="http://www.w3.org/1999/xlink" version="1.1">
<metadata>
Created by FontForge 20200427 at Thu Sep 28 23:03:30 2017
 By www
Copyright (c) 2017 Newlyn Works Limited. All rights reserved.
</metadata>
<defs>
<font id="MTNBrighterSans-Bold" horiz-adv-x="610" >
  <font-face 
    font-family="MTN Brighter Sans Bold"
    font-weight="700"
    font-stretch="normal"
    units-per-em="1000"
    panose-1="0 0 8 0 0 0 0 0 0 0"
    ascent="800"
    descent="-200"
    x-height="480"
    cap-height="658"
    bbox="-120 -226 2524 962"
    underline-thickness="50"
    underline-position="-150"
    unicode-range="U+000D-25CA"
  />
<missing-glyph horiz-adv-x="724" 
d="M159 0q-81 0 -81 74v505q0 79 81 79h406q81 0 81 -74v-505q0 -79 -81 -79h-406zM502 121v416h-280v-416h280z" />
    <glyph glyph-name="Y_e_l_l_o" unicode="Y&#x27;ello" horiz-adv-x="2564" 
d="M1539 674l179 35l-126 -709h-172zM1793 674l179 35l-126 -709h-172zM512 658h175l-221 -387q-63 -110 -126.5 -173t-166.5 -115l-104 114q102 42 182 119l-150 442h185l78 -279zM934 656l-13 -75q-27 -158 -151 -262l-96 65q56 79 78 197l14 75h168zM1396 317
q0 -61 -34 -123h-332q15 -83 120 -83q89 0 166 41l49 -92q-112 -82 -249 -82q-116 0 -187.5 63t-71.5 167q0 121 94 208.5t225 87.5q99 0 159.5 -52t60.5 -135zM2268 504q114 0 185 -64.5t71 -165.5q0 -120 -92.5 -208t-228.5 -88q-113 0 -184.5 64.5t-71.5 167.5
q0 119 92 206.5t229 87.5zM1247 307v8q0 33 -22.5 53t-60.5 20q-39 0 -70.5 -21.5t-48.5 -59.5h202zM2212 107q58 0 95 46.5t37 117.5q0 106 -87 106q-58 0 -94 -46t-36 -117q0 -107 85 -107z" />
    <glyph glyph-name=".notdef" horiz-adv-x="724" 
d="M159 0q-81 0 -81 74v505q0 79 81 79h406q81 0 81 -74v-505q0 -79 -81 -79h-406zM502 121v416h-280v-416h280z" />
    <glyph glyph-name=".null" horiz-adv-x="0" 
 />
    <glyph glyph-name="nonmarkingreturn" horiz-adv-x="333" 
 />
    <glyph glyph-name="CR" unicode="&#xd;" horiz-adv-x="240" 
 />
    <glyph glyph-name="space" unicode=" " horiz-adv-x="240" 
 />
    <glyph glyph-name="exclam" unicode="!" horiz-adv-x="316" 
d="M233 220h-150l-16 438h182zM158 -8q-39 0 -66.5 24.5t-27.5 61.5t27.5 62.5t66.5 25.5t66.5 -25.5t27.5 -62.5t-27.5 -61.5t-66.5 -24.5z" />
    <glyph glyph-name="quotedbl" unicode="&#x22;" horiz-adv-x="460" 
d="M49 658h153l-26 -308h-103zM259 658h153l-26 -308h-103z" />
    <glyph glyph-name="numbersign" unicode="#" 
d="M618 390h-112l-28 -110h86v-121h-117l-41 -159h-130l41 159h-111l-42 -159h-129l42 159h-85v121h117l30 110h-83v121h115l39 147h129l-39 -147h108l38 147h129l-38 -147h81v-121zM348 280l29 110h-109l-30 -110h110z" />
    <glyph glyph-name="dollar" unicode="$" 
d="M589 207q0 -82 -54 -136t-154 -67v-135h-130v137q-147 19 -236 93l56 103q101 -57 190 -69v128q-104 19 -162.5 61.5t-58.5 126.5t54.5 138t156.5 67v135h130v-136q96 -12 172 -52v-139q-88 52 -182 64v-125q218 -40 218 -194zM176 471q0 -25 21 -36.5t64 -18.5v112
q-85 -10 -85 -57zM371 130q82 10 82 60q0 25 -20 36.5t-62 18.5v-115z" />
    <glyph glyph-name="percent" unicode="%" horiz-adv-x="841" 
d="M194 298q-72 0 -116.5 50.5t-44.5 135.5q0 89 46 141.5t119 52.5q72 0 116.5 -50.5t44.5 -135.5q0 -89 -46 -141.5t-119 -52.5zM90 0l527 658h133l-528 -658h-132zM198 390q45 0 45 91q0 49 -13 77t-36 28q-45 0 -45 -91q0 -49 13 -77t36 -28zM643 -20q-72 0 -116.5 50.5
t-44.5 135.5q0 89 46 141.5t119 52.5q72 0 116.5 -50.5t44.5 -135.5q0 -89 -46 -141.5t-119 -52.5zM647 72q45 0 45 91q0 49 -13 77t-36 28q-45 0 -45 -91q0 -49 13 -77t36 -28z" />
    <glyph glyph-name="ampersand" unicode="&#x26;" horiz-adv-x="713" 
d="M694 65l-107 -102l-90 82q-97 -65 -214 -65q-103 0 -168.5 48.5t-65.5 132.5q0 111 133 178q-71 77 -71 150q0 78 60.5 130.5t155.5 52.5q89 0 145.5 -47.5t56.5 -120.5q0 -54 -33.5 -95.5t-97.5 -79.5l107 -95q27 61 32 143h131q0 -127 -68 -228zM318 551
q-26 0 -41.5 -16t-15.5 -42q0 -22 13 -42.5t44 -48.5q61 39 61 86q0 29 -17 46t-44 17zM315 105q52 0 94 22l-147 135q-54 -35 -54 -80q0 -37 28.5 -57t78.5 -20z" />
    <glyph glyph-name="quotesingle" unicode="'" horiz-adv-x="250" 
d="M49 658h153l-26 -308h-103z" />
    <glyph glyph-name="parenleft" unicode="(" horiz-adv-x="359" 
d="M250 -133q-92 65 -153 173.5t-61 255.5q0 148 61 257t154 177l97 -82q-75 -60 -119.5 -151t-44.5 -198q0 -210 166 -349z" />
    <glyph glyph-name="parenright" unicode=")" horiz-adv-x="358" 
d="M109 723q92 -65 153 -173.5t61 -255.5q0 -148 -61 -257t-154 -177l-97 82q75 60 119.5 151t44.5 198q0 210 -166 349z" />
    <glyph glyph-name="asterisk" unicode="*" horiz-adv-x="534" 
d="M76 318l112 106l-153 20l48 149l135 -76l-28 151h154l-28 -151l135 75l48 -148l-153 -20l111 -106l-124 -91l-66 141l-67 -140z" />
    <glyph glyph-name="plus" unicode="+" 
d="M554 374v-147h-170v-169h-158v169h-170v147h170v165h158v-165h170z" />
    <glyph glyph-name="comma" unicode="," horiz-adv-x="276" 
d="M115 -155l-98 58q45 76 45 200v67h155v-70q0 -151 -102 -255z" />
    <glyph glyph-name="hyphen" unicode="-" horiz-adv-x="478" 
d="M58 186v135h362v-135h-362z" />
    <glyph glyph-name="period" unicode="." horiz-adv-x="278" 
d="M139 -8q-41 0 -69.5 28t-28.5 68t29 68.5t69 28.5t69 -28.5t29 -68.5t-28.5 -68t-69.5 -28z" />
    <glyph glyph-name="slash" unicode="/" horiz-adv-x="452" 
d="M24 -37l262 742h144l-262 -742h-144z" />
    <glyph glyph-name="zero" unicode="0" 
d="M302 -16q-124 0 -201 91t-77 246q0 163 79.5 258t205.5 95q123 0 200 -91t77 -246q0 -163 -79 -258t-205 -95zM309 116q52 0 81.5 52.5t29.5 147.5q0 103 -32 164.5t-87 61.5q-51 0 -81 -54t-30 -146q0 -103 32 -164.5t87 -61.5z" />
    <glyph glyph-name="one" unicode="1" 
d="M418 133h127v-133h-440v133h155v390l-162 -16l-8 114l328 55v-543z" />
    <glyph glyph-name="two" unicode="2" 
d="M258 126q154 14 293 14v-140h-493v115q181 149 240 215t59 119q0 39 -25.5 62t-66.5 23q-72 0 -139 -70l-73 92q41 51 105 84.5t137 33.5q102 0 168 -57t66 -148q0 -84 -62 -157.5t-209 -185.5z" />
    <glyph glyph-name="three" unicode="3" 
d="M433 347q124 -47 124 -163q0 -92 -77 -146t-204 -54t-222 53v136q94 -59 211 -59q56 0 91 22t35 58q0 75 -149 75h-80v121h80q61 0 98 22t37 59q0 32 -30 52t-76 20q-84 0 -161 -61l-63 97q45 43 111.5 69t141.5 26q104 0 171.5 -49.5t67.5 -129.5q0 -101 -106 -148z" />
    <glyph glyph-name="four" unicode="4" 
d="M586 250v-128h-104v-122h-152v122h-317v114l330 428h139v-414h104zM332 250l5 214l-165 -214h160z" />
    <glyph glyph-name="five" unicode="5" 
d="M340 424q98 0 160.5 -56t62.5 -142q0 -111 -82 -175.5t-214 -64.5q-127 0 -212 55v147q85 -62 200 -62q63 0 100.5 23t37.5 63q0 38 -30 60.5t-85 22.5q-72 0 -146 -35l-60 47l38 351l425 -2v-138l-308 2l-16 -125q62 29 129 29z" />
    <glyph glyph-name="six" unicode="6" 
d="M363 427q89 0 151 -53.5t62 -150.5q0 -104 -71 -171.5t-184 -67.5q-125 0 -201 87t-76 236q0 165 90 266t227 101q83 0 158 -25v-134q-63 29 -139 29q-70 0 -113 -44.5t-55 -128.5q64 56 151 56zM323 114q42 0 66.5 26t24.5 65q0 42 -28 71t-73 29q-54 0 -103 -41
q6 -73 35 -111.5t78 -38.5z" />
    <glyph glyph-name="seven" unicode="7" 
d="M554 658v-116l-265 -542h-184l287 520q-96 -9 -322 -9v147h484z" />
    <glyph glyph-name="eight" unicode="8" 
d="M445 343q133 -46 133 -164q0 -89 -75.5 -143t-197.5 -54t-197.5 52t-75.5 135q0 57 36 100t99 67q-114 54 -114 152q0 84 69.5 136t182.5 52t182.5 -50t69.5 -131q0 -101 -112 -152zM305 547q-43 0 -68.5 -19.5t-25.5 -52.5q0 -58 104 -85q84 28 84 85q0 33 -25.5 52.5
t-68.5 19.5zM305 111q49 0 79 22t30 58q0 65 -112 94q-106 -30 -106 -94q0 -36 30 -58t79 -22z" />
    <glyph glyph-name="nine" unicode="9" 
d="M292 674q124 0 199.5 -92.5t75.5 -248.5q0 -163 -83 -256t-218 -93q-104 0 -194 34v134q82 -38 171 -38q73 0 111.5 43t46.5 129q-64 -53 -152 -53q-90 0 -151 53t-61 147q0 104 73 172.5t182 68.5zM199 448q0 -44 27.5 -68.5t74.5 -24.5q55 0 100 34q-13 155 -112 155
q-41 0 -65.5 -27t-24.5 -69z" />
    <glyph glyph-name="colon" unicode=":" horiz-adv-x="300" 
d="M150 287q-41 0 -69.5 28t-28.5 68t29 68.5t69 28.5t69 -28.5t29 -68.5t-28.5 -68t-69.5 -28zM150 -8q-41 0 -69.5 28t-28.5 68t29 68.5t69 28.5t69 -28.5t29 -68.5t-28.5 -68t-69.5 -28z" />
    <glyph glyph-name="semicolon" unicode=";" horiz-adv-x="295" 
d="M146 287q-41 0 -69.5 28t-28.5 68t29 68.5t69 28.5t69 -28.5t29 -68.5t-28.5 -68t-69.5 -28zM127 -155l-98 58q45 76 45 200v67h155v-70q0 -151 -102 -255z" />
    <glyph glyph-name="less" unicode="&#x3c;" 
d="M506 565v-157l-273 -107l273 -107v-157l-439 205v118z" />
    <glyph glyph-name="equal" unicode="=" 
d="M64 347v142h482v-142h-482zM64 112v142h482v-142h-482z" />
    <glyph glyph-name="greater" unicode="&#x3e;" 
d="M104 565l439 -205v-118l-439 -205v157l273 107l-273 107v157z" />
    <glyph glyph-name="question" unicode="?" horiz-adv-x="530" 
d="M163 220q-7 19 -7 49q0 34 27.5 65.5t60 52t60 48.5t27.5 56q0 26 -22.5 41t-63.5 15q-83 0 -158 -56l-62 95q46 42 111 67t136 25q99 0 161 -49t62 -129q0 -43 -19.5 -80t-48 -61t-56.5 -43.5t-47.5 -38t-19.5 -34.5q0 -15 2 -23h-143zM236 -8q-39 0 -66.5 24.5
t-27.5 61.5t27.5 62.5t66.5 25.5t66.5 -25.5t27.5 -62.5t-27.5 -61.5t-66.5 -24.5z" />
    <glyph glyph-name="at" unicode="@" horiz-adv-x="944" 
d="M527 639q171 0 274.5 -86t103.5 -228q0 -115 -65.5 -194t-163.5 -79q-91 0 -111 77q-58 -80 -152 -80q-68 0 -112.5 46t-44.5 120q0 91 66 156.5t161 65.5q82 0 145 -52l83 15l-43 -178q-3 -12 -3 -23q0 -28 28 -28q33 0 58.5 43t25.5 100q0 69 -41 117t-100 68t-128 20
q-143 0 -237.5 -87t-94.5 -224q0 -113 68 -175t197 -62q94 0 175 37l42 -93q-91 -66 -246 -66q-170 0 -274 94t-104 255q0 126 65 227t178 157.5t250 56.5zM461 153q45 0 79 40l22 97q-11 23 -34 38t-51 15q-41 0 -69 -29.5t-28 -75.5q0 -40 21.5 -62.5t59.5 -22.5z" />
    <glyph glyph-name="A" unicode="A" horiz-adv-x="717" 
d="M547 -1l-58 140h-280l-57 -139h-154l280 658h162l278 -658zM263 270h172l-87 208z" />
    <glyph glyph-name="B" unicode="B" horiz-adv-x="713" 
d="M553 337q54 -19 84.5 -58t30.5 -88q0 -95 -65.5 -143t-161.5 -48h-357v658h325q109 0 174 -45t65 -129q0 -51 -25 -89.5t-70 -57.5zM398 528h-152v-136h154q38 0 59 17.5t21 48.5t-22 50.5t-60 19.5zM413 130q43 0 65 19.5t22 52.5q0 68 -84 68h-170v-140h167z" />
    <glyph glyph-name="C" unicode="C" horiz-adv-x="669" 
d="M400 127q100 0 186 73l73 -101q-121 -119 -289 -119q-149 0 -238.5 92.5t-89.5 243.5q0 160 98 261t252 101q112 0 212 -51v-157q-91 68 -197 68q-89 0 -140 -56t-51 -149t50 -149.5t134 -56.5z" />
    <glyph glyph-name="D" unicode="D" horiz-adv-x="736" 
d="M84 0v658h257q160 0 256.5 -86t96.5 -233q0 -150 -103.5 -244.5t-262.5 -94.5h-244zM248 134h93q83 0 132 49.5t49 138.5q0 96 -52.5 149t-141.5 53h-80v-390z" />
    <glyph glyph-name="E" unicode="E" horiz-adv-x="664" 
d="M248 130h371v-130h-535v658h523v-130h-359v-132h304v-130h-304v-136z" />
    <glyph glyph-name="F" unicode="F" horiz-adv-x="623" 
d="M84 0v658h507v-130h-343v-161h297v-130h-297v-237h-164z" />
    <glyph glyph-name="G" unicode="G" horiz-adv-x="714" 
d="M521 334h142v-275q-49 -34 -123 -56.5t-152 -22.5q-156 0 -251 92t-95 244q0 158 99.5 260t253.5 102q61 0 125 -16.5t107 -40.5v-158q-106 75 -213 75q-91 0 -145.5 -57t-54.5 -152q0 -94 52.5 -153.5t140.5 -59.5q57 0 114 24v194z" />
    <glyph glyph-name="H" unicode="H" horiz-adv-x="788" 
d="M84 0v658h164v-265h292v265h164v-658h-164v259h-292v-259h-164z" />
    <glyph glyph-name="I" unicode="I" horiz-adv-x="332" 
d="M84 0v658h164v-658h-164z" />
    <glyph glyph-name="J" unicode="J" horiz-adv-x="520" 
d="M226 -20q-66 0 -130 31.5t-99 80.5l74 90q60 -62 140 -62q35 0 51 21t16 67v450h164v-471q0 -98 -56 -152.5t-160 -54.5z" />
    <glyph glyph-name="K" unicode="K" horiz-adv-x="715" 
d="M519 0l-172 281l-99 -105v-176h-164v658h164v-291l250 291h206l-247 -261l254 -397h-192z" />
    <glyph glyph-name="L" unicode="L" horiz-adv-x="595" 
d="M84 658h164v-524h331v-134h-495v658z" />
    <glyph glyph-name="M" unicode="M" horiz-adv-x="848" 
d="M616 658h148v-658h-161v398l-137 -202h-86l-148 202v-398h-148v658h149l201 -276z" />
    <glyph glyph-name="N" unicode="N" horiz-adv-x="782" 
d="M550 658h148v-658h-136l-330 405v-405h-148v658h147l319 -393v393z" />
    <glyph glyph-name="O" unicode="O" horiz-adv-x="782" 
d="M385 -20q-154 0 -248.5 94t-94.5 245q0 160 98 259.5t258 99.5q154 0 248 -94t94 -245q0 -160 -97.5 -259.5t-257.5 -99.5zM398 114q78 0 124 57t46 151q0 100 -49.5 161t-133.5 61q-78 0 -124.5 -57t-46.5 -151q0 -100 50 -161t134 -61z" />
    <glyph glyph-name="P" unicode="P" horiz-adv-x="679" 
d="M382 658q128 0 200 -60t72 -162q0 -105 -74.5 -168t-197.5 -63h-134v-205h-164v658h298zM370 335q53 0 82.5 26t29.5 71t-29.5 70.5t-82.5 25.5h-122v-193h122z" />
    <glyph glyph-name="Q" unicode="Q" horiz-adv-x="795" 
d="M778 3l-95 -96l-118 115q-79 -42 -180 -42q-154 0 -248.5 94t-94.5 245q0 160 98 259.5t258 99.5q154 0 248 -94t94 -245q0 -136 -71 -229zM398 114q32 0 62 11l-67 66l95 96l64 -63q16 46 16 98q0 100 -49.5 161t-133.5 61q-78 0 -124.5 -57t-46.5 -151q0 -100 50 -161
t134 -61z" />
    <glyph glyph-name="R" unicode="R" horiz-adv-x="723" 
d="M503 0l-124 220h-131v-220h-164v658h319q123 0 193 -58t70 -156q0 -64 -33.5 -114t-92.5 -78l154 -252h-191zM248 528v-178h140q50 0 78 24t28 66q0 41 -28.5 64.5t-77.5 23.5h-140z" />
    <glyph glyph-name="S" unicode="S" horiz-adv-x="659" 
d="M344 -20q-82 0 -167 26t-146 66l48 115q146 -73 268 -73q112 0 112 62q0 29 -30 41t-122 28q-127 22 -190 71t-63 134q0 101 80.5 164.5t205.5 63.5q61 0 129 -15.5t115 -40.5v-150q-110 72 -234 72q-61 0 -97 -19t-36 -52q0 -8 2 -14t7 -11.5t10 -9.5t15 -7.5t18 -6.5
t23 -6t26 -5.5t30.5 -6.5t33.5 -7q41 -9 67 -16t62.5 -23t58 -35.5t37 -52t15.5 -73.5q0 -99 -76.5 -159t-201.5 -60z" />
    <glyph glyph-name="T" unicode="T" horiz-adv-x="635" 
d="M236 524h-221v134h605v-134h-220v-524h-164v524z" />
    <glyph glyph-name="U" unicode="U" horiz-adv-x="757" 
d="M378 -20q-141 0 -221.5 77t-80.5 210v391h164v-394q0 -68 39.5 -105t105.5 -37t106 37t40 105v394h150v-391q0 -131 -82 -209t-221 -78z" />
    <glyph glyph-name="V" unicode="V" horiz-adv-x="700" 
d="M544 658h156l-268 -658h-164l-268 658h173l186 -487z" />
    <glyph glyph-name="W" unicode="W" horiz-adv-x="961" 
d="M805 658h142l-194 -658h-152l-123 423l-118 -423h-152l-194 658h159l123 -469l119 469h148l123 -469z" />
    <glyph glyph-name="X" unicode="X" horiz-adv-x="696" 
d="M691 0h-191l-164 223l-153 -223h-177l246 337l-237 321h192l154 -209l142 209h178l-236 -323z" />
    <glyph glyph-name="Y" unicode="Y" horiz-adv-x="672" 
d="M506 658h168l-256 -400v-258h-164v258l-256 400h184l162 -272z" />
    <glyph glyph-name="Z" unicode="Z" horiz-adv-x="656" 
d="M255 130h358v-130h-569v124l352 404h-342v130h549v-120z" />
    <glyph glyph-name="bracketleft" unicode="[" horiz-adv-x="352" 
d="M322 -10v-121h-245v859h245v-121h-101v-617h101z" />
    <glyph glyph-name="backslash" unicode="\" horiz-adv-x="452" 
d="M428 -37h-144l-262 742h144z" />
    <glyph glyph-name="bracketright" unicode="]" horiz-adv-x="352" 
d="M30 -10h101v617h-101v121h245v-859h-245v121z" />
    <glyph glyph-name="asciicircum" unicode="^" 
d="M559 402h-142l-112 156l-112 -156h-142l194 256h120z" />
    <glyph glyph-name="underscore" unicode="_" horiz-adv-x="441" 
d="M-34 -202v135h509v-135h-509z" />
    <glyph glyph-name="grave" unicode="`" horiz-adv-x="311" 
d="M244 527l-226 141l85 105l200 -172z" />
    <glyph glyph-name="a" unicode="a" horiz-adv-x="625" 
d="M455 472l104 25v-497h-152v62q-60 -78 -158 -78q-91 0 -154.5 66.5t-63.5 169.5q0 119 83 198.5t200 79.5q66 0 141 -26zM308 111q58 0 93 42v201q-40 24 -85 24q-52 0 -86.5 -34t-34.5 -100q0 -61 30.5 -97t82.5 -36z" />
    <glyph glyph-name="b" unicode="b" horiz-adv-x="628" 
d="M366 498q96 0 163.5 -67.5t67.5 -180.5q0 -121 -80.5 -194.5t-213.5 -73.5q-118 0 -240 55v637l158 32v-261q63 53 145 53zM311 102q53 0 87.5 33t34.5 97q0 63 -34 104.5t-92 41.5q-49 0 -86 -32v-220q43 -24 90 -24z" />
    <glyph glyph-name="c" unicode="c" horiz-adv-x="530" 
d="M295 -20q-118 0 -191 69t-73 179q0 119 81 195.5t198 76.5q88 0 168 -40v-136q-66 50 -147 50q-62 0 -100 -35.5t-38 -93.5q0 -61 36 -96.5t98 -35.5q68 0 135 44l58 -88q-43 -41 -103 -65t-122 -24z" />
    <glyph glyph-name="d" unicode="d" horiz-adv-x="628" 
d="M404 674l158 32v-706h-152v63q-64 -79 -167 -79q-91 0 -151.5 65.5t-60.5 170.5q0 122 81.5 200t203.5 78q38 0 88 -10v186zM312 111q57 0 92 44v199q-40 24 -89 24q-52 0 -86 -32.5t-34 -96.5q0 -63 32 -100.5t85 -37.5z" />
    <glyph glyph-name="e" unicode="e" horiz-adv-x="590" 
d="M503 147l54 -79q-103 -88 -243 -88q-126 0 -204.5 68t-78.5 181q0 116 81.5 193.5t202.5 77.5q106 0 171.5 -60t65.5 -157q0 -48 -16 -85h-345q29 -96 157 -96q77 0 155 45zM314 391q-41 0 -75.5 -22.5t-48.5 -65.5h224q-5 40 -31 64t-69 24z" />
    <glyph glyph-name="f" unicode="f" horiz-adv-x="404" 
d="M309 592q-45 0 -65 -21.5t-20 -66.5v-24h169v-122h-169v-358h-158v498q0 217 220 217q80 0 149 -23v-124q-64 24 -126 24z" />
    <glyph glyph-name="g" unicode="g" horiz-adv-x="658" 
d="M651 480v-133l-117 8q28 -40 28 -90q0 -86 -73 -145t-185 -59q-16 0 -24 1l-78 -124q111 75 229 75q184 0 199 -203l-165 -20q-7 52 -32.5 71t-68.5 19q-114 0 -231 -71l-96 61l99 235q-100 61 -100 169q0 92 75.5 157t188.5 65q52 0 100 -16h251zM303 172q45 0 76 27.5
t31 74.5q0 49 -33 79t-80 30q-46 0 -77.5 -28t-31.5 -75q0 -48 34 -78t81 -30z" />
    <glyph glyph-name="h" unicode="h" horiz-adv-x="636" 
d="M395 496q80 0 131 -53.5t51 -153.5v-289h-158v240q0 124 -86 124q-62 0 -109 -59v-305h-158v674l158 32v-283q68 73 171 73z" />
    <glyph glyph-name="i" unicode="i" horiz-adv-x="288" 
d="M142 539q-39 0 -65.5 24.5t-26.5 62.5q0 37 26.5 62.5t65.5 25.5t66 -25.5t27 -62.5q0 -38 -27 -62.5t-66 -24.5zM64 0v465l158 32v-497h-158z" />
    <glyph glyph-name="j" unicode="j" horiz-adv-x="292" 
d="M147 539q-39 0 -65.5 24.5t-26.5 62.5q0 37 26.5 62.5t65.5 25.5t66 -25.5t27 -62.5q0 -38 -27 -62.5t-66 -24.5zM96 -212l-88 64q36 56 48.5 111t12.5 165v337l158 32v-402q0 -197 -131 -307z" />
    <glyph glyph-name="k" unicode="k" horiz-adv-x="620" 
d="M431 0l-131 189l-76 -71v-118h-158v674l158 32v-423l190 197h199l-204 -189l220 -291h-198z" />
    <glyph glyph-name="l" unicode="l" horiz-adv-x="290" 
d="M66 0v674l158 32v-706h-158z" />
    <glyph glyph-name="m" unicode="m" horiz-adv-x="899" 
d="M677 494q75 0 119 -53t44 -146v-295h-158v254q0 108 -67 108q-51 0 -84 -50v-17v-295h-158v254q0 108 -67 108q-51 0 -84 -49v-313h-158v465l152 32v-78q60 75 149 75q47 0 84.5 -24t59.5 -67q29 43 73.5 67t94.5 24z" />
    <glyph glyph-name="n" unicode="n" horiz-adv-x="633" 
d="M392 496q80 0 131 -53.5t51 -153.5v-289h-158v240q0 124 -86 124q-60 0 -108 -57v-307h-158v465l152 32v-80q32 38 79 58.5t97 20.5z" />
    <glyph glyph-name="o" unicode="o" horiz-adv-x="625" 
d="M308 -20q-119 0 -198.5 72t-79.5 180q0 115 82 191.5t205 76.5q119 0 198.5 -72.5t79.5 -180.5q0 -114 -82 -190.5t-205 -76.5zM317 98q54 0 85 36.5t31 98.5q0 69 -33.5 109t-91.5 40q-54 0 -85 -36.5t-31 -99.5q0 -68 33.5 -108t91.5 -40z" />
    <glyph glyph-name="p" unicode="p" horiz-adv-x="627" 
d="M373 498q91 0 157 -68t66 -180q0 -120 -79 -194t-204 -74q-48 0 -91 10v-192h-158v665l152 32v-62q68 63 157 63zM321 102q54 0 82.5 32t28.5 92q0 66 -34 105.5t-94 39.5q-48 0 -82 -29v-207q44 -33 99 -33z" />
    <glyph glyph-name="q" unicode="q" horiz-adv-x="621" 
d="M317 500q110 0 242 -67v-633h-158v253q-59 -69 -155 -69t-155 65t-59 168q0 122 81.5 202.5t203.5 80.5zM307 112q60 0 94 46v195q-44 27 -92 27q-49 0 -81 -33.5t-32 -100.5q0 -62 29 -98t82 -36z" />
    <glyph glyph-name="r" unicode="r" horiz-adv-x="446" 
d="M374 496q30 0 57 -7v-153q-35 12 -71 12q-93 0 -138 -79v-269h-158v465l152 32v-111q29 52 71 81t87 29z" />
    <glyph glyph-name="s" unicode="s" horiz-adv-x="544" 
d="M283 -20q-72 0 -141.5 19.5t-116.5 48.5l41 94q98 -51 213 -51q90 0 90 41q0 18 -18 24.5t-66 12.5q-17 2 -27 3q-51 7 -87 17t-67.5 27t-47.5 45t-16 66q0 81 63 127t173 46q107 0 201 -40v-119q-37 23 -92 36.5t-107 13.5q-93 0 -93 -42q0 -19 20.5 -25.5t78.5 -14.5
q40 -6 66 -11t60.5 -16.5t54.5 -27.5t34.5 -43t14.5 -62q0 -78 -61.5 -123.5t-169.5 -45.5z" />
    <glyph glyph-name="t" unicode="t" horiz-adv-x="401" 
d="M66 0v622l158 32v-174h166v-122l-166 1v-359h-158z" />
    <glyph glyph-name="u" unicode="u" horiz-adv-x="627" 
d="M403 465l158 32v-497h-152v63q-68 -77 -174 -77q-79 0 -129.5 53.5t-50.5 153.5v272l158 32v-255q0 -124 84 -124q61 0 106 54v293z" />
    <glyph glyph-name="v" unicode="v" horiz-adv-x="566" 
d="M412 480h155l-203 -480h-161l-204 480h169l122 -317z" />
    <glyph glyph-name="w" unicode="w" horiz-adv-x="806" 
d="M653 480h147l-162 -480h-151l-90 270l-77 -270h-151l-163 480h160l86 -317l85 317h145l91 -317z" />
    <glyph glyph-name="x" unicode="x" horiz-adv-x="586" 
d="M588 0h-190l-118 146l-105 -146h-177l200 247l-188 233h192l107 -133l89 133h178l-187 -232z" />
    <glyph glyph-name="y" unicode="y" horiz-adv-x="555" 
d="M401 480h155l-288 -680h-154l94 201l-210 479h169l118 -302z" />
    <glyph glyph-name="z" unicode="z" horiz-adv-x="546" 
d="M253 122h256v-122h-472v116l247 242h-239v122h456v-116z" />
    <glyph glyph-name="braceleft" unicode="{" horiz-adv-x="372" 
d="M323 607q-88 0 -88 -66q0 -20 10.5 -70t10.5 -75q0 -71 -92 -98q45 -12 68.5 -38.5t23.5 -60.5q0 -25 -10.5 -74t-10.5 -69q0 -66 88 -66h17v-124q-26 -2 -43 -2q-97 0 -151.5 44.5t-54.5 107.5q0 27 12.5 87t12.5 76q0 31 -18.5 46.5t-70.5 20.5v105q52 5 70.5 20.5
t18.5 46.5q0 16 -12.5 76t-12.5 87q0 63 54.5 107.5t151.5 44.5q17 0 43 -2v-124h-17z" />
    <glyph glyph-name="bar" unicode="|" horiz-adv-x="292" 
d="M78 859h136v-1059h-136v1059z" />
    <glyph glyph-name="braceright" unicode="}" horiz-adv-x="372" 
d="M345 246q-52 -5 -70.5 -20.5t-18.5 -46.5q0 -16 12.5 -76t12.5 -87q0 -63 -54.5 -107.5t-151.5 -44.5q-17 0 -43 2v124h17q88 0 88 66q0 20 -10.5 70t-10.5 75q0 71 92 98q-45 12 -68.5 38.5t-23.5 60.5q0 25 10.5 74t10.5 69q0 66 -88 66h-17v124q26 2 43 2
q97 0 151.5 -44.5t54.5 -107.5q0 -27 -12.5 -87t-12.5 -76q0 -31 18.5 -46.5t70.5 -20.5v-105z" />
    <glyph glyph-name="asciitilde" unicode="~" 
d="M421 144q-43 0 -118 36t-101 36q-29 0 -47 -16.5t-28 -53.5l-88 44q9 60 46.5 103t102.5 43q44 0 118.5 -36t101.5 -36q29 0 47 16.5t28 53.5l88 -44q-9 -60 -47 -103t-103 -43z" />
    <glyph glyph-name="uni00A0" unicode="&#xa0;" horiz-adv-x="240" 
 />
    <glyph glyph-name="exclamdown" unicode="&#xa1;" horiz-adv-x="316" 
d="M252 580q0 -37 -27.5 -62.5t-66.5 -25.5t-66.5 25.5t-27.5 62.5t27.5 61.5t66.5 24.5t66.5 -24.5t27.5 -61.5zM233 438l16 -438h-182l16 438h150z" />
    <glyph glyph-name="cent" unicode="&#xa2;" 
d="M555 68q-57 -53 -130 -74v-124h-130l1 111q-106 10 -168.5 77t-62.5 170q0 105 65 178.5t165 89.5v114h130v-120q44 -10 87 -31v-127q-49 28 -97 39v-256q41 11 82 40zM219 245q0 -46 22.5 -80t63.5 -48v254q-41 -13 -63.5 -46.5t-22.5 -79.5z" />
    <glyph glyph-name="sterling" unicode="&#xa3;" 
d="M249 125q98 14 307 14l-3 -139h-481v94q74 70 83 160h-94v123h75q-23 55 -23 108q0 81 59.5 135t159.5 54q126 0 222 -73l-56 -101q-66 40 -131 40q-100 0 -100 -85q0 -28 16 -78h181v-123h-162q-8 -68 -53 -129z" />
    <glyph glyph-name="yen" unicode="&#xa5;" 
d="M639 658l-147 -229h107v-102h-172l-33 -52h205v-102h-216v-173h-164v173h-191v102h180l-33 52h-147v102h82l-147 229h184l162 -272l162 272h168z" />
    <glyph glyph-name="brokenbar" unicode="&#xa6;" horiz-adv-x="292" 
d="M78 429v430h136v-430h-136zM78 -200v429h136v-429h-136z" />
    <glyph glyph-name="section" unicode="&#xa7;" horiz-adv-x="583" 
d="M447 228q77 -35 77 -120q0 -83 -59.5 -125.5t-160.5 -42.5q-74 0 -148 20.5t-117 49.5l42 96q91 -54 214 -54q91 0 91 42q0 18 -18 24.5t-70 13.5q-5 0 -8 0.5t-7.5 1t-8.5 1.5q-109 16 -165 44.5t-56 91.5q0 84 95 121q-77 37 -77 121q0 56 33 94.5t78.5 54.5t98.5 16
q130 0 222 -40v-121q-113 49 -211 49q-85 0 -85 -43q0 -17 18.5 -23t83.5 -14q49 -6 86 -15t72 -24.5t54 -40t19 -56.5q0 -86 -93 -122zM198 311q0 -15 16 -24.5t34 -13.5t51 -8l19 -3q77 13 77 47q0 19 -25 29t-87 19q-2 1 -7 1t-8 1q-70 -16 -70 -48z" />
    <glyph glyph-name="dieresis" unicode="&#xa8;" horiz-adv-x="472" 
d="M132 553q-32 0 -54.5 22.5t-22.5 54.5q0 33 22.5 56.5t54.5 23.5q33 0 56.5 -23.5t23.5 -56.5q0 -32 -23.5 -54.5t-56.5 -22.5zM346 553q-32 0 -55 22.5t-23 54.5q0 33 23 56.5t55 23.5q33 0 56 -23.5t23 -56.5q0 -32 -23 -54.5t-56 -22.5z" />
    <glyph glyph-name="copyright" unicode="&#xa9;" horiz-adv-x="778" 
d="M389 -20q-145 0 -247 102t-102 247t102 247t247 102q144 0 246.5 -102t102.5 -247q0 -146 -99.5 -247.5t-249.5 -101.5zM389 42q122 0 201.5 83t79.5 204q0 119 -82.5 203t-198.5 84t-198.5 -84t-82.5 -203t82.5 -203t198.5 -84zM394 128q-89 0 -144 53.5t-55 139.5
q0 92 59 151.5t149 59.5q60 0 118 -29v-117q-50 37 -101 37q-40 0 -62 -26t-22 -65q0 -38 23 -62t61 -24q40 0 87 35l56 -83q-68 -70 -169 -70z" />
    <glyph glyph-name="ordfeminine" unicode="&#xaa;" horiz-adv-x="522" 
d="M377 641l82 19v-394h-129v34q-53 -50 -119 -50q-71 0 -124 55t-53 142q0 95 63.5 155t159.5 60q60 0 120 -21zM180 467q0 -45 25.5 -74.5t64.5 -29.5q30 0 53 20v154q-27 20 -62 20q-38 0 -59.5 -25t-21.5 -65z" />
    <glyph glyph-name="guillemotleft" unicode="&#xab;" horiz-adv-x="644" 
d="M345 381l-175 -143l175 -143l-70 -83l-245 198v56l245 198zM610 381l-175 -143l175 -143l-70 -83l-245 198v56l245 198z" />
    <glyph glyph-name="logicalnot" unicode="&#xac;" 
d="M389 66v160h-339v148h497v-308h-158z" />
    <glyph glyph-name="registered" unicode="&#xae;" horiz-adv-x="504" 
d="M252 678q89 0 151.5 -61t62.5 -148t-62.5 -148t-151.5 -61t-151.5 61t-62.5 148t62.5 148t151.5 61zM252 306q68 0 116 47.5t48 115.5t-48 115.5t-116 47.5t-116 -47.5t-48 -115.5t48 -115.5t116 -47.5zM353 513q0 -43 -41 -66l50 -82h-73l-37 69h-28v-69h-65v219h108
q36 0 61 -20.5t25 -50.5zM224 534v-50h26q36 0 36 25t-33 25h-29z" />
    <glyph glyph-name="macron" unicode="&#xaf;" horiz-adv-x="422" 
d="M58 573v119h306v-119h-306z" />
    <glyph glyph-name="degree" unicode="&#xb0;" horiz-adv-x="405" 
d="M203 346q-72 0 -120 47t-48 115t48 115t120 47t120 -47t48 -115t-48 -115t-120 -47zM203 436q31 0 51.5 20t20.5 52t-20.5 52t-51.5 20t-51.5 -20t-20.5 -52t20.5 -52t51.5 -20z" />
    <glyph glyph-name="plusminus" unicode="&#xb1;" 
d="M384 394h170v-137h-170v-85h-158v85h-170v137h170v165h158v-165zM56 0v137h498v-137h-498z" />
    <glyph glyph-name="uni00B2" unicode="&#xb2;" horiz-adv-x="452" 
d="M214 336q101 13 186 13v-119h-347v92q116 90 153 125t37 62q0 21 -13 32.5t-34 11.5q-39 0 -88 -40l-60 75q26 34 73.5 58t101.5 24q69 0 117 -37.5t48 -96.5q0 -54 -43 -100.5t-131 -99.5z" />
    <glyph glyph-name="uni00B3" unicode="&#xb3;" horiz-adv-x="439" 
d="M313 458q80 -33 80 -106q0 -59 -53 -95.5t-137 -36.5q-83 0 -152 33v113q61 -35 132 -35q66 0 66 34q0 31 -80 31h-47v98h43q37 0 56 12t19 28q0 14 -14.5 22.5t-39.5 8.5q-43 0 -93 -25l-48 78q73 56 175 56q69 0 115 -32t46 -82q0 -64 -68 -102z" />
    <glyph glyph-name="acute" unicode="&#xb4;" horiz-adv-x="311" 
d="M77 527l-59 74l200 172l85 -105z" />
    <glyph glyph-name="uni00B5" unicode="&#xb5;" horiz-adv-x="658" 
d="M422 465l158 32v-497h-152v72q-46 -84 -116 -84q-66 0 -92 57q5 -102 49 -245l-166 1q-33 138 -33 386v278l158 32v-261q0 -119 86 -119q62 0 108 63v285z" />
    <glyph glyph-name="paragraph" unicode="&#xb6;" horiz-adv-x="870" 
d="M303 -142q67 73 67 179v147h-57q-125 0 -205.5 63t-80.5 167q0 113 80 178.5t206 65.5h511v-126h-82v-532h-142v532h-88v-491q0 -155 -114 -250zM179 422q0 -49 32.5 -80.5t94.5 -31.5h64v222h-64q-62 0 -94.5 -31t-32.5 -79z" />
    <glyph glyph-name="periodcentered" unicode="&#xb7;" horiz-adv-x="288" 
d="M144 159q-41 0 -69.5 28t-28.5 68t29 68.5t69 28.5t69 -28.5t29 -68.5t-28.5 -68t-69.5 -28z" />
    <glyph glyph-name="cedilla" unicode="&#xb8;" horiz-adv-x="343" 
d="M204 -37q96 0 96 -74q0 -46 -39.5 -72.5t-103.5 -26.5q-71 0 -117 22l23 68q41 -17 93 -17q51 0 51 20q0 18 -54 18q-31 0 -43 -5l-29 31l37 91h81l-24 -55h29z" />
    <glyph glyph-name="uni00B9" unicode="&#xb9;" horiz-adv-x="415" 
d="M296 342h82v-112h-316v112h99v203l-102 -9l-6 107l243 29v-330z" />
    <glyph glyph-name="ordmasculine" unicode="&#xba;" horiz-adv-x="527" 
d="M260 250q-100 0 -163.5 55.5t-63.5 145.5q0 92 66 151.5t170 59.5q100 0 163 -55.5t63 -145.5q0 -92 -66 -151.5t-169 -59.5zM269 357q38 0 61 26t23 69q0 46 -26 76.5t-66 30.5q-38 0 -61.5 -26.5t-23.5 -69.5q0 -46 26.5 -76t66.5 -30z" />
    <glyph glyph-name="guillemotright" unicode="&#xbb;" horiz-adv-x="644" 
d="M349 266v-56l-245 -198l-70 83l175 143l-175 143l70 83zM369 464l245 -198v-56l-245 -198l-70 83l175 143l-175 143z" />
    <glyph glyph-name="onequarter" unicode="&#xbc;" horiz-adv-x="1020" 
d="M368 230h-316v112h99v203l-102 -9l-6 107l243 29v-330h82v-112zM745 658h133l-528 -658h-132zM988 163v-96h-62v-67h-122v67h-205v95l218 271h109v-270h62zM805 163l6 124l-99 -124h93z" />
    <glyph glyph-name="onehalf" unicode="&#xbd;" horiz-adv-x="1065" 
d="M365 230h-316v112h99v203l-102 -9l-6 107l243 29v-330h82v-112zM742 658h133l-528 -658h-132zM846 106q101 13 186 13v-119h-347v92q116 90 153 125t37 62q0 21 -13 32.5t-34 11.5q-39 0 -88 -40l-60 75q26 34 73.5 58t101.5 24q69 0 117 -37.5t48 -96.5
q0 -54 -43 -100.5t-131 -99.5z" />
    <glyph glyph-name="threequarters" unicode="&#xbe;" horiz-adv-x="998" 
d="M176 331q66 0 66 34q0 31 -80 31h-47v98h43q37 0 56 12t19 28q0 14 -14.5 22.5t-39.5 8.5q-43 0 -93 -25l-48 78q73 56 175 56q69 0 115 -32t46 -82q0 -64 -68 -102q80 -33 80 -106q0 -59 -53 -95.5t-137 -36.5q-83 0 -152 33v113q61 -35 132 -35zM723 658h133l-528 -658
h-132zM966 163v-96h-62v-67h-122v67h-205v95l218 271h109v-270h62zM783 163l6 124l-99 -124h93z" />
    <glyph glyph-name="questiondown" unicode="&#xbf;" horiz-adv-x="532" 
d="M295 666q39 0 66.5 -24.5t27.5 -61.5t-27.5 -62.5t-66.5 -25.5t-66.5 25.5t-27.5 62.5t27.5 61.5t66.5 24.5zM368 438q7 -19 7 -49q0 -34 -27.5 -65.5t-60 -52t-60 -48.5t-27.5 -56q0 -26 22.5 -41t63.5 -15q83 0 158 56l62 -95q-46 -42 -111 -67t-136 -25q-99 0 -161 49
t-62 129q0 43 19.5 80t48 61t56.5 43.5t47.5 38t19.5 34.5q0 15 -2 23h143z" />
    <glyph glyph-name="Agrave" unicode="&#xc0;" horiz-adv-x="717" 
d="M484 779l-59 -74l-226 141l85 105zM547 -1l-58 140h-280l-57 -139h-154l280 658h162l278 -658zM263 270h172l-87 208z" />
    <glyph glyph-name="Aacute" unicode="&#xc1;" horiz-adv-x="717" 
d="M517 846l-226 -141l-59 74l200 172zM547 -1l-58 140h-280l-57 -139h-154l280 658h162l278 -658zM263 270h172l-87 208z" />
    <glyph glyph-name="Acircumflex" unicode="&#xc2;" horiz-adv-x="717" 
d="M358 799l-125 -94l-62 72l139 146h97l138 -145l-63 -73zM547 -1l-58 140h-280l-57 -139h-154l280 658h162l278 -658zM263 270h172l-87 208z" />
    <glyph glyph-name="Atilde" unicode="&#xc3;" horiz-adv-x="717" 
d="M294 798q-36 0 -52 -45l-79 32q23 117 110 117q33 0 81 -20.5t64 -20.5q35 0 51 45l79 -32q-23 -117 -109 -117q-33 0 -81 20.5t-64 20.5zM547 -1l-58 140h-280l-57 -139h-154l280 658h162l278 -658zM263 270h172l-87 208z" />
    <glyph glyph-name="Adieresis" unicode="&#xc4;" horiz-adv-x="717" 
d="M250 731q-32 0 -54.5 22.5t-22.5 54.5q0 33 22.5 56.5t54.5 23.5q33 0 56.5 -23.5t23.5 -56.5q0 -32 -23.5 -54.5t-56.5 -22.5zM464 731q-32 0 -55 22.5t-23 54.5q0 33 23 56.5t55 23.5q33 0 56 -23.5t23 -56.5q0 -32 -23 -54.5t-56 -22.5zM547 -1l-58 140h-280l-57 -139
h-154l280 658h162l278 -658zM263 270h172l-87 208z" />
    <glyph glyph-name="Aring" unicode="&#xc5;" horiz-adv-x="717" 
d="M358 712q-50 0 -85 31.5t-35 77.5t35 77.5t85 31.5t85 -31.5t35 -77.5t-35 -77.5t-85 -31.5zM358 863q-18 0 -30 -12t-12 -30q0 -19 12 -30.5t30 -11.5t30 11.5t12 30.5q0 18 -12 30t-30 12zM547 -1l-58 140h-280l-57 -139h-154l280 658h162l278 -658zM263 270h172
l-87 208z" />
    <glyph glyph-name="AE" unicode="&#xc6;" horiz-adv-x="1067" 
d="M661 130h361v-130h-520v139h-228l-102 -139h-190l520 658h508v-130h-349v-132h294v-130h-294v-136zM372 273h130v176z" />
    <glyph glyph-name="Ccedilla" unicode="&#xc7;" horiz-adv-x="669" 
d="M372 -37q96 0 96 -74q0 -46 -39.5 -72.5t-103.5 -26.5q-71 0 -117 22l23 68q41 -17 93 -17q51 0 51 20q0 18 -54 18q-31 0 -43 -5l-29 31l26 64q-109 28 -171 114t-62 211q0 160 98 261t252 101q112 0 212 -51v-157q-91 68 -197 68q-89 0 -140 -56t-51 -149t50 -149.5
t134 -56.5q100 0 186 73l73 -101q-121 -119 -289 -119h-20l-7 -17h29z" />
    <glyph glyph-name="Egrave" unicode="&#xc8;" horiz-adv-x="664" 
d="M404 705l-226 141l85 105l200 -172zM248 130h371v-130h-535v658h523v-130h-359v-132h304v-130h-304v-136z" />
    <glyph glyph-name="Eacute" unicode="&#xc9;" horiz-adv-x="664" 
d="M270 705l-59 74l200 172l85 -105zM248 130h371v-130h-535v658h523v-130h-359v-132h304v-130h-304v-136z" />
    <glyph glyph-name="Ecircumflex" unicode="&#xca;" horiz-adv-x="664" 
d="M337 799l-125 -94l-62 72l139 146h97l138 -145l-63 -73zM248 130h371v-130h-535v658h523v-130h-359v-132h304v-130h-304v-136z" />
    <glyph glyph-name="Edieresis" unicode="&#xcb;" horiz-adv-x="664" 
d="M229 731q-31 0 -54 22.5t-23 54.5q0 33 22.5 56.5t54.5 23.5q33 0 56.5 -23.5t23.5 -56.5q0 -32 -23.5 -54.5t-56.5 -22.5zM443 731q-32 0 -55 22.5t-23 54.5q0 33 23 56.5t55 23.5q33 0 56 -23.5t23 -56.5q0 -32 -23 -54.5t-56 -22.5zM248 130h371v-130h-535v658h523
v-130h-359v-132h304v-130h-304v-136z" />
    <glyph glyph-name="Igrave" unicode="&#xcc;" horiz-adv-x="332" 
d="M233 705l-226 141l85 105l200 -172zM84 0v658h164v-658h-164z" />
    <glyph glyph-name="Iacute" unicode="&#xcd;" horiz-adv-x="332" 
d="M99 705l-59 74l200 172l85 -105zM84 0v658h164v-658h-164z" />
    <glyph glyph-name="Icircumflex" unicode="&#xce;" horiz-adv-x="332" 
d="M215 923l138 -145l-63 -73l-124 94l-125 -94l-62 72l139 146h97zM84 0v658h164v-658h-164z" />
    <glyph glyph-name="Idieresis" unicode="&#xcf;" horiz-adv-x="332" 
d="M58 731q-32 0 -54.5 22.5t-22.5 54.5q0 33 22.5 56.5t54.5 23.5q33 0 56.5 -23.5t23.5 -56.5q0 -32 -23.5 -54.5t-56.5 -22.5zM272 731q-32 0 -55 22.5t-23 54.5q0 33 23 56.5t55 23.5q33 0 56 -23.5t23 -56.5q0 -32 -23 -54.5t-56 -22.5zM84 0v658h164v-658h-164z" />
    <glyph glyph-name="Eth" unicode="&#xd0;" horiz-adv-x="776" 
d="M381 658q160 0 256.5 -86t96.5 -233q0 -150 -103.5 -244.5t-262.5 -94.5h-244v265h-107v134h107v259h257zM381 134q83 0 132 49.5t49 138.5q0 96 -52.5 149t-141.5 53h-80v-125h131v-134h-131v-131h93z" />
    <glyph glyph-name="Ntilde" unicode="&#xd1;" horiz-adv-x="782" 
d="M331 798q-36 0 -52 -45l-79 32q23 117 110 117q33 0 81 -20.5t64 -20.5q35 0 51 45l79 -32q-23 -117 -109 -117q-33 0 -81 20.5t-64 20.5zM550 658h148v-658h-136l-330 405v-405h-148v658h147l319 -393v393z" />
    <glyph glyph-name="Ograve" unicode="&#xd2;" horiz-adv-x="782" 
d="M458 705l-226 141l85 105l200 -172zM385 -20q-154 0 -248.5 94t-94.5 245q0 160 98 259.5t258 99.5q154 0 248 -94t94 -245q0 -160 -97.5 -259.5t-257.5 -99.5zM398 114q78 0 124 57t46 151q0 100 -49.5 161t-133.5 61q-78 0 -124.5 -57t-46.5 -151q0 -100 50 -161
t134 -61z" />
    <glyph glyph-name="Oacute" unicode="&#xd3;" horiz-adv-x="782" 
d="M324 705l-59 74l200 172l85 -105zM385 -20q-154 0 -248.5 94t-94.5 245q0 160 98 259.5t258 99.5q154 0 248 -94t94 -245q0 -160 -97.5 -259.5t-257.5 -99.5zM398 114q78 0 124 57t46 151q0 100 -49.5 161t-133.5 61q-78 0 -124.5 -57t-46.5 -151q0 -100 50 -161t134 -61
z" />
    <glyph glyph-name="Ocircumflex" unicode="&#xd4;" horiz-adv-x="782" 
d="M391 799l-125 -94l-62 72l139 146h97l138 -145l-63 -73zM398 678q154 0 248 -94t94 -245q0 -160 -97.5 -259.5t-257.5 -99.5q-154 0 -248.5 94t-94.5 245q0 160 98 259.5t258 99.5zM398 114q78 0 124 57t46 151q0 100 -49.5 161t-133.5 61q-78 0 -124.5 -57t-46.5 -151
q0 -100 50 -161t134 -61z" />
    <glyph glyph-name="Otilde" unicode="&#xd5;" horiz-adv-x="782" 
d="M275 753l-79 32q23 117 110 117q33 0 81 -20.5t64 -20.5q35 0 51 45l79 -32q-23 -117 -109 -117q-33 0 -81 20.5t-64 20.5q-36 0 -52 -45zM385 -20q-154 0 -248.5 94t-94.5 245q0 160 98 259.5t258 99.5q154 0 248 -94t94 -245q0 -160 -97.5 -259.5t-257.5 -99.5z
M398 114q78 0 124 57t46 151q0 100 -49.5 161t-133.5 61q-78 0 -124.5 -57t-46.5 -151q0 -100 50 -161t134 -61z" />
    <glyph glyph-name="Odieresis" unicode="&#xd6;" horiz-adv-x="782" 
d="M283 731q-31 0 -54 22.5t-23 54.5q0 33 22.5 56.5t54.5 23.5q33 0 56.5 -23.5t23.5 -56.5q0 -32 -23.5 -54.5t-56.5 -22.5zM497 731q-32 0 -55 22.5t-23 54.5q0 33 23 56.5t55 23.5q33 0 56 -23.5t23 -56.5q0 -32 -23 -54.5t-56 -22.5zM385 -20q-154 0 -248.5 94
t-94.5 245q0 160 98 259.5t258 99.5q154 0 248 -94t94 -245q0 -160 -97.5 -259.5t-257.5 -99.5zM398 114q78 0 124 57t46 151q0 100 -49.5 161t-133.5 61q-78 0 -124.5 -57t-46.5 -151q0 -100 50 -161t134 -61z" />
    <glyph glyph-name="multiply" unicode="&#xd7;" 
d="M541 437l-136 -136l136 -136l-100 -100l-136 136l-136 -136l-100 100l136 136l-136 136l100 100l136 -136l136 136z" />
    <glyph glyph-name="Oslash" unicode="&#xd8;" horiz-adv-x="786" 
d="M685 540q58 -82 58 -201q0 -160 -97.5 -259.5t-257.5 -99.5q-115 0 -200 55l-56 -57l-90 89l56 58q-53 83 -53 194q0 160 98 259.5t258 99.5q110 0 193 -50l52 53l90 -89zM388 550q-80 0 -128.5 -58.5t-48.5 -155.5q0 -54 15 -97l271 276q-46 35 -109 35zM401 108
q80 0 128 58t48 156q0 57 -17 105l-275 -279q48 -40 116 -40z" />
    <glyph glyph-name="Ugrave" unicode="&#xd9;" horiz-adv-x="757" 
d="M452 705l-226 141l85 105l200 -172zM378 -20q-141 0 -221.5 77t-80.5 210v391h164v-394q0 -68 39.5 -105t105.5 -37t106 37t40 105v394h150v-391q0 -131 -82 -209t-221 -78z" />
    <glyph glyph-name="Uacute" unicode="&#xda;" horiz-adv-x="757" 
d="M318 705l-59 74l200 172l85 -105zM378 -20q-141 0 -221.5 77t-80.5 210v391h164v-394q0 -68 39.5 -105t105.5 -37t106 37t40 105v394h150v-391q0 -131 -82 -209t-221 -78z" />
    <glyph glyph-name="Ucircumflex" unicode="&#xdb;" horiz-adv-x="757" 
d="M385 799l-125 -94l-62 72l139 146h97l138 -145l-63 -73zM531 658h150v-391q0 -131 -82 -209t-221 -78q-141 0 -221.5 77t-80.5 210v391h164v-394q0 -68 39.5 -105t105.5 -37t106 37t40 105v394z" />
    <glyph glyph-name="Udieresis" unicode="&#xdc;" horiz-adv-x="757" 
d="M277 731q-31 0 -54 22.5t-23 54.5q0 33 22.5 56.5t54.5 23.5q33 0 56.5 -23.5t23.5 -56.5q0 -32 -23.5 -54.5t-56.5 -22.5zM491 731q-32 0 -55 22.5t-23 54.5q0 33 23 56.5t55 23.5q33 0 56 -23.5t23 -56.5q0 -32 -23 -54.5t-56 -22.5zM378 -20q-141 0 -221.5 77
t-80.5 210v391h164v-394q0 -68 39.5 -105t105.5 -37t106 37t40 105v394h150v-391q0 -131 -82 -209t-221 -78z" />
    <glyph glyph-name="Yacute" unicode="&#xdd;" horiz-adv-x="672" 
d="M503 846l-226 -141l-59 74l200 172zM506 658h168l-256 -400v-258h-164v258l-256 400h184l162 -272z" />
    <glyph glyph-name="Thorn" unicode="&#xde;" horiz-adv-x="676" 
d="M368 572q125 0 198.5 -63.5t73.5 -165.5q0 -100 -73.5 -162.5t-198.5 -62.5h-120v-118h-164v658h164v-86h120zM353 252q58 0 86.5 25.5t28.5 69.5q0 42 -28.5 66.5t-86.5 24.5h-105v-186h105z" />
    <glyph glyph-name="germandbls" unicode="&#xdf;" horiz-adv-x="650" 
d="M453 -20q-55 0 -109.5 18t-89.5 44l36 102q84 -52 164 -52q34 0 34 26q0 22 -77 55l-3 1.5t-3 1t-3 1.5q-66 29 -94 53t-28 63q0 31 17.5 61.5t38.5 52t38.5 52t17.5 61.5q0 37 -21.5 57.5t-54.5 20.5q-41 0 -66.5 -31t-25.5 -83v-484h-158v447q0 123 73.5 195.5
t184.5 72.5q90 0 153.5 -46.5t63.5 -123.5q0 -37 -17.5 -70.5t-38 -53t-38 -40.5t-17.5 -37q0 -6 1.5 -10t6 -8.5t8 -7.5t12.5 -7.5t15 -7t20 -8.5t22 -10q115 -51 115 -148q0 -70 -50.5 -113.5t-126.5 -43.5z" />
    <glyph glyph-name="agrave" unicode="&#xe0;" horiz-adv-x="625" 
d="M433 601l-59 -74l-226 141l85 105zM455 472l104 25v-497h-152v62q-60 -78 -158 -78q-91 0 -154.5 66.5t-63.5 169.5q0 119 83 198.5t200 79.5q66 0 141 -26zM308 111q58 0 93 42v201q-40 24 -85 24q-52 0 -86.5 -34t-34.5 -100q0 -61 30.5 -97t82.5 -36z" />
    <glyph glyph-name="aacute" unicode="&#xe1;" horiz-adv-x="625" 
d="M466 668l-226 -141l-59 74l200 172zM455 472l104 25v-497h-152v62q-60 -78 -158 -78q-91 0 -154.5 66.5t-63.5 169.5q0 119 83 198.5t200 79.5q66 0 141 -26zM308 111q58 0 93 42v201q-40 24 -85 24q-52 0 -86.5 -34t-34.5 -100q0 -61 30.5 -97t82.5 -36z" />
    <glyph glyph-name="acircumflex" unicode="&#xe2;" horiz-adv-x="625" 
d="M307 621l-125 -94l-62 72l139 146h97l138 -145l-63 -73zM455 472l104 25v-497h-152v62q-60 -78 -158 -78q-91 0 -154.5 66.5t-63.5 169.5q0 119 83 198.5t200 79.5q66 0 141 -26zM308 111q58 0 93 42v201q-40 24 -85 24q-52 0 -86.5 -34t-34.5 -100q0 -61 30.5 -97
t82.5 -36z" />
    <glyph glyph-name="atilde" unicode="&#xe3;" horiz-adv-x="625" 
d="M243 620q-36 0 -52 -45l-79 32q23 117 110 117q33 0 81 -20.5t64 -20.5q35 0 51 45l79 -32q-23 -117 -109 -117q-33 0 -81 20.5t-64 20.5zM455 472l104 25v-497h-152v62q-60 -78 -158 -78q-91 0 -154.5 66.5t-63.5 169.5q0 119 83 198.5t200 79.5q66 0 141 -26zM308 111
q58 0 93 42v201q-40 24 -85 24q-52 0 -86.5 -34t-34.5 -100q0 -61 30.5 -97t82.5 -36z" />
    <glyph glyph-name="adieresis" unicode="&#xe4;" horiz-adv-x="625" 
d="M199 553q-31 0 -54 22.5t-23 54.5q0 33 22.5 56.5t54.5 23.5q33 0 56.5 -23.5t23.5 -56.5q0 -32 -23.5 -54.5t-56.5 -22.5zM413 553q-32 0 -55 22.5t-23 54.5q0 33 23 56.5t55 23.5q33 0 56 -23.5t23 -56.5q0 -32 -23 -54.5t-56 -22.5zM455 472l104 25v-497h-152v62
q-60 -78 -158 -78q-91 0 -154.5 66.5t-63.5 169.5q0 119 83 198.5t200 79.5q66 0 141 -26zM308 111q58 0 93 42v201q-40 24 -85 24q-52 0 -86.5 -34t-34.5 -100q0 -61 30.5 -97t82.5 -36z" />
    <glyph glyph-name="aring" unicode="&#xe5;" horiz-adv-x="625" 
d="M307 534q-50 0 -85 31.5t-35 77.5t35 77.5t85 31.5t85 -31.5t35 -77.5t-35 -77.5t-85 -31.5zM307 685q-18 0 -30 -12t-12 -30q0 -19 12 -30.5t30 -11.5t30 11.5t12 30.5q0 18 -12 30t-30 12zM455 472l104 25v-497h-152v62q-60 -78 -158 -78q-91 0 -154.5 66.5
t-63.5 169.5q0 119 83 198.5t200 79.5q66 0 141 -26zM308 111q58 0 93 42v201q-40 24 -85 24q-52 0 -86.5 -34t-34.5 -100q0 -61 30.5 -97t82.5 -36z" />
    <glyph glyph-name="ae" unicode="&#xe6;" horiz-adv-x="921" 
d="M834 147l54 -79q-103 -88 -243 -88q-136 0 -209 89q-86 -84 -213 -84q-86 0 -141.5 44t-55.5 115q0 72 53.5 118.5t136.5 46.5q84 0 167 -43v43q0 34 -21 50.5t-72 16.5q-87 0 -193 -28l-22 112q123 41 226 41q127 0 176 -66q68 65 178 65q100 0 164 -60.5t64 -156.5
q0 -48 -16 -85h-345q29 -96 157 -96q77 0 155 45zM645 391q-41 0 -75.5 -22.5t-48.5 -65.5h224q-5 40 -31 64t-69 24zM258 95q34 0 70 20t63 52q-67 46 -134 46q-35 0 -55.5 -16t-20.5 -43t21.5 -43t55.5 -16z" />
    <glyph glyph-name="ccedilla" unicode="&#xe7;" horiz-adv-x="530" 
d="M351 -37q96 0 96 -74q0 -46 -39.5 -72.5t-103.5 -26.5q-71 0 -117 22l23 68q41 -17 93 -17q51 0 51 20q0 18 -54 18q-31 0 -43 -5l-29 31l23 56q-100 13 -160 79.5t-60 165.5q0 119 81 195.5t198 76.5q88 0 168 -40v-136q-66 50 -147 50q-62 0 -100 -35.5t-38 -93.5
q0 -61 36 -96.5t98 -35.5q68 0 135 44l58 -88q-77 -74 -190 -87l-8 -19h29z" />
    <glyph glyph-name="egrave" unicode="&#xe8;" horiz-adv-x="590" 
d="M439 601l-59 -74l-226 141l85 105zM503 147l54 -79q-103 -88 -243 -88q-126 0 -204.5 68t-78.5 181q0 116 81.5 193.5t202.5 77.5q106 0 171.5 -60t65.5 -157q0 -48 -16 -85h-345q29 -96 157 -96q77 0 155 45zM314 391q-41 0 -75.5 -22.5t-48.5 -65.5h224q-5 40 -31 64
t-69 24z" />
    <glyph glyph-name="eacute" unicode="&#xe9;" horiz-adv-x="590" 
d="M472 668l-226 -141l-59 74l200 172zM503 147l54 -79q-103 -88 -243 -88q-126 0 -204.5 68t-78.5 181q0 116 81.5 193.5t202.5 77.5q106 0 171.5 -60t65.5 -157q0 -48 -16 -85h-345q29 -96 157 -96q77 0 155 45zM314 391q-41 0 -75.5 -22.5t-48.5 -65.5h224q-5 40 -31 64
t-69 24z" />
    <glyph glyph-name="ecircumflex" unicode="&#xea;" horiz-adv-x="590" 
d="M313 621l-125 -94l-62 72l139 146h97l138 -145l-63 -73zM503 147l54 -79q-103 -88 -243 -88q-126 0 -204.5 68t-78.5 181q0 116 81.5 193.5t202.5 77.5q106 0 171.5 -60t65.5 -157q0 -48 -16 -85h-345q29 -96 157 -96q77 0 155 45zM314 391q-41 0 -75.5 -22.5
t-48.5 -65.5h224q-5 40 -31 64t-69 24z" />
    <glyph glyph-name="edieresis" unicode="&#xeb;" horiz-adv-x="590" 
d="M205 553q-31 0 -54 22.5t-23 54.5q0 33 22.5 56.5t54.5 23.5q33 0 56.5 -23.5t23.5 -56.5q0 -32 -23.5 -54.5t-56.5 -22.5zM419 553q-32 0 -55 22.5t-23 54.5q0 33 23 56.5t55 23.5q33 0 56 -23.5t23 -56.5q0 -32 -23 -54.5t-56 -22.5zM503 147l54 -79q-103 -88 -243 -88
q-126 0 -204.5 68t-78.5 181q0 116 81.5 193.5t202.5 77.5q106 0 171.5 -60t65.5 -157q0 -48 -16 -85h-345q29 -96 157 -96q77 0 155 45zM314 391q-41 0 -75.5 -22.5t-48.5 -65.5h224q-5 40 -31 64t-69 24z" />
    <glyph glyph-name="igrave" unicode="&#xec;" horiz-adv-x="287" 
d="M210 527l-226 141l85 105l200 -172zM64 0v465l157 32v-497h-157z" />
    <glyph glyph-name="iacute" unicode="&#xed;" horiz-adv-x="287" 
d="M76 527l-59 74l200 172l85 -105zM64 0v465l157 32v-497h-157z" />
    <glyph glyph-name="icircumflex" unicode="&#xee;" horiz-adv-x="287" 
d="M192 745l138 -145l-63 -73l-124 94l-125 -94l-62 72l139 146h97zM64 0v465l157 32v-497h-157z" />
    <glyph glyph-name="idieresis" unicode="&#xef;" horiz-adv-x="287" 
d="M35 553q-31 0 -54 22.5t-23 54.5q0 33 22.5 56.5t54.5 23.5q33 0 56.5 -23.5t23.5 -56.5q0 -32 -23.5 -54.5t-56.5 -22.5zM249 553q-32 0 -55 22.5t-23 54.5q0 33 23 56.5t55 23.5q33 0 56 -23.5t23 -56.5q0 -32 -23 -54.5t-56 -22.5zM64 0v465l157 32v-497h-157z" />
    <glyph glyph-name="eth" unicode="&#xf0;" horiz-adv-x="624" 
d="M463 599q124 -114 124 -287q0 -150 -83 -241t-216 -91q-116 0 -187 67.5t-71 170.5q0 95 64.5 158t161.5 63q46 0 93.5 -18t77.5 -51q-13 104 -74 160l-115 -72l-55 85l66 42q-53 15 -120 18v113q133 5 243 -53l107 67l57 -85zM309 117q47 0 77.5 33.5t40.5 93.5
q-25 40 -62 59t-74 19q-41 0 -70.5 -24.5t-29.5 -70.5q0 -51 33 -80.5t85 -29.5z" />
    <glyph glyph-name="ntilde" unicode="&#xf1;" horiz-adv-x="633" 
d="M286 620q-36 0 -52 -45l-79 32q23 117 110 117q33 0 81 -20.5t64 -20.5q35 0 51 45l79 -32q-23 -117 -109 -117q-33 0 -81 20.5t-64 20.5zM392 496q80 0 131 -53.5t51 -153.5v-289h-158v240q0 124 -86 124q-60 0 -108 -57v-307h-158v465l152 32v-80q32 38 79 58.5
t97 20.5z" />
    <glyph glyph-name="ograve" unicode="&#xf2;" horiz-adv-x="625" 
d="M383 527l-226 141l85 105l200 -172zM308 -20q-119 0 -198.5 72t-79.5 180q0 115 82 191.5t205 76.5q119 0 198.5 -72.5t79.5 -180.5q0 -114 -82 -190.5t-205 -76.5zM317 98q54 0 85 36.5t31 98.5q0 69 -33.5 109t-91.5 40q-54 0 -85 -36.5t-31 -99.5q0 -68 33.5 -108
t91.5 -40z" />
    <glyph glyph-name="oacute" unicode="&#xf3;" horiz-adv-x="625" 
d="M249 527l-59 74l200 172l85 -105zM308 -20q-119 0 -198.5 72t-79.5 180q0 115 82 191.5t205 76.5q119 0 198.5 -72.5t79.5 -180.5q0 -114 -82 -190.5t-205 -76.5zM317 98q54 0 85 36.5t31 98.5q0 69 -33.5 109t-91.5 40q-54 0 -85 -36.5t-31 -99.5q0 -68 33.5 -108
t91.5 -40z" />
    <glyph glyph-name="ocircumflex" unicode="&#xf4;" horiz-adv-x="625" 
d="M316 621l-125 -94l-62 72l139 146h97l138 -145l-63 -73zM317 500q119 0 198.5 -72.5t79.5 -180.5q0 -114 -82 -190.5t-205 -76.5q-119 0 -198.5 72t-79.5 180q0 115 82 191.5t205 76.5zM317 98q54 0 85 36.5t31 98.5q0 69 -33.5 109t-91.5 40q-54 0 -85 -36.5t-31 -99.5
q0 -68 33.5 -108t91.5 -40z" />
    <glyph glyph-name="otilde" unicode="&#xf5;" horiz-adv-x="625" 
d="M200 575l-79 32q23 117 110 117q33 0 81 -20.5t64 -20.5q35 0 51 45l79 -32q-23 -117 -109 -117q-33 0 -81 20.5t-64 20.5q-36 0 -52 -45zM308 -20q-119 0 -198.5 72t-79.5 180q0 115 82 191.5t205 76.5q119 0 198.5 -72.5t79.5 -180.5q0 -114 -82 -190.5t-205 -76.5z
M317 98q54 0 85 36.5t31 98.5q0 69 -33.5 109t-91.5 40q-54 0 -85 -36.5t-31 -99.5q0 -68 33.5 -108t91.5 -40z" />
    <glyph glyph-name="odieresis" unicode="&#xf6;" horiz-adv-x="625" 
d="M208 553q-32 0 -54.5 22.5t-22.5 54.5q0 33 22.5 56.5t54.5 23.5q33 0 56.5 -23.5t23.5 -56.5q0 -32 -23.5 -54.5t-56.5 -22.5zM422 553q-32 0 -55 22.5t-23 54.5q0 33 23 56.5t55 23.5q33 0 56 -23.5t23 -56.5q0 -32 -23 -54.5t-56 -22.5zM308 -20q-119 0 -198.5 72
t-79.5 180q0 115 82 191.5t205 76.5q119 0 198.5 -72.5t79.5 -180.5q0 -114 -82 -190.5t-205 -76.5zM317 98q54 0 85 36.5t31 98.5q0 69 -33.5 109t-91.5 40q-54 0 -85 -36.5t-31 -99.5q0 -68 33.5 -108t91.5 -40z" />
    <glyph glyph-name="divide" unicode="&#xf7;" 
d="M305 413q-35 0 -59 22.5t-24 55.5t24 55.5t59 22.5t59 -22.5t24 -55.5t-24 -55.5t-59 -22.5zM56 227v147h498v-147h-498zM305 28q-35 0 -59 22.5t-24 55.5t24 55.5t59 22.5t59 -22.5t24 -55.5t-24 -55.5t-59 -22.5z" />
    <glyph glyph-name="oslash" unicode="&#xf8;" horiz-adv-x="627" 
d="M550 389q46 -63 46 -142q0 -114 -82 -190.5t-205 -76.5q-77 0 -141 33l-46 -47l-88 83l42 41q-45 64 -45 142q0 115 82 191.5t205 76.5q77 0 141 -33l46 47l88 -83zM309 388q-57 0 -91 -38t-34 -104q0 -27 7 -57l186 182q-29 17 -68 17zM318 92q57 0 91 37.5t34 103.5
q0 32 -7 56l-185 -180q29 -17 67 -17z" />
    <glyph glyph-name="ugrave" unicode="&#xf9;" horiz-adv-x="627" 
d="M423 601l-59 -74l-226 141l85 105zM403 465l158 32v-497h-152v63q-68 -77 -174 -77q-79 0 -129.5 53.5t-50.5 153.5v272l158 32v-255q0 -124 84 -124q61 0 106 54v293z" />
    <glyph glyph-name="uacute" unicode="&#xfa;" horiz-adv-x="627" 
d="M456 668l-226 -141l-59 74l200 172zM403 465l158 32v-497h-152v63q-68 -77 -174 -77q-79 0 -129.5 53.5t-50.5 153.5v272l158 32v-255q0 -124 84 -124q61 0 106 54v293z" />
    <glyph glyph-name="ucircumflex" unicode="&#xfb;" horiz-adv-x="627" 
d="M297 621l-125 -94l-62 72l139 146h97l138 -145l-63 -73zM403 465l158 32v-497h-152v63q-68 -77 -174 -77q-79 0 -129.5 53.5t-50.5 153.5v272l158 32v-255q0 -124 84 -124q61 0 106 54v293z" />
    <glyph glyph-name="udieresis" unicode="&#xfc;" horiz-adv-x="627" 
d="M189 553q-31 0 -54 22.5t-23 54.5q0 33 22.5 56.5t54.5 23.5q33 0 56.5 -23.5t23.5 -56.5q0 -32 -23.5 -54.5t-56.5 -22.5zM403 553q-32 0 -55 22.5t-23 54.5q0 33 23 56.5t55 23.5q33 0 56 -23.5t23 -56.5q0 -32 -23 -54.5t-56 -22.5zM403 465l158 32v-497h-152v63
q-68 -77 -174 -77q-79 0 -129.5 53.5t-50.5 153.5v272l158 32v-255q0 -124 84 -124q61 0 106 54v293z" />
    <glyph glyph-name="yacute" unicode="&#xfd;" horiz-adv-x="555" 
d="M443 668l-226 -141l-59 74l200 172zM401 480h155l-288 -680h-154l94 201l-210 479h169l118 -302z" />
    <glyph glyph-name="thorn" unicode="&#xfe;" horiz-adv-x="629" 
d="M375 501q91 0 157 -69t66 -183q0 -120 -80 -194.5t-209 -74.5q-42 0 -85 10v-190h-158v874l158 32v-263q68 58 151 58zM320 101q55 0 84.5 32.5t29.5 89.5q0 70 -34 110.5t-96 40.5q-47 0 -80 -30v-210q44 -33 96 -33z" />
    <glyph glyph-name="ydieresis" unicode="&#xff;" horiz-adv-x="555" 
d="M176 553q-32 0 -54.5 22.5t-22.5 54.5q0 33 22.5 56.5t54.5 23.5q33 0 56.5 -23.5t23.5 -56.5q0 -32 -23.5 -54.5t-56.5 -22.5zM390 553q-32 0 -55 22.5t-23 54.5q0 33 23 56.5t55 23.5q33 0 56 -23.5t23 -56.5q0 -32 -23 -54.5t-56 -22.5zM401 480h155l-288 -680h-154
l94 201l-210 479h169l118 -302z" />
    <glyph glyph-name="dotlessi" unicode="&#x131;" horiz-adv-x="287" 
d="M64 0v465l157 32v-497h-157z" />
    <glyph glyph-name="Lslash" unicode="&#x141;" horiz-adv-x="635" 
d="M288 134h331v-134h-495v210l-66 -28l-53 123l119 51v302h164v-232l126 54l53 -123l-179 -77v-146z" />
    <glyph glyph-name="lslash" unicode="&#x142;" horiz-adv-x="442" 
d="M441 343l-136 -60v-283h-158v213l-79 -35l-51 127l130 57v312l158 32v-275l80 35z" />
    <glyph glyph-name="OE" unicode="&#x152;" horiz-adv-x="1083" 
d="M1038 129v-130l-510 1q-60 -20 -128 -20q-151 0 -255 92t-104 247q0 157 106.5 258t265.5 101q71 0 132 -21h481v-129h-339v-133h284v-129h-284v-137h351zM213 336q0 -96 56 -159t144 -63q62 0 110 27v371q-53 32 -123 32q-84 0 -135.5 -57.5t-51.5 -150.5z" />
    <glyph glyph-name="oe" unicode="&#x153;" horiz-adv-x="970" 
d="M884 147l53 -79q-97 -88 -234 -88q-126 0 -196 83q-75 -83 -205 -83q-115 0 -193 68t-78 184q0 118 80 193t204 75q121 0 194 -91q74 91 192 91q103 0 167 -61t64 -156q0 -48 -16 -85h-327q16 -46 55 -71t94 -25q73 0 146 45zM703 391q-38 0 -70 -22.5t-45 -65.5h206
q-4 41 -27.5 64.5t-63.5 23.5zM315 98q46 0 79.5 35.5t33.5 99.5q0 66 -35.5 107.5t-86.5 41.5q-46 0 -79.5 -35.5t-33.5 -100.5q0 -66 35.5 -107t86.5 -41z" />
    <glyph glyph-name="Scaron" unicode="&#x160;" horiz-adv-x="659" 
d="M371 744h-97l-138 145l63 73l124 -94l125 94l62 -72zM382 399q41 -9 67 -16t62.5 -23t58 -35.5t37 -52t15.5 -73.5q0 -99 -76.5 -159t-201.5 -60q-82 0 -167 26t-146 66l48 115q146 -73 268 -73q112 0 112 62q0 29 -30 41t-122 28q-127 22 -190 71t-63 134
q0 101 80.5 164.5t205.5 63.5q61 0 129 -15.5t115 -40.5v-150q-110 72 -234 72q-61 0 -97 -19t-36 -52q0 -8 2 -14t7 -11.5t10 -9.5t15 -7.5t18 -6.5t23 -6t26 -5.5t30.5 -6.5t33.5 -7z" />
    <glyph glyph-name="scaron" unicode="&#x161;" horiz-adv-x="544" 
d="M331 549h-97l-138 145l63 73l124 -94l125 94l62 -72zM284 309q40 -6 66 -11t60.5 -16.5t54.5 -27.5t34.5 -43t14.5 -62q0 -78 -61.5 -123.5t-169.5 -45.5q-72 0 -141.5 19.5t-116.5 48.5l41 94q98 -51 213 -51q90 0 90 41q0 18 -18 24.5t-66 12.5q-17 2 -27 3
q-51 7 -87 17t-67.5 27t-47.5 45t-16 66q0 81 63 127t173 46q107 0 201 -40v-119q-37 23 -92 36.5t-107 13.5q-93 0 -93 -42q0 -19 20.5 -25.5t78.5 -14.5z" />
    <glyph glyph-name="Ydieresis" unicode="&#x178;" horiz-adv-x="672" 
d="M236 731q-32 0 -54.5 22.5t-22.5 54.5q0 33 22.5 56.5t54.5 23.5q33 0 56.5 -23.5t23.5 -56.5q0 -32 -23.5 -54.5t-56.5 -22.5zM450 731q-32 0 -55 22.5t-23 54.5q0 33 23 56.5t55 23.5q33 0 56 -23.5t23 -56.5q0 -32 -23 -54.5t-56 -22.5zM506 658h168l-256 -400v-258
h-164v258l-256 400h184l162 -272z" />
    <glyph glyph-name="Zcaron" unicode="&#x17d;" horiz-adv-x="656" 
d="M374 727h-97l-138 145l63 73l124 -94l125 94l62 -72zM255 130h358v-130h-569v124l352 404h-342v130h549v-120z" />
    <glyph glyph-name="zcaron" unicode="&#x17e;" horiz-adv-x="546" 
d="M321 549h-97l-138 145l63 73l124 -94l125 94l62 -72zM253 122h256v-122h-472v116l247 242h-239v122h456v-116z" />
    <glyph glyph-name="florin" unicode="&#x192;" 
d="M469 582q-83 0 -98 -84l-3 -17h179v-135h-199l-60 -357q-18 -107 -77 -161t-171 -54q-39 0 -87.5 8.5t-72.5 21.5l34 122q67 -19 118 -19q83 0 98 84l61 355h-99v135h119l3 19q15 107 75 161t173 54q38 0 87 -8.5t73 -21.5l-34 -122q-67 19 -119 19z" />
    <glyph glyph-name="circumflex" unicode="&#x2c6;" horiz-adv-x="471" 
d="M422 600l-63 -73l-124 94l-125 -94l-62 72l139 146h97z" />
    <glyph glyph-name="caron" unicode="&#x2c7;" horiz-adv-x="471" 
d="M360 767l62 -72l-139 -146h-97l-138 145l63 73l124 -94z" />
    <glyph glyph-name="breve" unicode="&#x2d8;" horiz-adv-x="456" 
d="M227 547q-80 0 -127 49.5t-53 144.5h121q9 -89 67 -89q63 0 72 89h102q-7 -94 -56 -144t-126 -50z" />
    <glyph glyph-name="dotaccent" unicode="&#x2d9;" horiz-adv-x="412" 
d="M206 551q-41 0 -69.5 28t-28.5 68t29 68.5t69 28.5t69 -28.5t29 -68.5t-28.5 -68t-69.5 -28z" />
    <glyph glyph-name="ring" unicode="&#x2da;" horiz-adv-x="261" 
d="M250 643q0 -46 -35 -77.5t-85 -31.5t-85 31.5t-35 77.5t35 77.5t85 31.5t85 -31.5t35 -77.5zM130 601q18 0 30 11.5t12 30.5q0 18 -12 30t-30 12t-30 -12t-12 -30q0 -19 12 -30.5t30 -11.5z" />
    <glyph glyph-name="ogonek" unicode="&#x2db;" horiz-adv-x="392" 
d="M216 -202q-65 0 -100.5 26.5t-35.5 68.5q0 51 55 89.5t156 55.5l34 -56q-121 -24 -121 -63q0 -13 12.5 -21.5t32.5 -8.5q35 0 67 21l37 -74q-57 -38 -137 -38z" />
    <glyph glyph-name="tilde" unicode="&#x2dc;" horiz-adv-x="458" 
d="M115 575l-79 32q23 117 110 117q33 0 81 -20.5t64 -20.5q35 0 51 45l79 -32q-23 -117 -109 -117q-33 0 -81 20.5t-64 20.5q-36 0 -52 -45z" />
    <glyph glyph-name="hungarumlaut" unicode="&#x2dd;" horiz-adv-x="534" 
d="M102 508l-70 65l156 204l103 -95zM320 508l-69 65l155 203l103 -93z" />
    <glyph glyph-name="uni0394" unicode="&#x394;" horiz-adv-x="634" 
d="M399 658l228 -658h-620l228 658h164zM199 134h220l-110 326z" />
    <glyph glyph-name="uni03A9" unicode="&#x3a9;" horiz-adv-x="714" 
d="M556 138h100v-138h-265v109q78 118 78 246q0 86 -30.5 137.5t-83.5 51.5q-51 0 -80.5 -48.5t-29.5 -135.5q0 -139 78 -251v-109h-265v138h99q-84 81 -84 227q0 131 75 222t214 91q135 0 207 -86.5t72 -214.5q0 -152 -85 -239z" />
    <glyph glyph-name="pi" unicode="&#x3c0;" horiz-adv-x="631" 
d="M596 340h-78v-59q0 -85 8 -141.5t32 -139.5h-164q-33 98 -33 302v38l-93 1v-341h-158v341h-73v140l559 -1v-140z" />
    <glyph glyph-name="endash" unicode="&#x2013;" horiz-adv-x="678" 
d="M58 186v135h562v-135h-562z" />
    <glyph glyph-name="emdash" unicode="&#x2014;" horiz-adv-x="916" 
d="M58 186v135h800v-135h-800z" />
    <glyph glyph-name="quoteleft" unicode="&#x2018;" horiz-adv-x="282" 
d="M152 671l98 -58q-45 -76 -45 -200v-67h-155v70q0 151 102 255z" />
    <glyph glyph-name="quoteright" unicode="&#x2019;" horiz-adv-x="269" 
d="M129 337l-98 58q45 76 45 200v67h155v-70q0 -151 -102 -255z" />
    <glyph glyph-name="quotesinglbase" unicode="&#x201a;" horiz-adv-x="276" 
d="M115 -155l-98 58q45 76 45 200v67h155v-70q0 -151 -102 -255z" />
    <glyph glyph-name="quotedblleft" unicode="&#x201c;" horiz-adv-x="507" 
d="M152 671l98 -58q-45 -76 -45 -200v-67h-155v70q0 151 102 255zM377 671l98 -58q-45 -76 -45 -200v-67h-155v70q0 151 102 255z" />
    <glyph glyph-name="quotedblright" unicode="&#x201d;" horiz-adv-x="494" 
d="M129 337l-98 58q45 76 45 200v67h155v-70q0 -151 -102 -255zM354 337l-98 58q45 76 45 200v67h155v-70q0 -151 -102 -255z" />
    <glyph glyph-name="quotedblbase" unicode="&#x201e;" horiz-adv-x="501" 
d="M115 -155l-98 58q45 76 45 200v67h155v-70q0 -151 -102 -255zM340 -155l-98 58q45 76 45 200v67h155v-70q0 -151 -102 -255z" />
    <glyph glyph-name="dagger" unicode="&#x2020;" 
d="M368 703v-206h177v-116h-177v-513h-126v513h-177v116h177v206h126z" />
    <glyph glyph-name="daggerdbl" unicode="&#x2021;" 
d="M545 381h-177v-191h177v-116h-177v-206h-126v206h-177v116h177v191h-177v116h177v206h126v-206h177v-116z" />
    <glyph glyph-name="bullet" unicode="&#x2022;" horiz-adv-x="469" 
d="M235 86q-71 0 -121 50t-50 121t50 121t121 50q70 0 120 -50t50 -121t-50 -121t-120 -50z" />
    <glyph glyph-name="ellipsis" unicode="&#x2026;" horiz-adv-x="942" 
d="M139 -8q-41 0 -69.5 28t-28.5 68t29 68.5t69 28.5t69 -28.5t29 -68.5t-28.5 -68t-69.5 -28zM471 -8q-41 0 -69.5 28t-28.5 68t29 68.5t69 28.5t69 -28.5t29 -68.5t-28.5 -68t-69.5 -28zM803 -8q-41 0 -69.5 28t-28.5 68t29 68.5t69 28.5t69 -28.5t29 -68.5t-28.5 -68
t-69.5 -28z" />
    <glyph glyph-name="perthousand" unicode="&#x2030;" horiz-adv-x="1206" 
d="M194 298q-72 0 -116.5 50.5t-44.5 135.5q0 89 46 141.5t119 52.5q72 0 116.5 -50.5t44.5 -135.5q0 -89 -46 -141.5t-119 -52.5zM90 0l527 658h133l-528 -658h-132zM198 390q45 0 45 91q0 49 -13 77t-36 28q-45 0 -45 -91q0 -49 13 -77t36 -28zM643 -20q-72 0 -116.5 50.5
t-44.5 135.5q0 89 46 141.5t119 52.5q72 0 116.5 -50.5t44.5 -135.5q0 -89 -46 -141.5t-119 -52.5zM1011 -20q-72 0 -116.5 50.5t-44.5 135.5q0 89 46 141.5t119 52.5q72 0 116.5 -50.5t44.5 -135.5q0 -89 -46 -141.5t-119 -52.5zM647 72q45 0 45 91q0 49 -13 77t-36 28
q-45 0 -45 -91q0 -49 13 -77t36 -28zM1015 72q45 0 45 91q0 49 -13 77t-36 28q-45 0 -45 -91q0 -49 13 -77t36 -28z" />
    <glyph glyph-name="guilsinglleft" unicode="&#x2039;" horiz-adv-x="379" 
d="M345 381l-175 -143l175 -143l-70 -83l-245 198v56l245 198z" />
    <glyph glyph-name="guilsinglright" unicode="&#x203a;" horiz-adv-x="379" 
d="M104 464l245 -198v-56l-245 -198l-70 83l175 143l-175 143z" />
    <glyph glyph-name="fraction" unicode="&#x2044;" horiz-adv-x="604" 
d="M-27 0l527 658h133l-528 -658h-132z" />
    <glyph glyph-name="uni2074" unicode="&#x2074;" horiz-adv-x="466" 
d="M425 393v-96h-62v-67h-122v67h-205v95l218 271h109v-270h62zM242 393l6 124l-99 -124h93z" />
    <glyph glyph-name="Euro" unicode="&#x20ac;" 
d="M541 186l67 -95q-46 -50 -110.5 -80.5t-138.5 -30.5q-105 0 -178 62t-98 168h-70v92h58v12q0 24 1 35h-59v92h75q30 107 106.5 171.5t178.5 64.5q97 0 178 -53v-152q-79 68 -165 68q-94 0 -126 -99h216v-92h-231v-19q0 -19 1 -28h193v-92h-175q34 -86 124 -86
q83 0 153 62z" />
    <glyph glyph-name="trademark" unicode="&#x2122;" horiz-adv-x="794" 
d="M32 580v78h307v-78h-106v-252h-95v252h-106zM637 658h85v-330h-94v179l-49 -74h-49l-57 75v-180h-87v330h87l87 -116z" />
    <glyph glyph-name="partialdiff" unicode="&#x2202;" 
d="M295 673q125 0 203 -87.5t78 -236.5q0 -174 -86.5 -268.5t-224.5 -94.5q-107 0 -170 61t-63 158q0 111 69.5 171.5t170.5 60.5q86 0 139 -55q-15 163 -149 163q-56 0 -116 -20l-29 113q84 35 178 35zM276 120q109 0 131 150q-42 45 -96 45q-52 0 -85 -33t-33 -81
q0 -36 22 -58.5t61 -22.5z" />
    <glyph glyph-name="product" unicode="&#x220f;" 
d="M603 658v-148h-74v-610h-158v610h-132v-610h-158v610h-74v148h596z" />
    <glyph glyph-name="summation" unicode="&#x2211;" 
d="M230 38h338v-138h-518v123l180 249l-166 255v131h492v-130h-306l163 -244z" />
    <glyph glyph-name="minus" unicode="&#x2212;" 
d="M56 227v147h498v-147h-498z" />
    <glyph glyph-name="radical" unicode="&#x221a;" 
d="M481 658h140l-221 -658h-177l-92 328l-32 -98l-95 23l48 182h205l68 -275z" />
    <glyph glyph-name="infinity" unicode="&#x221e;" 
d="M450 528q68 0 106 -54.5t38 -147.5q0 -86 -44 -144.5t-115 -58.5q-94 0 -143 99q-19 -47 -53.5 -73t-78.5 -26q-68 0 -106 54.5t-38 146.5q0 87 44 145.5t115 58.5q94 0 143 -99q19 47 53.5 73t78.5 26zM197 248q40 0 62 55q-27 100 -74 100q-19 0 -29.5 -22.5
t-10.5 -50.5q0 -33 13 -57.5t39 -24.5zM425 248q19 0 29.5 22.5t10.5 49.5q0 34 -13 58.5t-39 24.5q-38 0 -62 -55q26 -100 74 -100z" />
    <glyph glyph-name="integral" unicode="&#x222b;" 
d="M440 715q83 0 149 -29l-29 -122q-66 20 -111 20q-32 0 -51.5 -22t-18.5 -64l16 -490q4 -108 -54 -162.5t-171 -54.5q-83 0 -149 29l29 122q66 -20 111 -20q32 0 51.5 22t18.5 64l-16 490q-4 108 54 162.5t171 54.5z" />
    <glyph glyph-name="approxequal" unicode="&#x2248;" 
d="M421 255q-43 0 -118 36t-101 36q-29 0 -47 -16.5t-28 -53.5l-88 44q9 60 46.5 103t102.5 43q44 0 118.5 -36t101.5 -36q29 0 47 16.5t28 53.5l88 -44q-9 -60 -47 -103t-103 -43zM421 36q-43 0 -118 36t-101 36q-29 0 -47 -16.5t-28 -53.5l-88 44q9 60 46.5 103t102.5 43
q44 0 118.5 -36t101.5 -36q29 0 47 16.5t28 53.5l88 -44q-9 -60 -47 -103t-103 -43z" />
    <glyph glyph-name="notequal" unicode="&#x2260;" 
d="M546 347h-150l-43 -93h193v-142h-258l-49 -108h-144l49 108h-80v142h145l43 93h-188v142h252l52 113h144l-52 -113h86v-142z" />
    <glyph glyph-name="lessequal" unicode="&#x2264;" 
d="M520 575v-139l-286 -75l286 -75v-139l-439 155v118zM71 0v127h449v-127h-449z" />
    <glyph glyph-name="greaterequal" unicode="&#x2265;" 
d="M529 420v-118l-439 -155v139l286 75l-286 75v139zM90 127h449v-127h-449v127z" />
    <glyph glyph-name="lozenge" unicode="&#x25ca;" 
d="M324 678l260 -349l-260 -349h-38l-260 349l260 349h38zM305 504l-122 -175l122 -175l122 175z" />
    <glyph glyph-name="NULL" horiz-adv-x="0" 
 />
    <glyph glyph-name="a.ss01" horiz-adv-x="606" 
d="M307 501q123 0 181 -48.5t58 -145.5v-307h-152v49q-75 -64 -174 -64q-83 0 -139 44.5t-56 114.5q0 72 55 118.5t140 46.5q84 0 172 -43v43q0 34 -22 50.5t-74 16.5q-91 0 -198 -28l-22 112q125 41 231 41zM261 95q36 0 73 20t65 52q-69 46 -139 46q-37 0 -58 -16t-21 -43
t22.5 -43t57.5 -16z" />
    <glyph glyph-name="aacute.ss01" horiz-adv-x="606" 
d="M457 668l-226 -141l-59 74l200 172zM307 501q123 0 181 -48.5t58 -145.5v-307h-152v49q-75 -64 -174 -64q-83 0 -139 44.5t-56 114.5q0 72 55 118.5t140 46.5q84 0 172 -43v43q0 34 -22 50.5t-74 16.5q-91 0 -198 -28l-22 112q125 41 231 41zM261 95q36 0 73 20t65 52
q-69 46 -139 46q-37 0 -58 -16t-21 -43t22.5 -43t57.5 -16z" />
    <glyph glyph-name="acircumflex.ss01" horiz-adv-x="606" 
d="M298 621l-125 -94l-62 72l139 146h97l138 -145l-63 -73zM307 501q123 0 181 -48.5t58 -145.5v-307h-152v49q-75 -64 -174 -64q-83 0 -139 44.5t-56 114.5q0 72 55 118.5t140 46.5q84 0 172 -43v43q0 34 -22 50.5t-74 16.5q-91 0 -198 -28l-22 112q125 41 231 41zM261 95
q36 0 73 20t65 52q-69 46 -139 46q-37 0 -58 -16t-21 -43t22.5 -43t57.5 -16z" />
    <glyph glyph-name="adieresis.ss01" horiz-adv-x="606" 
d="M190 553q-32 0 -54.5 22.5t-22.5 54.5q0 33 22.5 56.5t54.5 23.5q33 0 56.5 -23.5t23.5 -56.5q0 -32 -23.5 -54.5t-56.5 -22.5zM404 553q-32 0 -55 22.5t-23 54.5q0 33 23 56.5t55 23.5q33 0 56 -23.5t23 -56.5q0 -32 -23 -54.5t-56 -22.5zM307 501q123 0 181 -48.5
t58 -145.5v-307h-152v49q-75 -64 -174 -64q-83 0 -139 44.5t-56 114.5q0 72 55 118.5t140 46.5q84 0 172 -43v43q0 34 -22 50.5t-74 16.5q-91 0 -198 -28l-22 112q125 41 231 41zM261 95q36 0 73 20t65 52q-69 46 -139 46q-37 0 -58 -16t-21 -43t22.5 -43t57.5 -16z" />
    <glyph glyph-name="agrave.ss01" horiz-adv-x="606" 
d="M424 601l-59 -74l-226 141l85 105zM307 501q123 0 181 -48.5t58 -145.5v-307h-152v49q-75 -64 -174 -64q-83 0 -139 44.5t-56 114.5q0 72 55 118.5t140 46.5q84 0 172 -43v43q0 34 -22 50.5t-74 16.5q-91 0 -198 -28l-22 112q125 41 231 41zM261 95q36 0 73 20t65 52
q-69 46 -139 46q-37 0 -58 -16t-21 -43t22.5 -43t57.5 -16z" />
    <glyph glyph-name="aring.ss01" horiz-adv-x="606" 
d="M298 534q-50 0 -85 31.5t-35 77.5t35 77.5t85 31.5t85 -31.5t35 -77.5t-35 -77.5t-85 -31.5zM298 685q-18 0 -30 -12t-12 -30q0 -19 12 -30.5t30 -11.5t30 11.5t12 30.5q0 18 -12 30t-30 12zM307 501q123 0 181 -48.5t58 -145.5v-307h-152v49q-75 -64 -174 -64
q-83 0 -139 44.5t-56 114.5q0 72 55 118.5t140 46.5q84 0 172 -43v43q0 34 -22 50.5t-74 16.5q-91 0 -198 -28l-22 112q125 41 231 41zM261 95q36 0 73 20t65 52q-69 46 -139 46q-37 0 -58 -16t-21 -43t22.5 -43t57.5 -16z" />
    <glyph glyph-name="atilde.ss01" horiz-adv-x="606" 
d="M234 620q-36 0 -52 -45l-79 32q23 117 110 117q33 0 81 -20.5t64 -20.5q35 0 51 45l79 -32q-23 -117 -109 -117q-33 0 -81 20.5t-64 20.5zM307 501q123 0 181 -48.5t58 -145.5v-307h-152v49q-75 -64 -174 -64q-83 0 -139 44.5t-56 114.5q0 72 55 118.5t140 46.5
q84 0 172 -43v43q0 34 -22 50.5t-74 16.5q-91 0 -198 -28l-22 112q125 41 231 41zM261 95q36 0 73 20t65 52q-69 46 -139 46q-37 0 -58 -16t-21 -43t22.5 -43t57.5 -16z" />
    <glyph glyph-name="caron.ss01" horiz-adv-x="244" 
d="M70 567q0 114 -1 123q-3 28 14.5 47.5t52.5 19.5q33 0 49 -15.5t16 -39.5q0 -21 -11.5 -64.5t-21.5 -69.5q-19 -45 -53 -45q-21 0 -33 12.5t-12 31.5z" />
    </font>
</defs>
</svg>
