<svg width="54" height="37" viewBox="0 0 54 37" fill="none" xmlns="http://www.w3.org/2000/svg">
<path d="M2 10L20.7047 25.899C21.4516 26.5338 22.5484 26.5338 23.2953 25.899L42 10" stroke="#39403E" stroke-width="2.5" stroke-linecap="square" stroke-linejoin="round"/>
<mask id="path-2-inside-1_24_18" fill="white">
<rect y="7" width="45" height="30" rx="2"/>
</mask>
<rect y="7" width="45" height="30" rx="2" stroke="#39403E" stroke-width="5" mask="url(#path-2-inside-1_24_18)"/>
<rect x="26" width="28" height="17" rx="8" fill="#E00401"/>
<path d="M43.0078 6.28906C43.0078 6.74023 42.9167 7.13216 42.7344 7.46484C42.5521 7.79753 42.3014 8.07096 41.9824 8.28516C41.668 8.49479 41.3034 8.64518 40.8887 8.73633V8.78418C41.6862 8.88444 42.2878 9.13509 42.6934 9.53613C43.1035 9.93717 43.3086 10.4681 43.3086 11.1289C43.3086 11.7077 43.1696 12.2249 42.8916 12.6807C42.6136 13.1318 42.1875 13.4873 41.6133 13.7471C41.0391 14.0068 40.3008 14.1367 39.3984 14.1367C38.8561 14.1367 38.3525 14.0934 37.8877 14.0068C37.4274 13.9202 36.9899 13.7812 36.5752 13.5898V12.1611C36.999 12.3708 37.4502 12.5326 37.9287 12.6465C38.4072 12.7604 38.8607 12.8174 39.2891 12.8174C40.123 12.8174 40.7178 12.6624 41.0732 12.3525C41.4287 12.0381 41.6064 11.6051 41.6064 11.0537C41.6064 10.6982 41.513 10.4066 41.3262 10.1787C41.1439 9.95085 40.859 9.77995 40.4717 9.66602C40.0889 9.55208 39.5944 9.49512 38.9883 9.49512H38.1064V8.20312H38.9951C39.5739 8.20312 40.0387 8.13477 40.3896 7.99805C40.7406 7.85677 40.9935 7.66309 41.1484 7.41699C41.3079 7.1709 41.3877 6.88379 41.3877 6.55566C41.3877 6.12728 41.2487 5.7946 40.9707 5.55762C40.6927 5.31608 40.2803 5.19531 39.7334 5.19531C39.3962 5.19531 39.0885 5.23405 38.8105 5.31152C38.5371 5.389 38.2842 5.48698 38.0518 5.60547C37.8193 5.72396 37.5983 5.85156 37.3887 5.98828L36.6162 4.87402C36.9945 4.59147 37.4456 4.35221 37.9697 4.15625C38.4938 3.96029 39.1045 3.8623 39.8018 3.8623C40.8271 3.8623 41.6178 4.08333 42.1738 4.52539C42.7298 4.96289 43.0078 5.55078 43.0078 6.28906Z" fill="white"/>
</svg>
