<svg width="37" height="26" viewBox="0 0 37 26" fill="none" xmlns="http://www.w3.org/2000/svg">
<path d="M22.4293 17.3578C20.8254 15.9321 18.7541 15.1447 16.6082 15.1447C14.4623 15.1447 12.3911 15.9321 10.7872 17.3578" stroke="#3E83A3" stroke-width="3" stroke-linecap="round" stroke-linejoin="round"/>
<path d="M27.0807 12.7063C24.2401 10.0501 20.4964 8.57245 16.6074 8.57245C12.7184 8.57245 8.97473 10.0501 6.13412 12.7063" stroke="#3E83A3" stroke-width="3" stroke-linecap="round" stroke-linejoin="round"/>
<path d="M31.215 7.56865C27.1945 3.9821 21.9952 2 16.6075 2C11.2198 2 6.02042 3.9821 2 7.56865" stroke="#3E83A3" stroke-width="3" stroke-linecap="round" stroke-linejoin="round"/>
<path d="M16.6075 25.3891C16.1253 25.3891 15.6539 25.2461 15.2529 24.9782C14.852 24.7103 14.5395 24.3295 14.3549 23.884C14.1704 23.4385 14.1221 22.9483 14.2162 22.4753C14.3103 22.0024 14.5425 21.568 14.8835 21.227C15.2244 20.886 15.6589 20.6538 16.1318 20.5597C16.6048 20.4656 17.095 20.5139 17.5405 20.6985C17.986 20.883 18.3668 21.1955 18.6347 21.5964C18.9026 21.9974 19.0456 22.4688 19.0456 22.951C19.0456 23.5976 18.7887 24.2178 18.3315 24.675C17.8743 25.1323 17.2541 25.3891 16.6075 25.3891V25.3891Z" fill="#3E83A3"/>
<g style="mix-blend-mode:darken">
<path d="M34.5363 19.2715C34.5363 19.8457 34.4931 20.4154 34.4065 20.9805C34.3244 21.5456 34.1786 22.0788 33.969 22.5801C33.7593 23.0768 33.4654 23.5189 33.0871 23.9062C32.7089 24.2891 32.2281 24.5898 31.6447 24.8086C31.0614 25.0273 30.355 25.1367 29.5256 25.1367C29.3296 25.1367 29.0995 25.1276 28.8352 25.1094C28.5709 25.0957 28.3521 25.0729 28.1789 25.041V23.3457C28.3612 23.3913 28.5549 23.4277 28.76 23.4551C28.9651 23.4779 29.1724 23.4893 29.382 23.4893C30.216 23.4893 30.8586 23.3571 31.3098 23.0928C31.7655 22.8285 32.0845 22.4616 32.2668 21.9922C32.4537 21.5228 32.5608 20.9805 32.5881 20.3652H32.5061C32.3739 20.584 32.2167 20.7822 32.0344 20.96C31.8567 21.1331 31.6288 21.2721 31.3508 21.377C31.0728 21.4772 30.7196 21.5273 30.2912 21.5273C29.7216 21.5273 29.2248 21.4043 28.801 21.1582C28.3817 20.9076 28.0559 20.5475 27.8235 20.0781C27.5956 19.6042 27.4817 19.0322 27.4817 18.3623C27.4817 17.6377 27.6184 17.0179 27.8918 16.5029C28.1698 15.9834 28.564 15.5846 29.0744 15.3066C29.5848 15.0286 30.1864 14.8896 30.8791 14.8896C31.3895 14.8896 31.8658 14.9785 32.3078 15.1562C32.7499 15.3294 33.1373 15.596 33.4699 15.9561C33.8072 16.3161 34.0692 16.7718 34.2561 17.3232C34.4429 17.8747 34.5363 18.5241 34.5363 19.2715ZM30.9201 16.585C30.51 16.585 30.175 16.7262 29.9153 17.0088C29.6555 17.2913 29.5256 17.7334 29.5256 18.335C29.5256 18.818 29.6373 19.2008 29.8606 19.4834C30.0839 19.766 30.4234 19.9072 30.8791 19.9072C31.1936 19.9072 31.467 19.8389 31.6994 19.7021C31.9319 19.5609 32.1119 19.3854 32.2395 19.1758C32.3716 18.9616 32.4377 18.7428 32.4377 18.5195C32.4377 18.2871 32.4058 18.057 32.342 17.8291C32.2782 17.6012 32.1825 17.3939 32.0549 17.207C31.9273 17.0202 31.7678 16.8698 31.5764 16.7559C31.3895 16.6419 31.1708 16.585 30.9201 16.585Z" fill="#3E83A3"/>
</g>
</svg>
