<svg width="46" height="30" viewBox="0 0 46 30" fill="none" xmlns="http://www.w3.org/2000/svg">
<path d="M14.9135 1C7.22962 1 1 7.19567 1 14.8377C1 22.4796 7.22962 28.6753 14.9135 28.6753C22.5973 28.6753 28.8269 22.4796 28.8269 14.8377C28.8269 7.19567 22.5973 1 14.9135 1Z" stroke="#39403E" stroke-width="2" stroke-miterlimit="10"/>
<path d="M14.9135 1C11.0291 1 7.3768 7.19567 7.3768 14.8377C7.3768 22.4796 11.0291 28.6753 14.9135 28.6753C18.7979 28.6753 22.4502 22.4796 22.4502 14.8377C22.4502 7.19567 18.7979 1 14.9135 1Z" stroke="#39403E" stroke-width="2" stroke-miterlimit="10"/>
<path d="M14.9135 1V28.6753" stroke="#39403E" stroke-width="2" stroke-miterlimit="10"/>
<path d="M28.8269 14.8377H1" stroke="#39403E" stroke-width="2" stroke-miterlimit="10"/>
<path d="M26.879 22.3101H2.94788" stroke="#39403E" stroke-width="2" stroke-miterlimit="10"/>
<path d="M26.879 8.19543H2.94788" stroke="#39403E" stroke-width="2" stroke-miterlimit="10"/>
<path d="M41.6625 29.1271L45.4189 23.5408H37.9061L41.6625 29.1271Z" fill="#39403E"/>
<path d="M41.7973 23.9166V8.64736" stroke="#39403E" stroke-width="3" stroke-linecap="square"/>
<path d="M34.2566 6.43164L38.013 12.0179H30.5002L34.2566 6.43164Z" fill="#F1CE2C"/>
<path d="M34.3914 11.5515V26.8207" stroke="#F1CE2C" stroke-width="3" stroke-linecap="square"/>
</svg>
